<?xml version="1.0" encoding="utf-8" standalone="no"?>
<!DOCTYPE svg PUBLIC "-//W3C//DTD SVG 1.1//EN"
  "http://www.w3.org/Graphics/SVG/1.1/DTD/svg11.dtd">
<svg xmlns:xlink="http://www.w3.org/1999/xlink" width="864pt" height="288pt" viewBox="0 0 864 288" xmlns="http://www.w3.org/2000/svg" version="1.1">
 <metadata>
  <rdf:RDF xmlns:dc="http://purl.org/dc/elements/1.1/" xmlns:cc="http://creativecommons.org/ns#" xmlns:rdf="http://www.w3.org/1999/02/22-rdf-syntax-ns#">
   <cc:Work>
    <dc:type rdf:resource="http://purl.org/dc/dcmitype/StillImage"/>
    <dc:date>2023-10-30T16:06:56.568049</dc:date>
    <dc:format>image/svg+xml</dc:format>
    <dc:creator>
     <cc:Agent>
      <dc:title>Matplotlib v3.7.1, https://matplotlib.org/</dc:title>
     </cc:Agent>
    </dc:creator>
   </cc:Work>
  </rdf:RDF>
 </metadata>
 <defs>
  <style type="text/css">*{stroke-linejoin: round; stroke-linecap: butt}</style>
 </defs>
 <g id="figure_1">
  <g id="patch_1">
   <path d="M 0 288 
L 864 288 
L 864 0 
L 0 0 
z
" style="fill: #ffffff"/>
  </g>
  <g id="axes_1">
   <g id="patch_2">
    <path d="M 54.65 246.04 
L 286.107914 246.04 
L 286.107914 25.44 
L 54.65 25.44 
z
" style="fill: #ffffff"/>
   </g>
   <g id="matplotlib.axis_1">
    <g id="xtick_1">
     <g id="line2d_1">
      <defs>
       <path id="m7c1da0faca" d="M 0 0 
L 0 3.5 
" style="stroke: #000000; stroke-width: 0.8"/>
      </defs>
      <g>
       <use xlink:href="#m7c1da0faca" x="98.394438" y="246.04" style="stroke: #000000; stroke-width: 0.8"/>
      </g>
     </g>
     <g id="text_1">
      <!-- 1000 -->
      <g transform="translate(85.669438 260.638438) scale(0.1 -0.1)">
       <defs>
        <path id="DejaVuSans-31" d="M 794 531 
L 1825 531 
L 1825 4091 
L 703 3866 
L 703 4441 
L 1819 4666 
L 2450 4666 
L 2450 531 
L 3481 531 
L 3481 0 
L 794 0 
L 794 531 
z
" transform="scale(0.015625)"/>
        <path id="DejaVuSans-30" d="M 2034 4250 
Q 1547 4250 1301 3770 
Q 1056 3291 1056 2328 
Q 1056 1369 1301 889 
Q 1547 409 2034 409 
Q 2525 409 2770 889 
Q 3016 1369 3016 2328 
Q 3016 3291 2770 3770 
Q 2525 4250 2034 4250 
z
M 2034 4750 
Q 2819 4750 3233 4129 
Q 3647 3509 3647 2328 
Q 3647 1150 3233 529 
Q 2819 -91 2034 -91 
Q 1250 -91 836 529 
Q 422 1150 422 2328 
Q 422 3509 836 4129 
Q 1250 4750 2034 4750 
z
" transform="scale(0.015625)"/>
       </defs>
       <use xlink:href="#DejaVuSans-31"/>
       <use xlink:href="#DejaVuSans-30" x="63.623047"/>
       <use xlink:href="#DejaVuSans-30" x="127.246094"/>
       <use xlink:href="#DejaVuSans-30" x="190.869141"/>
      </g>
     </g>
    </g>
    <g id="xtick_2">
     <g id="line2d_2">
      <g>
       <use xlink:href="#m7c1da0faca" x="142.692604" y="246.04" style="stroke: #000000; stroke-width: 0.8"/>
      </g>
     </g>
     <g id="text_2">
      <!-- 2000 -->
      <g transform="translate(129.967604 260.638438) scale(0.1 -0.1)">
       <defs>
        <path id="DejaVuSans-32" d="M 1228 531 
L 3431 531 
L 3431 0 
L 469 0 
L 469 531 
Q 828 903 1448 1529 
Q 2069 2156 2228 2338 
Q 2531 2678 2651 2914 
Q 2772 3150 2772 3378 
Q 2772 3750 2511 3984 
Q 2250 4219 1831 4219 
Q 1534 4219 1204 4116 
Q 875 4013 500 3803 
L 500 4441 
Q 881 4594 1212 4672 
Q 1544 4750 1819 4750 
Q 2544 4750 2975 4387 
Q 3406 4025 3406 3419 
Q 3406 3131 3298 2873 
Q 3191 2616 2906 2266 
Q 2828 2175 2409 1742 
Q 1991 1309 1228 531 
z
" transform="scale(0.015625)"/>
       </defs>
       <use xlink:href="#DejaVuSans-32"/>
       <use xlink:href="#DejaVuSans-30" x="63.623047"/>
       <use xlink:href="#DejaVuSans-30" x="127.246094"/>
       <use xlink:href="#DejaVuSans-30" x="190.869141"/>
      </g>
     </g>
    </g>
    <g id="xtick_3">
     <g id="line2d_3">
      <g>
       <use xlink:href="#m7c1da0faca" x="186.990769" y="246.04" style="stroke: #000000; stroke-width: 0.8"/>
      </g>
     </g>
     <g id="text_3">
      <!-- 3000 -->
      <g transform="translate(174.265769 260.638438) scale(0.1 -0.1)">
       <defs>
        <path id="DejaVuSans-33" d="M 2597 2516 
Q 3050 2419 3304 2112 
Q 3559 1806 3559 1356 
Q 3559 666 3084 287 
Q 2609 -91 1734 -91 
Q 1441 -91 1130 -33 
Q 819 25 488 141 
L 488 750 
Q 750 597 1062 519 
Q 1375 441 1716 441 
Q 2309 441 2620 675 
Q 2931 909 2931 1356 
Q 2931 1769 2642 2001 
Q 2353 2234 1838 2234 
L 1294 2234 
L 1294 2753 
L 1863 2753 
Q 2328 2753 2575 2939 
Q 2822 3125 2822 3475 
Q 2822 3834 2567 4026 
Q 2313 4219 1838 4219 
Q 1578 4219 1281 4162 
Q 984 4106 628 3988 
L 628 4550 
Q 988 4650 1302 4700 
Q 1616 4750 1894 4750 
Q 2613 4750 3031 4423 
Q 3450 4097 3450 3541 
Q 3450 3153 3228 2886 
Q 3006 2619 2597 2516 
z
" transform="scale(0.015625)"/>
       </defs>
       <use xlink:href="#DejaVuSans-33"/>
       <use xlink:href="#DejaVuSans-30" x="63.623047"/>
       <use xlink:href="#DejaVuSans-30" x="127.246094"/>
       <use xlink:href="#DejaVuSans-30" x="190.869141"/>
      </g>
     </g>
    </g>
    <g id="xtick_4">
     <g id="line2d_4">
      <g>
       <use xlink:href="#m7c1da0faca" x="231.288935" y="246.04" style="stroke: #000000; stroke-width: 0.8"/>
      </g>
     </g>
     <g id="text_4">
      <!-- 4000 -->
      <g transform="translate(218.563935 260.638438) scale(0.1 -0.1)">
       <defs>
        <path id="DejaVuSans-34" d="M 2419 4116 
L 825 1625 
L 2419 1625 
L 2419 4116 
z
M 2253 4666 
L 3047 4666 
L 3047 1625 
L 3713 1625 
L 3713 1100 
L 3047 1100 
L 3047 0 
L 2419 0 
L 2419 1100 
L 313 1100 
L 313 1709 
L 2253 4666 
z
" transform="scale(0.015625)"/>
       </defs>
       <use xlink:href="#DejaVuSans-34"/>
       <use xlink:href="#DejaVuSans-30" x="63.623047"/>
       <use xlink:href="#DejaVuSans-30" x="127.246094"/>
       <use xlink:href="#DejaVuSans-30" x="190.869141"/>
      </g>
     </g>
    </g>
    <g id="xtick_5">
     <g id="line2d_5">
      <g>
       <use xlink:href="#m7c1da0faca" x="275.5871" y="246.04" style="stroke: #000000; stroke-width: 0.8"/>
      </g>
     </g>
     <g id="text_5">
      <!-- 5000 -->
      <g transform="translate(262.8621 260.638438) scale(0.1 -0.1)">
       <defs>
        <path id="DejaVuSans-35" d="M 691 4666 
L 3169 4666 
L 3169 4134 
L 1269 4134 
L 1269 2991 
Q 1406 3038 1543 3061 
Q 1681 3084 1819 3084 
Q 2600 3084 3056 2656 
Q 3513 2228 3513 1497 
Q 3513 744 3044 326 
Q 2575 -91 1722 -91 
Q 1428 -91 1123 -41 
Q 819 9 494 109 
L 494 744 
Q 775 591 1075 516 
Q 1375 441 1709 441 
Q 2250 441 2565 725 
Q 2881 1009 2881 1497 
Q 2881 1984 2565 2268 
Q 2250 2553 1709 2553 
Q 1456 2553 1204 2497 
Q 953 2441 691 2322 
L 691 4666 
z
" transform="scale(0.015625)"/>
       </defs>
       <use xlink:href="#DejaVuSans-35"/>
       <use xlink:href="#DejaVuSans-30" x="63.623047"/>
       <use xlink:href="#DejaVuSans-30" x="127.246094"/>
       <use xlink:href="#DejaVuSans-30" x="190.869141"/>
      </g>
     </g>
    </g>
    <g id="text_6">
     <!-- Pressure (bars) -->
     <g transform="translate(132.645363 274.316562) scale(0.1 -0.1)">
      <defs>
       <path id="DejaVuSans-50" d="M 1259 4147 
L 1259 2394 
L 2053 2394 
Q 2494 2394 2734 2622 
Q 2975 2850 2975 3272 
Q 2975 3691 2734 3919 
Q 2494 4147 2053 4147 
L 1259 4147 
z
M 628 4666 
L 2053 4666 
Q 2838 4666 3239 4311 
Q 3641 3956 3641 3272 
Q 3641 2581 3239 2228 
Q 2838 1875 2053 1875 
L 1259 1875 
L 1259 0 
L 628 0 
L 628 4666 
z
" transform="scale(0.015625)"/>
       <path id="DejaVuSans-72" d="M 2631 2963 
Q 2534 3019 2420 3045 
Q 2306 3072 2169 3072 
Q 1681 3072 1420 2755 
Q 1159 2438 1159 1844 
L 1159 0 
L 581 0 
L 581 3500 
L 1159 3500 
L 1159 2956 
Q 1341 3275 1631 3429 
Q 1922 3584 2338 3584 
Q 2397 3584 2469 3576 
Q 2541 3569 2628 3553 
L 2631 2963 
z
" transform="scale(0.015625)"/>
       <path id="DejaVuSans-65" d="M 3597 1894 
L 3597 1613 
L 953 1613 
Q 991 1019 1311 708 
Q 1631 397 2203 397 
Q 2534 397 2845 478 
Q 3156 559 3463 722 
L 3463 178 
Q 3153 47 2828 -22 
Q 2503 -91 2169 -91 
Q 1331 -91 842 396 
Q 353 884 353 1716 
Q 353 2575 817 3079 
Q 1281 3584 2069 3584 
Q 2775 3584 3186 3129 
Q 3597 2675 3597 1894 
z
M 3022 2063 
Q 3016 2534 2758 2815 
Q 2500 3097 2075 3097 
Q 1594 3097 1305 2825 
Q 1016 2553 972 2059 
L 3022 2063 
z
" transform="scale(0.015625)"/>
       <path id="DejaVuSans-73" d="M 2834 3397 
L 2834 2853 
Q 2591 2978 2328 3040 
Q 2066 3103 1784 3103 
Q 1356 3103 1142 2972 
Q 928 2841 928 2578 
Q 928 2378 1081 2264 
Q 1234 2150 1697 2047 
L 1894 2003 
Q 2506 1872 2764 1633 
Q 3022 1394 3022 966 
Q 3022 478 2636 193 
Q 2250 -91 1575 -91 
Q 1294 -91 989 -36 
Q 684 19 347 128 
L 347 722 
Q 666 556 975 473 
Q 1284 391 1588 391 
Q 1994 391 2212 530 
Q 2431 669 2431 922 
Q 2431 1156 2273 1281 
Q 2116 1406 1581 1522 
L 1381 1569 
Q 847 1681 609 1914 
Q 372 2147 372 2553 
Q 372 3047 722 3315 
Q 1072 3584 1716 3584 
Q 2034 3584 2315 3537 
Q 2597 3491 2834 3397 
z
" transform="scale(0.015625)"/>
       <path id="DejaVuSans-75" d="M 544 1381 
L 544 3500 
L 1119 3500 
L 1119 1403 
Q 1119 906 1312 657 
Q 1506 409 1894 409 
Q 2359 409 2629 706 
Q 2900 1003 2900 1516 
L 2900 3500 
L 3475 3500 
L 3475 0 
L 2900 0 
L 2900 538 
Q 2691 219 2414 64 
Q 2138 -91 1772 -91 
Q 1169 -91 856 284 
Q 544 659 544 1381 
z
M 1991 3584 
L 1991 3584 
z
" transform="scale(0.015625)"/>
       <path id="DejaVuSans-20" transform="scale(0.015625)"/>
       <path id="DejaVuSans-28" d="M 1984 4856 
Q 1566 4138 1362 3434 
Q 1159 2731 1159 2009 
Q 1159 1288 1364 580 
Q 1569 -128 1984 -844 
L 1484 -844 
Q 1016 -109 783 600 
Q 550 1309 550 2009 
Q 550 2706 781 3412 
Q 1013 4119 1484 4856 
L 1984 4856 
z
" transform="scale(0.015625)"/>
       <path id="DejaVuSans-62" d="M 3116 1747 
Q 3116 2381 2855 2742 
Q 2594 3103 2138 3103 
Q 1681 3103 1420 2742 
Q 1159 2381 1159 1747 
Q 1159 1113 1420 752 
Q 1681 391 2138 391 
Q 2594 391 2855 752 
Q 3116 1113 3116 1747 
z
M 1159 2969 
Q 1341 3281 1617 3432 
Q 1894 3584 2278 3584 
Q 2916 3584 3314 3078 
Q 3713 2572 3713 1747 
Q 3713 922 3314 415 
Q 2916 -91 2278 -91 
Q 1894 -91 1617 61 
Q 1341 213 1159 525 
L 1159 0 
L 581 0 
L 581 4863 
L 1159 4863 
L 1159 2969 
z
" transform="scale(0.015625)"/>
       <path id="DejaVuSans-61" d="M 2194 1759 
Q 1497 1759 1228 1600 
Q 959 1441 959 1056 
Q 959 750 1161 570 
Q 1363 391 1709 391 
Q 2188 391 2477 730 
Q 2766 1069 2766 1631 
L 2766 1759 
L 2194 1759 
z
M 3341 1997 
L 3341 0 
L 2766 0 
L 2766 531 
Q 2569 213 2275 61 
Q 1981 -91 1556 -91 
Q 1019 -91 701 211 
Q 384 513 384 1019 
Q 384 1609 779 1909 
Q 1175 2209 1959 2209 
L 2766 2209 
L 2766 2266 
Q 2766 2663 2505 2880 
Q 2244 3097 1772 3097 
Q 1472 3097 1187 3025 
Q 903 2953 641 2809 
L 641 3341 
Q 956 3463 1253 3523 
Q 1550 3584 1831 3584 
Q 2591 3584 2966 3190 
Q 3341 2797 3341 1997 
z
" transform="scale(0.015625)"/>
       <path id="DejaVuSans-29" d="M 513 4856 
L 1013 4856 
Q 1481 4119 1714 3412 
Q 1947 2706 1947 2009 
Q 1947 1309 1714 600 
Q 1481 -109 1013 -844 
L 513 -844 
Q 928 -128 1133 580 
Q 1338 1288 1338 2009 
Q 1338 2731 1133 3434 
Q 928 4138 513 4856 
z
" transform="scale(0.015625)"/>
      </defs>
      <use xlink:href="#DejaVuSans-50"/>
      <use xlink:href="#DejaVuSans-72" x="58.552734"/>
      <use xlink:href="#DejaVuSans-65" x="97.416016"/>
      <use xlink:href="#DejaVuSans-73" x="158.939453"/>
      <use xlink:href="#DejaVuSans-73" x="211.039062"/>
      <use xlink:href="#DejaVuSans-75" x="263.138672"/>
      <use xlink:href="#DejaVuSans-72" x="326.517578"/>
      <use xlink:href="#DejaVuSans-65" x="365.380859"/>
      <use xlink:href="#DejaVuSans-20" x="426.904297"/>
      <use xlink:href="#DejaVuSans-28" x="458.691406"/>
      <use xlink:href="#DejaVuSans-62" x="497.705078"/>
      <use xlink:href="#DejaVuSans-61" x="561.181641"/>
      <use xlink:href="#DejaVuSans-72" x="622.460938"/>
      <use xlink:href="#DejaVuSans-73" x="663.574219"/>
      <use xlink:href="#DejaVuSans-29" x="715.673828"/>
     </g>
    </g>
   </g>
   <g id="matplotlib.axis_2">
    <g id="ytick_1">
     <g id="line2d_6">
      <defs>
       <path id="m655fcae3f0" d="M 0 0 
L -3.5 0 
" style="stroke: #000000; stroke-width: 0.8"/>
      </defs>
      <g>
       <use xlink:href="#m655fcae3f0" x="54.65" y="240.49024" style="stroke: #000000; stroke-width: 0.8"/>
      </g>
     </g>
     <g id="text_7">
      <!-- 725 -->
      <g transform="translate(28.5625 244.289459) scale(0.1 -0.1)">
       <defs>
        <path id="DejaVuSans-37" d="M 525 4666 
L 3525 4666 
L 3525 4397 
L 1831 0 
L 1172 0 
L 2766 4134 
L 525 4134 
L 525 4666 
z
" transform="scale(0.015625)"/>
       </defs>
       <use xlink:href="#DejaVuSans-37"/>
       <use xlink:href="#DejaVuSans-32" x="63.623047"/>
       <use xlink:href="#DejaVuSans-35" x="127.246094"/>
      </g>
     </g>
    </g>
    <g id="ytick_2">
     <g id="line2d_7">
      <g>
       <use xlink:href="#m655fcae3f0" x="54.65" y="211.032917" style="stroke: #000000; stroke-width: 0.8"/>
      </g>
     </g>
     <g id="text_8">
      <!-- 750 -->
      <g transform="translate(28.5625 214.832136) scale(0.1 -0.1)">
       <use xlink:href="#DejaVuSans-37"/>
       <use xlink:href="#DejaVuSans-35" x="63.623047"/>
       <use xlink:href="#DejaVuSans-30" x="127.246094"/>
      </g>
     </g>
    </g>
    <g id="ytick_3">
     <g id="line2d_8">
      <g>
       <use xlink:href="#m655fcae3f0" x="54.65" y="181.575594" style="stroke: #000000; stroke-width: 0.8"/>
      </g>
     </g>
     <g id="text_9">
      <!-- 775 -->
      <g transform="translate(28.5625 185.374813) scale(0.1 -0.1)">
       <use xlink:href="#DejaVuSans-37"/>
       <use xlink:href="#DejaVuSans-37" x="63.623047"/>
       <use xlink:href="#DejaVuSans-35" x="127.246094"/>
      </g>
     </g>
    </g>
    <g id="ytick_4">
     <g id="line2d_9">
      <g>
       <use xlink:href="#m655fcae3f0" x="54.65" y="152.118272" style="stroke: #000000; stroke-width: 0.8"/>
      </g>
     </g>
     <g id="text_10">
      <!-- 800 -->
      <g transform="translate(28.5625 155.91749) scale(0.1 -0.1)">
       <defs>
        <path id="DejaVuSans-38" d="M 2034 2216 
Q 1584 2216 1326 1975 
Q 1069 1734 1069 1313 
Q 1069 891 1326 650 
Q 1584 409 2034 409 
Q 2484 409 2743 651 
Q 3003 894 3003 1313 
Q 3003 1734 2745 1975 
Q 2488 2216 2034 2216 
z
M 1403 2484 
Q 997 2584 770 2862 
Q 544 3141 544 3541 
Q 544 4100 942 4425 
Q 1341 4750 2034 4750 
Q 2731 4750 3128 4425 
Q 3525 4100 3525 3541 
Q 3525 3141 3298 2862 
Q 3072 2584 2669 2484 
Q 3125 2378 3379 2068 
Q 3634 1759 3634 1313 
Q 3634 634 3220 271 
Q 2806 -91 2034 -91 
Q 1263 -91 848 271 
Q 434 634 434 1313 
Q 434 1759 690 2068 
Q 947 2378 1403 2484 
z
M 1172 3481 
Q 1172 3119 1398 2916 
Q 1625 2713 2034 2713 
Q 2441 2713 2670 2916 
Q 2900 3119 2900 3481 
Q 2900 3844 2670 4047 
Q 2441 4250 2034 4250 
Q 1625 4250 1398 4047 
Q 1172 3844 1172 3481 
z
" transform="scale(0.015625)"/>
       </defs>
       <use xlink:href="#DejaVuSans-38"/>
       <use xlink:href="#DejaVuSans-30" x="63.623047"/>
       <use xlink:href="#DejaVuSans-30" x="127.246094"/>
      </g>
     </g>
    </g>
    <g id="ytick_5">
     <g id="line2d_10">
      <g>
       <use xlink:href="#m655fcae3f0" x="54.65" y="122.660949" style="stroke: #000000; stroke-width: 0.8"/>
      </g>
     </g>
     <g id="text_11">
      <!-- 825 -->
      <g transform="translate(28.5625 126.460167) scale(0.1 -0.1)">
       <use xlink:href="#DejaVuSans-38"/>
       <use xlink:href="#DejaVuSans-32" x="63.623047"/>
       <use xlink:href="#DejaVuSans-35" x="127.246094"/>
      </g>
     </g>
    </g>
    <g id="ytick_6">
     <g id="line2d_11">
      <g>
       <use xlink:href="#m655fcae3f0" x="54.65" y="93.203626" style="stroke: #000000; stroke-width: 0.8"/>
      </g>
     </g>
     <g id="text_12">
      <!-- 850 -->
      <g transform="translate(28.5625 97.002844) scale(0.1 -0.1)">
       <use xlink:href="#DejaVuSans-38"/>
       <use xlink:href="#DejaVuSans-35" x="63.623047"/>
       <use xlink:href="#DejaVuSans-30" x="127.246094"/>
      </g>
     </g>
    </g>
    <g id="ytick_7">
     <g id="line2d_12">
      <g>
       <use xlink:href="#m655fcae3f0" x="54.65" y="63.746303" style="stroke: #000000; stroke-width: 0.8"/>
      </g>
     </g>
     <g id="text_13">
      <!-- 875 -->
      <g transform="translate(28.5625 67.545521) scale(0.1 -0.1)">
       <use xlink:href="#DejaVuSans-38"/>
       <use xlink:href="#DejaVuSans-37" x="63.623047"/>
       <use xlink:href="#DejaVuSans-35" x="127.246094"/>
      </g>
     </g>
    </g>
    <g id="ytick_8">
     <g id="line2d_13">
      <g>
       <use xlink:href="#m655fcae3f0" x="54.65" y="34.28898" style="stroke: #000000; stroke-width: 0.8"/>
      </g>
     </g>
     <g id="text_14">
      <!-- 900 -->
      <g transform="translate(28.5625 38.088199) scale(0.1 -0.1)">
       <defs>
        <path id="DejaVuSans-39" d="M 703 97 
L 703 672 
Q 941 559 1184 500 
Q 1428 441 1663 441 
Q 2288 441 2617 861 
Q 2947 1281 2994 2138 
Q 2813 1869 2534 1725 
Q 2256 1581 1919 1581 
Q 1219 1581 811 2004 
Q 403 2428 403 3163 
Q 403 3881 828 4315 
Q 1253 4750 1959 4750 
Q 2769 4750 3195 4129 
Q 3622 3509 3622 2328 
Q 3622 1225 3098 567 
Q 2575 -91 1691 -91 
Q 1453 -91 1209 -44 
Q 966 3 703 97 
z
M 1959 2075 
Q 2384 2075 2632 2365 
Q 2881 2656 2881 3163 
Q 2881 3666 2632 3958 
Q 2384 4250 1959 4250 
Q 1534 4250 1286 3958 
Q 1038 3666 1038 3163 
Q 1038 2656 1286 2365 
Q 1534 2075 1959 2075 
z
" transform="scale(0.015625)"/>
       </defs>
       <use xlink:href="#DejaVuSans-39"/>
       <use xlink:href="#DejaVuSans-30" x="63.623047"/>
       <use xlink:href="#DejaVuSans-30" x="127.246094"/>
      </g>
     </g>
    </g>
    <g id="text_15">
     <!-- Temperature ($^o$C) -->
     <g transform="translate(22.4625 179.69) rotate(-90) scale(0.1 -0.1)">
      <defs>
       <path id="DejaVuSans-54" d="M -19 4666 
L 3928 4666 
L 3928 4134 
L 2272 4134 
L 2272 0 
L 1638 0 
L 1638 4134 
L -19 4134 
L -19 4666 
z
" transform="scale(0.015625)"/>
       <path id="DejaVuSans-6d" d="M 3328 2828 
Q 3544 3216 3844 3400 
Q 4144 3584 4550 3584 
Q 5097 3584 5394 3201 
Q 5691 2819 5691 2113 
L 5691 0 
L 5113 0 
L 5113 2094 
Q 5113 2597 4934 2840 
Q 4756 3084 4391 3084 
Q 3944 3084 3684 2787 
Q 3425 2491 3425 1978 
L 3425 0 
L 2847 0 
L 2847 2094 
Q 2847 2600 2669 2842 
Q 2491 3084 2119 3084 
Q 1678 3084 1418 2786 
Q 1159 2488 1159 1978 
L 1159 0 
L 581 0 
L 581 3500 
L 1159 3500 
L 1159 2956 
Q 1356 3278 1631 3431 
Q 1906 3584 2284 3584 
Q 2666 3584 2933 3390 
Q 3200 3197 3328 2828 
z
" transform="scale(0.015625)"/>
       <path id="DejaVuSans-70" d="M 1159 525 
L 1159 -1331 
L 581 -1331 
L 581 3500 
L 1159 3500 
L 1159 2969 
Q 1341 3281 1617 3432 
Q 1894 3584 2278 3584 
Q 2916 3584 3314 3078 
Q 3713 2572 3713 1747 
Q 3713 922 3314 415 
Q 2916 -91 2278 -91 
Q 1894 -91 1617 61 
Q 1341 213 1159 525 
z
M 3116 1747 
Q 3116 2381 2855 2742 
Q 2594 3103 2138 3103 
Q 1681 3103 1420 2742 
Q 1159 2381 1159 1747 
Q 1159 1113 1420 752 
Q 1681 391 2138 391 
Q 2594 391 2855 752 
Q 3116 1113 3116 1747 
z
" transform="scale(0.015625)"/>
       <path id="DejaVuSans-74" d="M 1172 4494 
L 1172 3500 
L 2356 3500 
L 2356 3053 
L 1172 3053 
L 1172 1153 
Q 1172 725 1289 603 
Q 1406 481 1766 481 
L 2356 481 
L 2356 0 
L 1766 0 
Q 1100 0 847 248 
Q 594 497 594 1153 
L 594 3053 
L 172 3053 
L 172 3500 
L 594 3500 
L 594 4494 
L 1172 4494 
z
" transform="scale(0.015625)"/>
       <path id="DejaVuSans-Oblique-6f" d="M 1625 -91 
Q 1009 -91 651 289 
Q 294 669 294 1325 
Q 294 1706 417 2101 
Q 541 2497 738 2766 
Q 1047 3184 1428 3384 
Q 1809 3584 2291 3584 
Q 2888 3584 3255 3212 
Q 3622 2841 3622 2241 
Q 3622 1825 3500 1412 
Q 3378 1000 3181 728 
Q 2875 309 2494 109 
Q 2113 -91 1625 -91 
z
M 891 1344 
Q 891 869 1089 633 
Q 1288 397 1691 397 
Q 2269 397 2648 901 
Q 3028 1406 3028 2181 
Q 3028 2634 2825 2865 
Q 2622 3097 2228 3097 
Q 1903 3097 1650 2945 
Q 1397 2794 1197 2484 
Q 1050 2253 970 1956 
Q 891 1659 891 1344 
z
" transform="scale(0.015625)"/>
       <path id="DejaVuSans-43" d="M 4122 4306 
L 4122 3641 
Q 3803 3938 3442 4084 
Q 3081 4231 2675 4231 
Q 1875 4231 1450 3742 
Q 1025 3253 1025 2328 
Q 1025 1406 1450 917 
Q 1875 428 2675 428 
Q 3081 428 3442 575 
Q 3803 722 4122 1019 
L 4122 359 
Q 3791 134 3420 21 
Q 3050 -91 2638 -91 
Q 1578 -91 968 557 
Q 359 1206 359 2328 
Q 359 3453 968 4101 
Q 1578 4750 2638 4750 
Q 3056 4750 3426 4639 
Q 3797 4528 4122 4306 
z
" transform="scale(0.015625)"/>
      </defs>
      <use xlink:href="#DejaVuSans-54" transform="translate(0 0.51875)"/>
      <use xlink:href="#DejaVuSans-65" transform="translate(61.083984 0.51875)"/>
      <use xlink:href="#DejaVuSans-6d" transform="translate(122.607422 0.51875)"/>
      <use xlink:href="#DejaVuSans-70" transform="translate(220.019531 0.51875)"/>
      <use xlink:href="#DejaVuSans-65" transform="translate(283.496094 0.51875)"/>
      <use xlink:href="#DejaVuSans-72" transform="translate(345.019531 0.51875)"/>
      <use xlink:href="#DejaVuSans-61" transform="translate(386.132812 0.51875)"/>
      <use xlink:href="#DejaVuSans-74" transform="translate(447.412109 0.51875)"/>
      <use xlink:href="#DejaVuSans-75" transform="translate(486.621094 0.51875)"/>
      <use xlink:href="#DejaVuSans-72" transform="translate(550 0.51875)"/>
      <use xlink:href="#DejaVuSans-65" transform="translate(591.113281 0.51875)"/>
      <use xlink:href="#DejaVuSans-20" transform="translate(652.636719 0.51875)"/>
      <use xlink:href="#DejaVuSans-28" transform="translate(684.423828 0.51875)"/>
      <use xlink:href="#DejaVuSans-Oblique-6f" transform="translate(724.394531 38.8) scale(0.7)"/>
      <use xlink:href="#DejaVuSans-43" transform="translate(769.956055 0.51875)"/>
      <use xlink:href="#DejaVuSans-29" transform="translate(839.780273 0.51875)"/>
     </g>
    </g>
   </g>
   <g id="line2d_14">
    <path d="M 65.170814 63.746303 
L 71.958436 97.44548 
L 78.746059 122.42529 
L 85.533681 141.395806 
L 92.321303 156.595785 
L 99.108925 167.789567 
L 105.896547 177.922886 
L 112.684169 185.110473 
L 119.471791 191.001938 
L 126.259413 196.893402 
L 133.047036 201.960062 
L 139.834658 205.730599 
L 146.62228 209.618966 
L 153.409902 211.857722 
L 160.197524 211.857722 
L 166.985146 211.622064 
L 173.772768 211.268576 
L 180.56039 210.915088 
L 187.348013 210.5616 
L 194.135635 210.090283 
L 200.923257 209.736795 
L 207.710879 209.265478 
L 214.498501 208.794161 
L 221.286123 208.440673 
L 228.073745 208.087185 
L 234.861367 207.733697 
L 241.64899 207.380209 
L 248.436612 207.026722 
L 255.224234 206.791063 
L 262.011856 206.555404 
L 268.799478 206.319746 
L 275.5871 206.084087 
" clip-path="url(#p5182b15acc)" style="fill: none; stroke: #000000; stroke-width: 1.5; stroke-linecap: square"/>
   </g>
   <g id="line2d_15">
    <path d="M 65.170814 35.467273 
L 71.958436 67.988157 
L 78.746059 95.324553 
L 85.533681 116.651655 
L 92.321303 134.208219 
L 99.108925 148.936881 
L 105.896547 161.426786 
L 112.684169 172.149251 
L 119.471791 181.575594 
L 126.259413 189.823645 
L 133.047036 197.24689 
L 139.834658 204.552306 
L 146.62228 209.618966 
L 153.409902 213.036015 
L 160.197524 216.570894 
L 166.985146 219.870114 
L 173.772768 223.051505 
L 180.56039 227.411189 
L 187.348013 229.414287 
L 194.135635 232.477849 
L 200.923257 235.659239 
" clip-path="url(#p5182b15acc)" style="fill: none; stroke: #ff0000; stroke-width: 1.5; stroke-linecap: square"/>
   </g>
   <g id="line2d_16">
    <path d="M 85.533681 143.752392 
L 92.321303 157.774078 
L 99.108925 168.96786 
L 105.896547 177.922886 
L 112.684169 183.93218 
L 119.471791 188.645352 
L 126.259413 193.358524 
L 133.047036 198.425183 
L 139.834658 203.374013 
L 146.62228 208.440673 
L 153.409902 211.857722 
L 160.197524 214.214308 
L 166.985146 217.513528 
L 173.772768 219.516626 
L 180.56039 221.519724 
L 187.348013 223.522822 
L 194.135635 225.408091 
L 200.923257 227.411189 
L 207.710879 229.296458 
L 214.498501 231.181726 
L 221.286123 232.006531 
L 228.073745 234.009629 
L 234.861367 236.012727 
" clip-path="url(#p5182b15acc)" style="fill: none; stroke: #0000ff; stroke-width: 1.5; stroke-linecap: square"/>
   </g>
   <g id="patch_3">
    <path d="M 54.65 246.04 
L 54.65 25.44 
" style="fill: none; stroke: #000000; stroke-width: 0.8; stroke-linejoin: miter; stroke-linecap: square"/>
   </g>
   <g id="patch_4">
    <path d="M 286.107914 246.04 
L 286.107914 25.44 
" style="fill: none; stroke: #000000; stroke-width: 0.8; stroke-linejoin: miter; stroke-linecap: square"/>
   </g>
   <g id="patch_5">
    <path d="M 54.65 246.04 
L 286.107914 246.04 
" style="fill: none; stroke: #000000; stroke-width: 0.8; stroke-linejoin: miter; stroke-linecap: square"/>
   </g>
   <g id="patch_6">
    <path d="M 54.65 25.44 
L 286.107914 25.44 
" style="fill: none; stroke: #000000; stroke-width: 0.8; stroke-linejoin: miter; stroke-linecap: square"/>
   </g>
   <g id="text_16">
    <!-- Saturation Temepratures -->
    <g transform="translate(96.066145 19.44) scale(0.12 -0.12)">
     <defs>
      <path id="DejaVuSans-53" d="M 3425 4513 
L 3425 3897 
Q 3066 4069 2747 4153 
Q 2428 4238 2131 4238 
Q 1616 4238 1336 4038 
Q 1056 3838 1056 3469 
Q 1056 3159 1242 3001 
Q 1428 2844 1947 2747 
L 2328 2669 
Q 3034 2534 3370 2195 
Q 3706 1856 3706 1288 
Q 3706 609 3251 259 
Q 2797 -91 1919 -91 
Q 1588 -91 1214 -16 
Q 841 59 441 206 
L 441 856 
Q 825 641 1194 531 
Q 1563 422 1919 422 
Q 2459 422 2753 634 
Q 3047 847 3047 1241 
Q 3047 1584 2836 1778 
Q 2625 1972 2144 2069 
L 1759 2144 
Q 1053 2284 737 2584 
Q 422 2884 422 3419 
Q 422 4038 858 4394 
Q 1294 4750 2059 4750 
Q 2388 4750 2728 4690 
Q 3069 4631 3425 4513 
z
" transform="scale(0.015625)"/>
      <path id="DejaVuSans-69" d="M 603 3500 
L 1178 3500 
L 1178 0 
L 603 0 
L 603 3500 
z
M 603 4863 
L 1178 4863 
L 1178 4134 
L 603 4134 
L 603 4863 
z
" transform="scale(0.015625)"/>
      <path id="DejaVuSans-6f" d="M 1959 3097 
Q 1497 3097 1228 2736 
Q 959 2375 959 1747 
Q 959 1119 1226 758 
Q 1494 397 1959 397 
Q 2419 397 2687 759 
Q 2956 1122 2956 1747 
Q 2956 2369 2687 2733 
Q 2419 3097 1959 3097 
z
M 1959 3584 
Q 2709 3584 3137 3096 
Q 3566 2609 3566 1747 
Q 3566 888 3137 398 
Q 2709 -91 1959 -91 
Q 1206 -91 779 398 
Q 353 888 353 1747 
Q 353 2609 779 3096 
Q 1206 3584 1959 3584 
z
" transform="scale(0.015625)"/>
      <path id="DejaVuSans-6e" d="M 3513 2113 
L 3513 0 
L 2938 0 
L 2938 2094 
Q 2938 2591 2744 2837 
Q 2550 3084 2163 3084 
Q 1697 3084 1428 2787 
Q 1159 2491 1159 1978 
L 1159 0 
L 581 0 
L 581 3500 
L 1159 3500 
L 1159 2956 
Q 1366 3272 1645 3428 
Q 1925 3584 2291 3584 
Q 2894 3584 3203 3211 
Q 3513 2838 3513 2113 
z
" transform="scale(0.015625)"/>
     </defs>
     <use xlink:href="#DejaVuSans-53"/>
     <use xlink:href="#DejaVuSans-61" x="63.476562"/>
     <use xlink:href="#DejaVuSans-74" x="124.755859"/>
     <use xlink:href="#DejaVuSans-75" x="163.964844"/>
     <use xlink:href="#DejaVuSans-72" x="227.34375"/>
     <use xlink:href="#DejaVuSans-61" x="268.457031"/>
     <use xlink:href="#DejaVuSans-74" x="329.736328"/>
     <use xlink:href="#DejaVuSans-69" x="368.945312"/>
     <use xlink:href="#DejaVuSans-6f" x="396.728516"/>
     <use xlink:href="#DejaVuSans-6e" x="457.910156"/>
     <use xlink:href="#DejaVuSans-20" x="521.289062"/>
     <use xlink:href="#DejaVuSans-54" x="553.076172"/>
     <use xlink:href="#DejaVuSans-65" x="597.160156"/>
     <use xlink:href="#DejaVuSans-6d" x="658.683594"/>
     <use xlink:href="#DejaVuSans-65" x="756.095703"/>
     <use xlink:href="#DejaVuSans-70" x="817.619141"/>
     <use xlink:href="#DejaVuSans-72" x="881.095703"/>
     <use xlink:href="#DejaVuSans-61" x="922.208984"/>
     <use xlink:href="#DejaVuSans-74" x="983.488281"/>
     <use xlink:href="#DejaVuSans-75" x="1022.697266"/>
     <use xlink:href="#DejaVuSans-72" x="1086.076172"/>
     <use xlink:href="#DejaVuSans-65" x="1124.939453"/>
     <use xlink:href="#DejaVuSans-73" x="1186.462891"/>
    </g>
   </g>
   <g id="legend_1">
    <g id="patch_7">
     <path d="M 174.732914 77.474375 
L 279.107914 77.474375 
Q 281.107914 77.474375 281.107914 75.474375 
L 281.107914 32.44 
Q 281.107914 30.44 279.107914 30.44 
L 174.732914 30.44 
Q 172.732914 30.44 172.732914 32.44 
L 172.732914 75.474375 
Q 172.732914 77.474375 174.732914 77.474375 
z
" style="fill: #ffffff; opacity: 0.8; stroke: #cccccc; stroke-linejoin: miter"/>
    </g>
    <g id="line2d_17">
     <path d="M 176.732914 38.538438 
L 186.732914 38.538438 
L 196.732914 38.538438 
" style="fill: none; stroke: #000000; stroke-width: 1.5; stroke-linecap: square"/>
    </g>
    <g id="text_17">
     <!-- Quartz -->
     <g transform="translate(204.732914 42.038438) scale(0.1 -0.1)">
      <defs>
       <path id="DejaVuSans-51" d="M 2522 4238 
Q 1834 4238 1429 3725 
Q 1025 3213 1025 2328 
Q 1025 1447 1429 934 
Q 1834 422 2522 422 
Q 3209 422 3611 934 
Q 4013 1447 4013 2328 
Q 4013 3213 3611 3725 
Q 3209 4238 2522 4238 
z
M 3406 84 
L 4238 -825 
L 3475 -825 
L 2784 -78 
Q 2681 -84 2626 -87 
Q 2572 -91 2522 -91 
Q 1538 -91 948 567 
Q 359 1225 359 2328 
Q 359 3434 948 4092 
Q 1538 4750 2522 4750 
Q 3503 4750 4090 4092 
Q 4678 3434 4678 2328 
Q 4678 1516 4351 937 
Q 4025 359 3406 84 
z
" transform="scale(0.015625)"/>
       <path id="DejaVuSans-7a" d="M 353 3500 
L 3084 3500 
L 3084 2975 
L 922 459 
L 3084 459 
L 3084 0 
L 275 0 
L 275 525 
L 2438 3041 
L 353 3041 
L 353 3500 
z
" transform="scale(0.015625)"/>
      </defs>
      <use xlink:href="#DejaVuSans-51"/>
      <use xlink:href="#DejaVuSans-75" x="78.710938"/>
      <use xlink:href="#DejaVuSans-61" x="142.089844"/>
      <use xlink:href="#DejaVuSans-72" x="203.369141"/>
      <use xlink:href="#DejaVuSans-74" x="244.482422"/>
      <use xlink:href="#DejaVuSans-7a" x="283.691406"/>
     </g>
    </g>
    <g id="line2d_18">
     <path d="M 176.732914 53.216563 
L 186.732914 53.216563 
L 196.732914 53.216563 
" style="fill: none; stroke: #ff0000; stroke-width: 1.5; stroke-linecap: square"/>
    </g>
    <g id="text_18">
     <!-- Plagioclase -->
     <g transform="translate(204.732914 56.716563) scale(0.1 -0.1)">
      <defs>
       <path id="DejaVuSans-6c" d="M 603 4863 
L 1178 4863 
L 1178 0 
L 603 0 
L 603 4863 
z
" transform="scale(0.015625)"/>
       <path id="DejaVuSans-67" d="M 2906 1791 
Q 2906 2416 2648 2759 
Q 2391 3103 1925 3103 
Q 1463 3103 1205 2759 
Q 947 2416 947 1791 
Q 947 1169 1205 825 
Q 1463 481 1925 481 
Q 2391 481 2648 825 
Q 2906 1169 2906 1791 
z
M 3481 434 
Q 3481 -459 3084 -895 
Q 2688 -1331 1869 -1331 
Q 1566 -1331 1297 -1286 
Q 1028 -1241 775 -1147 
L 775 -588 
Q 1028 -725 1275 -790 
Q 1522 -856 1778 -856 
Q 2344 -856 2625 -561 
Q 2906 -266 2906 331 
L 2906 616 
Q 2728 306 2450 153 
Q 2172 0 1784 0 
Q 1141 0 747 490 
Q 353 981 353 1791 
Q 353 2603 747 3093 
Q 1141 3584 1784 3584 
Q 2172 3584 2450 3431 
Q 2728 3278 2906 2969 
L 2906 3500 
L 3481 3500 
L 3481 434 
z
" transform="scale(0.015625)"/>
       <path id="DejaVuSans-63" d="M 3122 3366 
L 3122 2828 
Q 2878 2963 2633 3030 
Q 2388 3097 2138 3097 
Q 1578 3097 1268 2742 
Q 959 2388 959 1747 
Q 959 1106 1268 751 
Q 1578 397 2138 397 
Q 2388 397 2633 464 
Q 2878 531 3122 666 
L 3122 134 
Q 2881 22 2623 -34 
Q 2366 -91 2075 -91 
Q 1284 -91 818 406 
Q 353 903 353 1747 
Q 353 2603 823 3093 
Q 1294 3584 2113 3584 
Q 2378 3584 2631 3529 
Q 2884 3475 3122 3366 
z
" transform="scale(0.015625)"/>
      </defs>
      <use xlink:href="#DejaVuSans-50"/>
      <use xlink:href="#DejaVuSans-6c" x="60.302734"/>
      <use xlink:href="#DejaVuSans-61" x="88.085938"/>
      <use xlink:href="#DejaVuSans-67" x="149.365234"/>
      <use xlink:href="#DejaVuSans-69" x="212.841797"/>
      <use xlink:href="#DejaVuSans-6f" x="240.625"/>
      <use xlink:href="#DejaVuSans-63" x="301.806641"/>
      <use xlink:href="#DejaVuSans-6c" x="356.787109"/>
      <use xlink:href="#DejaVuSans-61" x="384.570312"/>
      <use xlink:href="#DejaVuSans-73" x="445.849609"/>
      <use xlink:href="#DejaVuSans-65" x="497.949219"/>
     </g>
    </g>
    <g id="line2d_19">
     <path d="M 176.732914 67.894688 
L 186.732914 67.894688 
L 196.732914 67.894688 
" style="fill: none; stroke: #0000ff; stroke-width: 1.5; stroke-linecap: square"/>
    </g>
    <g id="text_19">
     <!-- Alkali Feldspar -->
     <g transform="translate(204.732914 71.394688) scale(0.1 -0.1)">
      <defs>
       <path id="DejaVuSans-41" d="M 2188 4044 
L 1331 1722 
L 3047 1722 
L 2188 4044 
z
M 1831 4666 
L 2547 4666 
L 4325 0 
L 3669 0 
L 3244 1197 
L 1141 1197 
L 716 0 
L 50 0 
L 1831 4666 
z
" transform="scale(0.015625)"/>
       <path id="DejaVuSans-6b" d="M 581 4863 
L 1159 4863 
L 1159 1991 
L 2875 3500 
L 3609 3500 
L 1753 1863 
L 3688 0 
L 2938 0 
L 1159 1709 
L 1159 0 
L 581 0 
L 581 4863 
z
" transform="scale(0.015625)"/>
       <path id="DejaVuSans-46" d="M 628 4666 
L 3309 4666 
L 3309 4134 
L 1259 4134 
L 1259 2759 
L 3109 2759 
L 3109 2228 
L 1259 2228 
L 1259 0 
L 628 0 
L 628 4666 
z
" transform="scale(0.015625)"/>
       <path id="DejaVuSans-64" d="M 2906 2969 
L 2906 4863 
L 3481 4863 
L 3481 0 
L 2906 0 
L 2906 525 
Q 2725 213 2448 61 
Q 2172 -91 1784 -91 
Q 1150 -91 751 415 
Q 353 922 353 1747 
Q 353 2572 751 3078 
Q 1150 3584 1784 3584 
Q 2172 3584 2448 3432 
Q 2725 3281 2906 2969 
z
M 947 1747 
Q 947 1113 1208 752 
Q 1469 391 1925 391 
Q 2381 391 2643 752 
Q 2906 1113 2906 1747 
Q 2906 2381 2643 2742 
Q 2381 3103 1925 3103 
Q 1469 3103 1208 2742 
Q 947 2381 947 1747 
z
" transform="scale(0.015625)"/>
      </defs>
      <use xlink:href="#DejaVuSans-41"/>
      <use xlink:href="#DejaVuSans-6c" x="68.408203"/>
      <use xlink:href="#DejaVuSans-6b" x="96.191406"/>
      <use xlink:href="#DejaVuSans-61" x="152.351562"/>
      <use xlink:href="#DejaVuSans-6c" x="213.630859"/>
      <use xlink:href="#DejaVuSans-69" x="241.414062"/>
      <use xlink:href="#DejaVuSans-20" x="269.197266"/>
      <use xlink:href="#DejaVuSans-46" x="300.984375"/>
      <use xlink:href="#DejaVuSans-65" x="353.003906"/>
      <use xlink:href="#DejaVuSans-6c" x="414.527344"/>
      <use xlink:href="#DejaVuSans-64" x="442.310547"/>
      <use xlink:href="#DejaVuSans-73" x="505.787109"/>
      <use xlink:href="#DejaVuSans-70" x="557.886719"/>
      <use xlink:href="#DejaVuSans-61" x="621.363281"/>
      <use xlink:href="#DejaVuSans-72" x="682.642578"/>
     </g>
    </g>
   </g>
  </g>
  <g id="axes_2">
   <g id="patch_8">
    <path d="M 338.196043 246.04 
L 569.653957 246.04 
L 569.653957 25.44 
L 338.196043 25.44 
z
" style="fill: #ffffff"/>
   </g>
   <g id="matplotlib.axis_3">
    <g id="xtick_6">
     <g id="line2d_20">
      <g>
       <use xlink:href="#m7c1da0faca" x="372.168827" y="246.04" style="stroke: #000000; stroke-width: 0.8"/>
      </g>
     </g>
     <g id="text_20">
      <!-- 1000 -->
      <g transform="translate(359.443827 260.638438) scale(0.1 -0.1)">
       <use xlink:href="#DejaVuSans-31"/>
       <use xlink:href="#DejaVuSans-30" x="63.623047"/>
       <use xlink:href="#DejaVuSans-30" x="127.246094"/>
       <use xlink:href="#DejaVuSans-30" x="190.869141"/>
      </g>
     </g>
    </g>
    <g id="xtick_7">
     <g id="line2d_21">
      <g>
       <use xlink:href="#m7c1da0faca" x="412.558331" y="246.04" style="stroke: #000000; stroke-width: 0.8"/>
      </g>
     </g>
     <g id="text_21">
      <!-- 1500 -->
      <g transform="translate(399.833331 260.638438) scale(0.1 -0.1)">
       <use xlink:href="#DejaVuSans-31"/>
       <use xlink:href="#DejaVuSans-35" x="63.623047"/>
       <use xlink:href="#DejaVuSans-30" x="127.246094"/>
       <use xlink:href="#DejaVuSans-30" x="190.869141"/>
      </g>
     </g>
    </g>
    <g id="xtick_8">
     <g id="line2d_22">
      <g>
       <use xlink:href="#m7c1da0faca" x="452.947835" y="246.04" style="stroke: #000000; stroke-width: 0.8"/>
      </g>
     </g>
     <g id="text_22">
      <!-- 2000 -->
      <g transform="translate(440.222835 260.638438) scale(0.1 -0.1)">
       <use xlink:href="#DejaVuSans-32"/>
       <use xlink:href="#DejaVuSans-30" x="63.623047"/>
       <use xlink:href="#DejaVuSans-30" x="127.246094"/>
       <use xlink:href="#DejaVuSans-30" x="190.869141"/>
      </g>
     </g>
    </g>
    <g id="xtick_9">
     <g id="line2d_23">
      <g>
       <use xlink:href="#m7c1da0faca" x="493.337338" y="246.04" style="stroke: #000000; stroke-width: 0.8"/>
      </g>
     </g>
     <g id="text_23">
      <!-- 2500 -->
      <g transform="translate(480.612338 260.638438) scale(0.1 -0.1)">
       <use xlink:href="#DejaVuSans-32"/>
       <use xlink:href="#DejaVuSans-35" x="63.623047"/>
       <use xlink:href="#DejaVuSans-30" x="127.246094"/>
       <use xlink:href="#DejaVuSans-30" x="190.869141"/>
      </g>
     </g>
    </g>
    <g id="xtick_10">
     <g id="line2d_24">
      <g>
       <use xlink:href="#m7c1da0faca" x="533.726842" y="246.04" style="stroke: #000000; stroke-width: 0.8"/>
      </g>
     </g>
     <g id="text_24">
      <!-- 3000 -->
      <g transform="translate(521.001842 260.638438) scale(0.1 -0.1)">
       <use xlink:href="#DejaVuSans-33"/>
       <use xlink:href="#DejaVuSans-30" x="63.623047"/>
       <use xlink:href="#DejaVuSans-30" x="127.246094"/>
       <use xlink:href="#DejaVuSans-30" x="190.869141"/>
      </g>
     </g>
    </g>
    <g id="text_25">
     <!-- Pressure (bars) -->
     <g transform="translate(416.191406 274.316562) scale(0.1 -0.1)">
      <use xlink:href="#DejaVuSans-50"/>
      <use xlink:href="#DejaVuSans-72" x="58.552734"/>
      <use xlink:href="#DejaVuSans-65" x="97.416016"/>
      <use xlink:href="#DejaVuSans-73" x="158.939453"/>
      <use xlink:href="#DejaVuSans-73" x="211.039062"/>
      <use xlink:href="#DejaVuSans-75" x="263.138672"/>
      <use xlink:href="#DejaVuSans-72" x="326.517578"/>
      <use xlink:href="#DejaVuSans-65" x="365.380859"/>
      <use xlink:href="#DejaVuSans-20" x="426.904297"/>
      <use xlink:href="#DejaVuSans-28" x="458.691406"/>
      <use xlink:href="#DejaVuSans-62" x="497.705078"/>
      <use xlink:href="#DejaVuSans-61" x="561.181641"/>
      <use xlink:href="#DejaVuSans-72" x="622.460938"/>
      <use xlink:href="#DejaVuSans-73" x="663.574219"/>
      <use xlink:href="#DejaVuSans-29" x="715.673828"/>
     </g>
    </g>
   </g>
   <g id="matplotlib.axis_4">
    <g id="ytick_9">
     <g id="line2d_25">
      <g>
       <use xlink:href="#m655fcae3f0" x="338.196043" y="242.087275" style="stroke: #000000; stroke-width: 0.8"/>
      </g>
     </g>
     <g id="text_26">
      <!-- 0 -->
      <g transform="translate(324.833543 245.886493) scale(0.1 -0.1)">
       <use xlink:href="#DejaVuSans-30"/>
      </g>
     </g>
    </g>
    <g id="ytick_10">
     <g id="line2d_26">
      <g>
       <use xlink:href="#m655fcae3f0" x="338.196043" y="197.169883" style="stroke: #000000; stroke-width: 0.8"/>
      </g>
     </g>
     <g id="text_27">
      <!-- 5 -->
      <g transform="translate(324.833543 200.969102) scale(0.1 -0.1)">
       <use xlink:href="#DejaVuSans-35"/>
      </g>
     </g>
    </g>
    <g id="ytick_11">
     <g id="line2d_27">
      <g>
       <use xlink:href="#m655fcae3f0" x="338.196043" y="152.252491" style="stroke: #000000; stroke-width: 0.8"/>
      </g>
     </g>
     <g id="text_28">
      <!-- 10 -->
      <g transform="translate(318.471043 156.05171) scale(0.1 -0.1)">
       <use xlink:href="#DejaVuSans-31"/>
       <use xlink:href="#DejaVuSans-30" x="63.623047"/>
      </g>
     </g>
    </g>
    <g id="ytick_12">
     <g id="line2d_28">
      <g>
       <use xlink:href="#m655fcae3f0" x="338.196043" y="107.335099" style="stroke: #000000; stroke-width: 0.8"/>
      </g>
     </g>
     <g id="text_29">
      <!-- 15 -->
      <g transform="translate(318.471043 111.134318) scale(0.1 -0.1)">
       <use xlink:href="#DejaVuSans-31"/>
       <use xlink:href="#DejaVuSans-35" x="63.623047"/>
      </g>
     </g>
    </g>
    <g id="ytick_13">
     <g id="line2d_29">
      <g>
       <use xlink:href="#m655fcae3f0" x="338.196043" y="62.417708" style="stroke: #000000; stroke-width: 0.8"/>
      </g>
     </g>
     <g id="text_30">
      <!-- 20 -->
      <g transform="translate(318.471043 66.216926) scale(0.1 -0.1)">
       <use xlink:href="#DejaVuSans-32"/>
       <use xlink:href="#DejaVuSans-30" x="63.623047"/>
      </g>
     </g>
    </g>
    <g id="text_31">
     <!-- Temperature residual ($^o$C) -->
     <g transform="translate(312.371043 201.24) rotate(-90) scale(0.1 -0.1)">
      <use xlink:href="#DejaVuSans-54" transform="translate(0 0.51875)"/>
      <use xlink:href="#DejaVuSans-65" transform="translate(61.083984 0.51875)"/>
      <use xlink:href="#DejaVuSans-6d" transform="translate(122.607422 0.51875)"/>
      <use xlink:href="#DejaVuSans-70" transform="translate(220.019531 0.51875)"/>
      <use xlink:href="#DejaVuSans-65" transform="translate(283.496094 0.51875)"/>
      <use xlink:href="#DejaVuSans-72" transform="translate(345.019531 0.51875)"/>
      <use xlink:href="#DejaVuSans-61" transform="translate(386.132812 0.51875)"/>
      <use xlink:href="#DejaVuSans-74" transform="translate(447.412109 0.51875)"/>
      <use xlink:href="#DejaVuSans-75" transform="translate(486.621094 0.51875)"/>
      <use xlink:href="#DejaVuSans-72" transform="translate(550 0.51875)"/>
      <use xlink:href="#DejaVuSans-65" transform="translate(591.113281 0.51875)"/>
      <use xlink:href="#DejaVuSans-20" transform="translate(652.636719 0.51875)"/>
      <use xlink:href="#DejaVuSans-72" transform="translate(684.423828 0.51875)"/>
      <use xlink:href="#DejaVuSans-65" transform="translate(725.537109 0.51875)"/>
      <use xlink:href="#DejaVuSans-73" transform="translate(787.060547 0.51875)"/>
      <use xlink:href="#DejaVuSans-69" transform="translate(839.160156 0.51875)"/>
      <use xlink:href="#DejaVuSans-64" transform="translate(866.943359 0.51875)"/>
      <use xlink:href="#DejaVuSans-75" transform="translate(930.419922 0.51875)"/>
      <use xlink:href="#DejaVuSans-61" transform="translate(993.798828 0.51875)"/>
      <use xlink:href="#DejaVuSans-6c" transform="translate(1055.078125 0.51875)"/>
      <use xlink:href="#DejaVuSans-20" transform="translate(1082.861328 0.51875)"/>
      <use xlink:href="#DejaVuSans-28" transform="translate(1114.648438 0.51875)"/>
      <use xlink:href="#DejaVuSans-Oblique-6f" transform="translate(1154.619141 38.8) scale(0.7)"/>
      <use xlink:href="#DejaVuSans-43" transform="translate(1200.180664 0.51875)"/>
      <use xlink:href="#DejaVuSans-29" transform="translate(1270.004883 0.51875)"/>
     </g>
    </g>
   </g>
   <g id="line2d_30">
    <defs>
     <path id="mab6d69c398" d="M 0 3 
C 0.795609 3 1.55874 2.683901 2.12132 2.12132 
C 2.683901 1.55874 3 0.795609 3 0 
C 3 -0.795609 2.683901 -1.55874 2.12132 -2.12132 
C 1.55874 -2.683901 0.795609 -3 0 -3 
C -0.795609 -3 -1.55874 -2.683901 -2.12132 -2.12132 
C -2.683901 -1.55874 -3 -0.795609 -3 0 
C -3 0.795609 -2.683901 1.55874 -2.12132 2.12132 
C -1.55874 2.683901 -0.795609 3 0 3 
z
" style="stroke: #000000"/>
    </defs>
    <g clip-path="url(#pbcbd0a2d88)">
     <use xlink:href="#mab6d69c398" x="348.716857" y="35.467273" style="fill: #0000ff; stroke: #000000"/>
     <use xlink:href="#mab6d69c398" x="361.094286" y="62.417708" style="fill: #0000ff; stroke: #000000"/>
     <use xlink:href="#mab6d69c398" x="373.471714" y="89.368143" style="fill: #0000ff; stroke: #000000"/>
     <use xlink:href="#mab6d69c398" x="385.849143" y="116.318578" style="fill: #0000ff; stroke: #000000"/>
     <use xlink:href="#mab6d69c398" x="398.226571" y="143.269013" style="fill: #0000ff; stroke: #000000"/>
     <use xlink:href="#mab6d69c398" x="410.604" y="170.219448" style="fill: #0000ff; stroke: #000000"/>
     <use xlink:href="#mab6d69c398" x="422.981429" y="188.186405" style="fill: #0000ff; stroke: #000000"/>
     <use xlink:href="#mab6d69c398" x="435.358857" y="206.153361" style="fill: #0000ff; stroke: #000000"/>
     <use xlink:href="#mab6d69c398" x="447.736286" y="224.120318" style="fill: #0000ff; stroke: #000000"/>
     <use xlink:href="#mab6d69c398" x="460.113714" y="233.103796" style="fill: #0000ff; stroke: #000000"/>
     <use xlink:href="#mab6d69c398" x="472.491143" y="233.103796" style="fill: #0000ff; stroke: #000000"/>
     <use xlink:href="#mab6d69c398" x="484.868571" y="206.153361" style="fill: #0000ff; stroke: #000000"/>
     <use xlink:href="#mab6d69c398" x="497.246" y="179.202926" style="fill: #0000ff; stroke: #000000"/>
     <use xlink:href="#mab6d69c398" x="509.623429" y="152.252491" style="fill: #0000ff; stroke: #000000"/>
     <use xlink:href="#mab6d69c398" x="522.000857" y="116.318578" style="fill: #0000ff; stroke: #000000"/>
     <use xlink:href="#mab6d69c398" x="534.378286" y="98.351621" style="fill: #0000ff; stroke: #000000"/>
     <use xlink:href="#mab6d69c398" x="546.755714" y="71.401186" style="fill: #0000ff; stroke: #000000"/>
     <use xlink:href="#mab6d69c398" x="559.133143" y="44.450751" style="fill: #0000ff; stroke: #000000"/>
    </g>
   </g>
   <g id="line2d_31">
    <path d="M 410.604 170.08857 
L 412.345548 173.46228 
L 414.522482 177.166934 
L 416.699417 180.454307 
L 419.747126 184.614611 
L 433.244121 202.393168 
L 438.033377 209.404735 
L 446.741116 222.232158 
L 449.788824 226.277189 
L 452.401146 229.35827 
L 454.57808 231.571876 
L 456.319628 233.067396 
L 458.061176 234.285949 
L 459.802724 235.199644 
L 461.108884 235.669337 
L 462.415045 235.943264 
L 463.721206 236.012615 
L 465.027367 235.869702 
L 466.333528 235.508082 
L 467.639688 234.922681 
L 468.945849 234.109911 
L 470.25201 233.067797 
L 471.558171 231.796095 
L 473.299719 229.746426 
L 475.041266 227.301044 
L 476.782814 224.47606 
L 478.959749 220.447379 
L 481.136683 215.92563 
L 483.749005 209.967849 
L 487.667487 200.349778 
L 492.456744 188.637522 
L 494.633678 183.844685 
L 496.375226 180.475539 
L 497.246 178.993521 
L 497.246 178.993521 
" clip-path="url(#pbcbd0a2d88)" style="fill: none; stroke-dasharray: 5.55,2.4; stroke-dashoffset: 0; stroke: #000000; stroke-width: 1.5"/>
   </g>
   <g id="patch_9">
    <path d="M 338.196043 246.04 
L 338.196043 25.44 
" style="fill: none; stroke: #000000; stroke-width: 0.8; stroke-linejoin: miter; stroke-linecap: square"/>
   </g>
   <g id="patch_10">
    <path d="M 569.653957 246.04 
L 569.653957 25.44 
" style="fill: none; stroke: #000000; stroke-width: 0.8; stroke-linejoin: miter; stroke-linecap: square"/>
   </g>
   <g id="patch_11">
    <path d="M 338.196043 246.04 
L 569.653957 246.04 
" style="fill: none; stroke: #000000; stroke-width: 0.8; stroke-linejoin: miter; stroke-linecap: square"/>
   </g>
   <g id="patch_12">
    <path d="M 338.196043 25.44 
L 569.653957 25.44 
" style="fill: none; stroke: #000000; stroke-width: 0.8; stroke-linejoin: miter; stroke-linecap: square"/>
   </g>
   <g id="text_32">
    <!-- Temperature residuals -->
    <g transform="translate(387.117813 19.44) scale(0.12 -0.12)">
     <use xlink:href="#DejaVuSans-54"/>
     <use xlink:href="#DejaVuSans-65" x="44.083984"/>
     <use xlink:href="#DejaVuSans-6d" x="105.607422"/>
     <use xlink:href="#DejaVuSans-70" x="203.019531"/>
     <use xlink:href="#DejaVuSans-65" x="266.496094"/>
     <use xlink:href="#DejaVuSans-72" x="328.019531"/>
     <use xlink:href="#DejaVuSans-61" x="369.132812"/>
     <use xlink:href="#DejaVuSans-74" x="430.412109"/>
     <use xlink:href="#DejaVuSans-75" x="469.621094"/>
     <use xlink:href="#DejaVuSans-72" x="533"/>
     <use xlink:href="#DejaVuSans-65" x="571.863281"/>
     <use xlink:href="#DejaVuSans-20" x="633.386719"/>
     <use xlink:href="#DejaVuSans-72" x="665.173828"/>
     <use xlink:href="#DejaVuSans-65" x="704.037109"/>
     <use xlink:href="#DejaVuSans-73" x="765.560547"/>
     <use xlink:href="#DejaVuSans-69" x="817.660156"/>
     <use xlink:href="#DejaVuSans-64" x="845.443359"/>
     <use xlink:href="#DejaVuSans-75" x="908.919922"/>
     <use xlink:href="#DejaVuSans-61" x="972.298828"/>
     <use xlink:href="#DejaVuSans-6c" x="1033.578125"/>
     <use xlink:href="#DejaVuSans-73" x="1061.361328"/>
    </g>
   </g>
  </g>
  <g id="axes_3">
   <g id="patch_13">
    <path d="M 621.742086 246.04 
L 853.2 246.04 
L 853.2 25.44 
L 621.742086 25.44 
z
" style="fill: #ffffff"/>
   </g>
   <g id="matplotlib.axis_5">
    <g id="xtick_11">
     <g id="line2d_32">
      <g>
       <use xlink:href="#m7c1da0faca" x="625.475278" y="246.04" style="stroke: #000000; stroke-width: 0.8"/>
      </g>
     </g>
     <g id="text_33">
      <!-- 0 -->
      <g transform="translate(622.294028 260.638438) scale(0.1 -0.1)">
       <use xlink:href="#DejaVuSans-30"/>
      </g>
     </g>
    </g>
    <g id="xtick_12">
     <g id="line2d_33">
      <g>
       <use xlink:href="#m7c1da0faca" x="659.413388" y="246.04" style="stroke: #000000; stroke-width: 0.8"/>
      </g>
     </g>
     <g id="text_34">
      <!-- 5 -->
      <g transform="translate(656.232138 260.638438) scale(0.1 -0.1)">
       <use xlink:href="#DejaVuSans-35"/>
      </g>
     </g>
    </g>
    <g id="xtick_13">
     <g id="line2d_34">
      <g>
       <use xlink:href="#m7c1da0faca" x="693.351499" y="246.04" style="stroke: #000000; stroke-width: 0.8"/>
      </g>
     </g>
     <g id="text_35">
      <!-- 10 -->
      <g transform="translate(686.988999 260.638438) scale(0.1 -0.1)">
       <use xlink:href="#DejaVuSans-31"/>
       <use xlink:href="#DejaVuSans-30" x="63.623047"/>
      </g>
     </g>
    </g>
    <g id="xtick_14">
     <g id="line2d_35">
      <g>
       <use xlink:href="#m7c1da0faca" x="727.28961" y="246.04" style="stroke: #000000; stroke-width: 0.8"/>
      </g>
     </g>
     <g id="text_36">
      <!-- 15 -->
      <g transform="translate(720.92711 260.638438) scale(0.1 -0.1)">
       <use xlink:href="#DejaVuSans-31"/>
       <use xlink:href="#DejaVuSans-35" x="63.623047"/>
      </g>
     </g>
    </g>
    <g id="xtick_15">
     <g id="line2d_36">
      <g>
       <use xlink:href="#m7c1da0faca" x="761.22772" y="246.04" style="stroke: #000000; stroke-width: 0.8"/>
      </g>
     </g>
     <g id="text_37">
      <!-- 20 -->
      <g transform="translate(754.86522 260.638438) scale(0.1 -0.1)">
       <use xlink:href="#DejaVuSans-32"/>
       <use xlink:href="#DejaVuSans-30" x="63.623047"/>
      </g>
     </g>
    </g>
    <g id="xtick_16">
     <g id="line2d_37">
      <g>
       <use xlink:href="#m7c1da0faca" x="795.165831" y="246.04" style="stroke: #000000; stroke-width: 0.8"/>
      </g>
     </g>
     <g id="text_38">
      <!-- 25 -->
      <g transform="translate(788.803331 260.638438) scale(0.1 -0.1)">
       <use xlink:href="#DejaVuSans-32"/>
       <use xlink:href="#DejaVuSans-35" x="63.623047"/>
      </g>
     </g>
    </g>
    <g id="xtick_17">
     <g id="line2d_38">
      <g>
       <use xlink:href="#m7c1da0faca" x="829.103941" y="246.04" style="stroke: #000000; stroke-width: 0.8"/>
      </g>
     </g>
     <g id="text_39">
      <!-- 30 -->
      <g transform="translate(822.741441 260.638438) scale(0.1 -0.1)">
       <use xlink:href="#DejaVuSans-33"/>
       <use xlink:href="#DejaVuSans-30" x="63.623047"/>
      </g>
     </g>
    </g>
    <g id="text_40">
     <!-- Number of parallel processes -->
     <g transform="translate(664.303855 274.316562) scale(0.1 -0.1)">
      <defs>
       <path id="DejaVuSans-4e" d="M 628 4666 
L 1478 4666 
L 3547 763 
L 3547 4666 
L 4159 4666 
L 4159 0 
L 3309 0 
L 1241 3903 
L 1241 0 
L 628 0 
L 628 4666 
z
" transform="scale(0.015625)"/>
       <path id="DejaVuSans-66" d="M 2375 4863 
L 2375 4384 
L 1825 4384 
Q 1516 4384 1395 4259 
Q 1275 4134 1275 3809 
L 1275 3500 
L 2222 3500 
L 2222 3053 
L 1275 3053 
L 1275 0 
L 697 0 
L 697 3053 
L 147 3053 
L 147 3500 
L 697 3500 
L 697 3744 
Q 697 4328 969 4595 
Q 1241 4863 1831 4863 
L 2375 4863 
z
" transform="scale(0.015625)"/>
      </defs>
      <use xlink:href="#DejaVuSans-4e"/>
      <use xlink:href="#DejaVuSans-75" x="74.804688"/>
      <use xlink:href="#DejaVuSans-6d" x="138.183594"/>
      <use xlink:href="#DejaVuSans-62" x="235.595703"/>
      <use xlink:href="#DejaVuSans-65" x="299.072266"/>
      <use xlink:href="#DejaVuSans-72" x="360.595703"/>
      <use xlink:href="#DejaVuSans-20" x="401.708984"/>
      <use xlink:href="#DejaVuSans-6f" x="433.496094"/>
      <use xlink:href="#DejaVuSans-66" x="494.677734"/>
      <use xlink:href="#DejaVuSans-20" x="529.882812"/>
      <use xlink:href="#DejaVuSans-70" x="561.669922"/>
      <use xlink:href="#DejaVuSans-61" x="625.146484"/>
      <use xlink:href="#DejaVuSans-72" x="686.425781"/>
      <use xlink:href="#DejaVuSans-61" x="727.539062"/>
      <use xlink:href="#DejaVuSans-6c" x="788.818359"/>
      <use xlink:href="#DejaVuSans-6c" x="816.601562"/>
      <use xlink:href="#DejaVuSans-65" x="844.384766"/>
      <use xlink:href="#DejaVuSans-6c" x="905.908203"/>
      <use xlink:href="#DejaVuSans-20" x="933.691406"/>
      <use xlink:href="#DejaVuSans-70" x="965.478516"/>
      <use xlink:href="#DejaVuSans-72" x="1028.955078"/>
      <use xlink:href="#DejaVuSans-6f" x="1067.818359"/>
      <use xlink:href="#DejaVuSans-63" x="1129"/>
      <use xlink:href="#DejaVuSans-65" x="1183.980469"/>
      <use xlink:href="#DejaVuSans-73" x="1245.503906"/>
      <use xlink:href="#DejaVuSans-73" x="1297.603516"/>
      <use xlink:href="#DejaVuSans-65" x="1349.703125"/>
      <use xlink:href="#DejaVuSans-73" x="1411.226562"/>
     </g>
    </g>
   </g>
   <g id="matplotlib.axis_6">
    <g id="ytick_14">
     <g id="line2d_39">
      <g>
       <use xlink:href="#m655fcae3f0" x="621.742086" y="221.726297" style="stroke: #000000; stroke-width: 0.8"/>
      </g>
     </g>
     <g id="text_41">
      <!-- 20 -->
      <g transform="translate(602.017086 225.525516) scale(0.1 -0.1)">
       <use xlink:href="#DejaVuSans-32"/>
       <use xlink:href="#DejaVuSans-30" x="63.623047"/>
      </g>
     </g>
    </g>
    <g id="ytick_15">
     <g id="line2d_40">
      <g>
       <use xlink:href="#m655fcae3f0" x="621.742086" y="173.050216" style="stroke: #000000; stroke-width: 0.8"/>
      </g>
     </g>
     <g id="text_42">
      <!-- 40 -->
      <g transform="translate(602.017086 176.849435) scale(0.1 -0.1)">
       <use xlink:href="#DejaVuSans-34"/>
       <use xlink:href="#DejaVuSans-30" x="63.623047"/>
      </g>
     </g>
    </g>
    <g id="ytick_16">
     <g id="line2d_41">
      <g>
       <use xlink:href="#m655fcae3f0" x="621.742086" y="124.374135" style="stroke: #000000; stroke-width: 0.8"/>
      </g>
     </g>
     <g id="text_43">
      <!-- 60 -->
      <g transform="translate(602.017086 128.173354) scale(0.1 -0.1)">
       <defs>
        <path id="DejaVuSans-36" d="M 2113 2584 
Q 1688 2584 1439 2293 
Q 1191 2003 1191 1497 
Q 1191 994 1439 701 
Q 1688 409 2113 409 
Q 2538 409 2786 701 
Q 3034 994 3034 1497 
Q 3034 2003 2786 2293 
Q 2538 2584 2113 2584 
z
M 3366 4563 
L 3366 3988 
Q 3128 4100 2886 4159 
Q 2644 4219 2406 4219 
Q 1781 4219 1451 3797 
Q 1122 3375 1075 2522 
Q 1259 2794 1537 2939 
Q 1816 3084 2150 3084 
Q 2853 3084 3261 2657 
Q 3669 2231 3669 1497 
Q 3669 778 3244 343 
Q 2819 -91 2113 -91 
Q 1303 -91 875 529 
Q 447 1150 447 2328 
Q 447 3434 972 4092 
Q 1497 4750 2381 4750 
Q 2619 4750 2861 4703 
Q 3103 4656 3366 4563 
z
" transform="scale(0.015625)"/>
       </defs>
       <use xlink:href="#DejaVuSans-36"/>
       <use xlink:href="#DejaVuSans-30" x="63.623047"/>
      </g>
     </g>
    </g>
    <g id="ytick_17">
     <g id="line2d_42">
      <g>
       <use xlink:href="#m655fcae3f0" x="621.742086" y="75.698054" style="stroke: #000000; stroke-width: 0.8"/>
      </g>
     </g>
     <g id="text_44">
      <!-- 80 -->
      <g transform="translate(602.017086 79.497273) scale(0.1 -0.1)">
       <use xlink:href="#DejaVuSans-38"/>
       <use xlink:href="#DejaVuSans-30" x="63.623047"/>
      </g>
     </g>
    </g>
    <g id="ytick_18">
     <g id="line2d_43">
      <g>
       <use xlink:href="#m655fcae3f0" x="621.742086" y="27.021973" style="stroke: #000000; stroke-width: 0.8"/>
      </g>
     </g>
     <g id="text_45">
      <!-- 100 -->
      <g transform="translate(595.654586 30.821191) scale(0.1 -0.1)">
       <use xlink:href="#DejaVuSans-31"/>
       <use xlink:href="#DejaVuSans-30" x="63.623047"/>
       <use xlink:href="#DejaVuSans-30" x="127.246094"/>
      </g>
     </g>
    </g>
    <g id="text_46">
     <!-- Run time (seconds) -->
     <g transform="translate(589.574898 184.14) rotate(-90) scale(0.1 -0.1)">
      <defs>
       <path id="DejaVuSans-52" d="M 2841 2188 
Q 3044 2119 3236 1894 
Q 3428 1669 3622 1275 
L 4263 0 
L 3584 0 
L 2988 1197 
Q 2756 1666 2539 1819 
Q 2322 1972 1947 1972 
L 1259 1972 
L 1259 0 
L 628 0 
L 628 4666 
L 2053 4666 
Q 2853 4666 3247 4331 
Q 3641 3997 3641 3322 
Q 3641 2881 3436 2590 
Q 3231 2300 2841 2188 
z
M 1259 4147 
L 1259 2491 
L 2053 2491 
Q 2509 2491 2742 2702 
Q 2975 2913 2975 3322 
Q 2975 3731 2742 3939 
Q 2509 4147 2053 4147 
L 1259 4147 
z
" transform="scale(0.015625)"/>
      </defs>
      <use xlink:href="#DejaVuSans-52"/>
      <use xlink:href="#DejaVuSans-75" x="64.982422"/>
      <use xlink:href="#DejaVuSans-6e" x="128.361328"/>
      <use xlink:href="#DejaVuSans-20" x="191.740234"/>
      <use xlink:href="#DejaVuSans-74" x="223.527344"/>
      <use xlink:href="#DejaVuSans-69" x="262.736328"/>
      <use xlink:href="#DejaVuSans-6d" x="290.519531"/>
      <use xlink:href="#DejaVuSans-65" x="387.931641"/>
      <use xlink:href="#DejaVuSans-20" x="449.455078"/>
      <use xlink:href="#DejaVuSans-28" x="481.242188"/>
      <use xlink:href="#DejaVuSans-73" x="520.255859"/>
      <use xlink:href="#DejaVuSans-65" x="572.355469"/>
      <use xlink:href="#DejaVuSans-63" x="633.878906"/>
      <use xlink:href="#DejaVuSans-6f" x="688.859375"/>
      <use xlink:href="#DejaVuSans-6e" x="750.041016"/>
      <use xlink:href="#DejaVuSans-64" x="813.419922"/>
      <use xlink:href="#DejaVuSans-73" x="876.896484"/>
      <use xlink:href="#DejaVuSans-29" x="928.996094"/>
     </g>
    </g>
   </g>
   <g id="line2d_44">
    <defs>
     <path id="mb6258ec9ce" d="M 0 3 
C 0.795609 3 1.55874 2.683901 2.12132 2.12132 
C 2.683901 1.55874 3 0.795609 3 0 
C 3 -0.795609 2.683901 -1.55874 2.12132 -2.12132 
C 1.55874 -2.683901 0.795609 -3 0 -3 
C -0.795609 -3 -1.55874 -2.683901 -2.12132 -2.12132 
C -2.683901 -1.55874 -3 -0.795609 -3 0 
C -3 0.795609 -2.683901 1.55874 -2.12132 2.12132 
C -1.55874 2.683901 -0.795609 3 0 3 
z
" style="stroke: #000000"/>
    </defs>
    <g clip-path="url(#pd35dd5b342)">
     <use xlink:href="#mb6258ec9ce" x="632.2629" y="147.624567" style="fill: #ff0000; stroke: #000000"/>
     <use xlink:href="#mb6258ec9ce" x="639.050522" y="196.763994" style="fill: #ff0000; stroke: #000000"/>
     <use xlink:href="#mb6258ec9ce" x="652.625766" y="224.701246" style="fill: #ff0000; stroke: #000000"/>
     <use xlink:href="#mb6258ec9ce" x="679.776255" y="231.919777" style="fill: #ff0000; stroke: #000000"/>
    </g>
   </g>
   <g id="line2d_45">
    <g clip-path="url(#pd35dd5b342)">
     <use xlink:href="#mab6d69c398" x="632.2629" y="35.467273" style="fill: #0000ff; stroke: #000000"/>
     <use xlink:href="#mab6d69c398" x="639.050522" y="147.373583" style="fill: #0000ff; stroke: #000000"/>
     <use xlink:href="#mab6d69c398" x="652.625766" y="202.572259" style="fill: #0000ff; stroke: #000000"/>
     <use xlink:href="#mab6d69c398" x="679.776255" y="223.454298" style="fill: #0000ff; stroke: #000000"/>
     <use xlink:href="#mab6d69c398" x="734.077232" y="231.145119" style="fill: #0000ff; stroke: #000000"/>
     <use xlink:href="#mab6d69c398" x="842.679186" y="236.012727" style="fill: #0000ff; stroke: #000000"/>
    </g>
   </g>
   <g id="patch_14">
    <path d="M 621.742086 246.04 
L 621.742086 25.44 
" style="fill: none; stroke: #000000; stroke-width: 0.8; stroke-linejoin: miter; stroke-linecap: square"/>
   </g>
   <g id="patch_15">
    <path d="M 853.2 246.04 
L 853.2 25.44 
" style="fill: none; stroke: #000000; stroke-width: 0.8; stroke-linejoin: miter; stroke-linecap: square"/>
   </g>
   <g id="patch_16">
    <path d="M 621.742086 246.04 
L 853.2 246.04 
" style="fill: none; stroke: #000000; stroke-width: 0.8; stroke-linejoin: miter; stroke-linecap: square"/>
   </g>
   <g id="patch_17">
    <path d="M 621.742086 25.44 
L 853.2 25.44 
" style="fill: none; stroke: #000000; stroke-width: 0.8; stroke-linejoin: miter; stroke-linecap: square"/>
   </g>
   <g id="text_47">
    <!-- Calculation time -->
    <g transform="translate(688.537293 19.44) scale(0.12 -0.12)">
     <use xlink:href="#DejaVuSans-43"/>
     <use xlink:href="#DejaVuSans-61" x="69.824219"/>
     <use xlink:href="#DejaVuSans-6c" x="131.103516"/>
     <use xlink:href="#DejaVuSans-63" x="158.886719"/>
     <use xlink:href="#DejaVuSans-75" x="213.867188"/>
     <use xlink:href="#DejaVuSans-6c" x="277.246094"/>
     <use xlink:href="#DejaVuSans-61" x="305.029297"/>
     <use xlink:href="#DejaVuSans-74" x="366.308594"/>
     <use xlink:href="#DejaVuSans-69" x="405.517578"/>
     <use xlink:href="#DejaVuSans-6f" x="433.300781"/>
     <use xlink:href="#DejaVuSans-6e" x="494.482422"/>
     <use xlink:href="#DejaVuSans-20" x="557.861328"/>
     <use xlink:href="#DejaVuSans-74" x="589.648438"/>
     <use xlink:href="#DejaVuSans-69" x="628.857422"/>
     <use xlink:href="#DejaVuSans-6d" x="656.640625"/>
     <use xlink:href="#DejaVuSans-65" x="754.052734"/>
    </g>
   </g>
   <g id="legend_2">
    <g id="patch_18">
     <path d="M 726.985938 85.191875 
L 846.2 85.191875 
Q 848.2 85.191875 848.2 83.191875 
L 848.2 32.44 
Q 848.2 30.44 846.2 30.44 
L 726.985938 30.44 
Q 724.985938 30.44 724.985938 32.44 
L 724.985938 83.191875 
Q 724.985938 85.191875 726.985938 85.191875 
z
" style="fill: #ffffff; opacity: 0.8; stroke: #cccccc; stroke-linejoin: miter"/>
    </g>
    <g id="line2d_46">
     <g>
      <use xlink:href="#mb6258ec9ce" x="738.985938" y="45.177188" style="fill: #ff0000; stroke: #000000"/>
     </g>
    </g>
    <g id="text_48">
     <!-- Apple M2 chip  -->
     <g transform="translate(756.985938 42.038438) scale(0.1 -0.1)">
      <defs>
       <path id="DejaVuSans-4d" d="M 628 4666 
L 1569 4666 
L 2759 1491 
L 3956 4666 
L 4897 4666 
L 4897 0 
L 4281 0 
L 4281 4097 
L 3078 897 
L 2444 897 
L 1241 4097 
L 1241 0 
L 628 0 
L 628 4666 
z
" transform="scale(0.015625)"/>
       <path id="DejaVuSans-68" d="M 3513 2113 
L 3513 0 
L 2938 0 
L 2938 2094 
Q 2938 2591 2744 2837 
Q 2550 3084 2163 3084 
Q 1697 3084 1428 2787 
Q 1159 2491 1159 1978 
L 1159 0 
L 581 0 
L 581 4863 
L 1159 4863 
L 1159 2956 
Q 1366 3272 1645 3428 
Q 1925 3584 2291 3584 
Q 2894 3584 3203 3211 
Q 3513 2838 3513 2113 
z
" transform="scale(0.015625)"/>
      </defs>
      <use xlink:href="#DejaVuSans-41"/>
      <use xlink:href="#DejaVuSans-70" x="68.408203"/>
      <use xlink:href="#DejaVuSans-70" x="131.884766"/>
      <use xlink:href="#DejaVuSans-6c" x="195.361328"/>
      <use xlink:href="#DejaVuSans-65" x="223.144531"/>
      <use xlink:href="#DejaVuSans-20" x="284.667969"/>
      <use xlink:href="#DejaVuSans-4d" x="316.455078"/>
      <use xlink:href="#DejaVuSans-32" x="402.734375"/>
      <use xlink:href="#DejaVuSans-20" x="466.357422"/>
      <use xlink:href="#DejaVuSans-63" x="498.144531"/>
      <use xlink:href="#DejaVuSans-68" x="553.125"/>
      <use xlink:href="#DejaVuSans-69" x="616.503906"/>
      <use xlink:href="#DejaVuSans-70" x="644.287109"/>
      <use xlink:href="#DejaVuSans-20" x="707.763672"/>
     </g>
     <!--  (8 processors) -->
     <g transform="translate(756.985938 53.23625) scale(0.1 -0.1)">
      <use xlink:href="#DejaVuSans-20"/>
      <use xlink:href="#DejaVuSans-28" x="31.787109"/>
      <use xlink:href="#DejaVuSans-38" x="70.800781"/>
      <use xlink:href="#DejaVuSans-20" x="134.423828"/>
      <use xlink:href="#DejaVuSans-70" x="166.210938"/>
      <use xlink:href="#DejaVuSans-72" x="229.6875"/>
      <use xlink:href="#DejaVuSans-6f" x="268.550781"/>
      <use xlink:href="#DejaVuSans-63" x="329.732422"/>
      <use xlink:href="#DejaVuSans-65" x="384.712891"/>
      <use xlink:href="#DejaVuSans-73" x="446.236328"/>
      <use xlink:href="#DejaVuSans-73" x="498.335938"/>
      <use xlink:href="#DejaVuSans-6f" x="550.435547"/>
      <use xlink:href="#DejaVuSans-72" x="611.617188"/>
      <use xlink:href="#DejaVuSans-73" x="652.730469"/>
      <use xlink:href="#DejaVuSans-29" x="704.830078"/>
     </g>
    </g>
    <g id="line2d_47">
     <g>
      <use xlink:href="#mab6d69c398" x="738.985938" y="71.053125" style="fill: #0000ff; stroke: #000000"/>
     </g>
    </g>
    <g id="text_49">
     <!-- Intel i9 12th Gen  -->
     <g transform="translate(756.985938 67.914375) scale(0.1 -0.1)">
      <defs>
       <path id="DejaVuSans-49" d="M 628 4666 
L 1259 4666 
L 1259 0 
L 628 0 
L 628 4666 
z
" transform="scale(0.015625)"/>
       <path id="DejaVuSans-47" d="M 3809 666 
L 3809 1919 
L 2778 1919 
L 2778 2438 
L 4434 2438 
L 4434 434 
Q 4069 175 3628 42 
Q 3188 -91 2688 -91 
Q 1594 -91 976 548 
Q 359 1188 359 2328 
Q 359 3472 976 4111 
Q 1594 4750 2688 4750 
Q 3144 4750 3555 4637 
Q 3966 4525 4313 4306 
L 4313 3634 
Q 3963 3931 3569 4081 
Q 3175 4231 2741 4231 
Q 1884 4231 1454 3753 
Q 1025 3275 1025 2328 
Q 1025 1384 1454 906 
Q 1884 428 2741 428 
Q 3075 428 3337 486 
Q 3600 544 3809 666 
z
" transform="scale(0.015625)"/>
      </defs>
      <use xlink:href="#DejaVuSans-49"/>
      <use xlink:href="#DejaVuSans-6e" x="29.492188"/>
      <use xlink:href="#DejaVuSans-74" x="92.871094"/>
      <use xlink:href="#DejaVuSans-65" x="132.080078"/>
      <use xlink:href="#DejaVuSans-6c" x="193.603516"/>
      <use xlink:href="#DejaVuSans-20" x="221.386719"/>
      <use xlink:href="#DejaVuSans-69" x="253.173828"/>
      <use xlink:href="#DejaVuSans-39" x="280.957031"/>
      <use xlink:href="#DejaVuSans-20" x="344.580078"/>
      <use xlink:href="#DejaVuSans-31" x="376.367188"/>
      <use xlink:href="#DejaVuSans-32" x="439.990234"/>
      <use xlink:href="#DejaVuSans-74" x="503.613281"/>
      <use xlink:href="#DejaVuSans-68" x="542.822266"/>
      <use xlink:href="#DejaVuSans-20" x="606.201172"/>
      <use xlink:href="#DejaVuSans-47" x="637.988281"/>
      <use xlink:href="#DejaVuSans-65" x="715.478516"/>
      <use xlink:href="#DejaVuSans-6e" x="777.001953"/>
      <use xlink:href="#DejaVuSans-20" x="840.380859"/>
     </g>
     <!--  (32 processors) -->
     <g transform="translate(756.985938 79.112188) scale(0.1 -0.1)">
      <use xlink:href="#DejaVuSans-20"/>
      <use xlink:href="#DejaVuSans-28" x="31.787109"/>
      <use xlink:href="#DejaVuSans-33" x="70.800781"/>
      <use xlink:href="#DejaVuSans-32" x="134.423828"/>
      <use xlink:href="#DejaVuSans-20" x="198.046875"/>
      <use xlink:href="#DejaVuSans-70" x="229.833984"/>
      <use xlink:href="#DejaVuSans-72" x="293.310547"/>
      <use xlink:href="#DejaVuSans-6f" x="332.173828"/>
      <use xlink:href="#DejaVuSans-63" x="393.355469"/>
      <use xlink:href="#DejaVuSans-65" x="448.335938"/>
      <use xlink:href="#DejaVuSans-73" x="509.859375"/>
      <use xlink:href="#DejaVuSans-73" x="561.958984"/>
      <use xlink:href="#DejaVuSans-6f" x="614.058594"/>
      <use xlink:href="#DejaVuSans-72" x="675.240234"/>
      <use xlink:href="#DejaVuSans-73" x="716.353516"/>
      <use xlink:href="#DejaVuSans-29" x="768.453125"/>
     </g>
    </g>
   </g>
  </g>
 </g>
 <defs>
  <clipPath id="p5182b15acc">
   <rect x="54.65" y="25.44" width="231.457914" height="220.6"/>
  </clipPath>
  <clipPath id="pbcbd0a2d88">
   <rect x="338.196043" y="25.44" width="231.457914" height="220.6"/>
  </clipPath>
  <clipPath id="pd35dd5b342">
   <rect x="621.742086" y="25.44" width="231.457914" height="220.6"/>
  </clipPath>
 </defs>
</svg>
