<?xml version="1.0" encoding="utf-8" standalone="no"?>
<!DOCTYPE svg PUBLIC "-//W3C//DTD SVG 1.1//EN"
  "http://www.w3.org/Graphics/SVG/1.1/DTD/svg11.dtd">
<svg xmlns:xlink="http://www.w3.org/1999/xlink" width="288pt" height="252pt" viewBox="0 0 288 252" xmlns="http://www.w3.org/2000/svg" version="1.1">
 <metadata>
  <rdf:RDF xmlns:dc="http://purl.org/dc/elements/1.1/" xmlns:cc="http://creativecommons.org/ns#" xmlns:rdf="http://www.w3.org/1999/02/22-rdf-syntax-ns#">
   <cc:Work>
    <dc:type rdf:resource="http://purl.org/dc/dcmitype/StillImage"/>
    <dc:date>2023-12-07T09:46:53.709572</dc:date>
    <dc:format>image/svg+xml</dc:format>
    <dc:creator>
     <cc:Agent>
      <dc:title>Matplotlib v3.7.1, https://matplotlib.org/</dc:title>
     </cc:Agent>
    </dc:creator>
   </cc:Work>
  </rdf:RDF>
 </metadata>
 <defs>
  <style type="text/css">*{stroke-linejoin: round; stroke-linecap: butt}</style>
 </defs>
 <g id="figure_1">
  <g id="patch_1">
   <path d="M 0 252 
L 288 252 
L 288 0 
L 0 0 
z
" style="fill: #ffffff"/>
  </g>
  <g id="axes_1">
   <g id="patch_2">
    <path d="M 36 224.28 
L 259.2 224.28 
L 259.2 30.24 
L 36 30.24 
z
" style="fill: #ffffff"/>
   </g>
   <g id="patch_3">
    <path d="M 46.628571 103.005 
L 121.028571 103.005 
L 46.628571 175.77 
L 46.628571 103.005 
z
" clip-path="url(#pe1c3569bfa)" style="fill: none; opacity: 0.5; stroke: #000000; stroke-width: 0.5; stroke-linejoin: miter"/>
   </g>
   <g id="patch_4">
    <path d="M 46.628571 175.77 
L 121.028571 103.005 
L 121.028571 224.28 
L 46.628571 224.28 
L 46.628571 175.77 
z
" clip-path="url(#pe1c3569bfa)" style="fill: none; opacity: 0.5; stroke: #000000; stroke-width: 0.5; stroke-linejoin: miter"/>
   </g>
   <g id="patch_5">
    <path d="M 44.64425 -1 
L 4.114286 54.495 
L 4.114286 151.515 
L -1 151.515 
" clip-path="url(#pe1c3569bfa)" style="fill: none; opacity: 0.5; stroke: #000000; stroke-width: 0.5; stroke-linejoin: miter"/>
   </g>
   <g id="patch_6">
    <path d="M 121.028571 224.28 
L 121.028571 103.005 
L 174.171429 81.1755 
L 174.171429 224.28 
L 121.028571 224.28 
z
" clip-path="url(#pe1c3569bfa)" style="fill: none; opacity: 0.5; stroke: #000000; stroke-width: 0.5; stroke-linejoin: miter"/>
   </g>
   <g id="patch_7">
    <path d="M 174.171429 224.28 
L 174.171429 81.1755 
L 237.942857 54.495 
L 237.942857 224.28 
L 174.171429 224.28 
z
" clip-path="url(#pe1c3569bfa)" style="fill: none; opacity: 0.5; stroke: #000000; stroke-width: 0.5; stroke-linejoin: miter"/>
   </g>
   <g id="patch_8">
    <path d="M 237.942857 224.28 
L 237.942857 54.495 
L 289 35.075786 
M 289 224.28 
L 237.942857 224.28 
" clip-path="url(#pe1c3569bfa)" style="fill: none; opacity: 0.5; stroke: #000000; stroke-width: 0.5; stroke-linejoin: miter"/>
   </g>
   <g id="patch_9">
    <path d="M 4.114286 151.515 
L 46.628571 151.515 
L 46.628571 175.77 
L 46.628571 224.28 
L 4.114286 224.28 
L 4.114286 151.515 
z
" clip-path="url(#pe1c3569bfa)" style="fill: none; opacity: 0.5; stroke: #000000; stroke-width: 0.5; stroke-linejoin: miter"/>
   </g>
   <g id="patch_10">
    <path clip-path="url(#pe1c3569bfa)" style="fill: none; opacity: 0.5; stroke: #000000; stroke-width: 0.5; stroke-linejoin: miter"/>
   </g>
   <g id="patch_11">
    <path clip-path="url(#pe1c3569bfa)" style="fill: none; opacity: 0.5; stroke: #000000; stroke-width: 0.5; stroke-linejoin: miter"/>
   </g>
   <g id="patch_12">
    <path d="M 46.628571 103.005 
L 93.394286 47.2185 
L 121.028571 103.005 
L 46.628571 103.005 
z
" clip-path="url(#pe1c3569bfa)" style="fill: none; opacity: 0.5; stroke: #000000; stroke-width: 0.5; stroke-linejoin: miter"/>
   </g>
   <g id="patch_13">
    <path d="M 93.394286 47.2185 
L 131.427219 -1 
M 131.80742 -1 
L 174.171429 81.1755 
L 121.028571 103.005 
L 93.394286 47.2185 
" clip-path="url(#pe1c3569bfa)" style="fill: none; opacity: 0.5; stroke: #000000; stroke-width: 0.5; stroke-linejoin: miter"/>
   </g>
   <g id="patch_14">
    <path d="M 208.665811 -1 
L 216.685714 15.687 
L 237.942857 54.495 
L 174.171429 81.1755 
L 131.80742 -1 
" clip-path="url(#pe1c3569bfa)" style="fill: none; opacity: 0.5; stroke: #000000; stroke-width: 0.5; stroke-linejoin: miter"/>
   </g>
   <g id="patch_15">
    <path d="M 232.802542 -1 
L 216.685714 15.687 
L 208.665811 -1 
" clip-path="url(#pe1c3569bfa)" style="fill: none; opacity: 0.5; stroke: #000000; stroke-width: 0.5; stroke-linejoin: miter"/>
   </g>
   <g id="patch_16">
    <path d="M 216.685714 15.687 
L 232.802542 -1 
M 289 35.075786 
L 237.942857 54.495 
L 216.685714 15.687 
" clip-path="url(#pe1c3569bfa)" style="fill: none; opacity: 0.5; stroke: #000000; stroke-width: 0.5; stroke-linejoin: miter"/>
   </g>
   <g id="patch_17">
    <path d="M 4.114286 151.515 
L 4.114286 54.495 
L 44.64425 -1 
M 49.123147 -1 
L 93.394286 47.2185 
L 46.628571 103.005 
L 46.628571 151.515 
L 4.114286 151.515 
" clip-path="url(#pe1c3569bfa)" style="fill: none; opacity: 0.5; stroke: #000000; stroke-width: 0.5; stroke-linejoin: miter"/>
   </g>
   <g id="patch_18">
    <path d="M 131.427219 -1 
L 93.394286 47.2185 
L 49.123147 -1 
" clip-path="url(#pe1c3569bfa)" style="fill: none; opacity: 0.5; stroke: #000000; stroke-width: 0.5; stroke-linejoin: miter"/>
   </g>
   <g id="patch_19">
    <path clip-path="url(#pe1c3569bfa)" style="fill: none; opacity: 0.5; stroke: #000000; stroke-width: 0.5; stroke-linejoin: miter"/>
   </g>
   <g id="matplotlib.axis_1">
    <g id="xtick_1">
     <g id="line2d_1">
      <defs>
       <path id="mbab0649bc2" d="M 0 0 
L 0 3.5 
" style="stroke: #000000; stroke-width: 0.8"/>
      </defs>
      <g>
       <use xlink:href="#mbab0649bc2" x="46.628571" y="224.28" style="stroke: #000000; stroke-width: 0.8"/>
      </g>
     </g>
     <g id="text_1">
      <!-- 45 -->
      <g transform="translate(40.266071 238.878438) scale(0.1 -0.1)">
       <defs>
        <path id="DejaVuSans-34" d="M 2419 4116 
L 825 1625 
L 2419 1625 
L 2419 4116 
z
M 2253 4666 
L 3047 4666 
L 3047 1625 
L 3713 1625 
L 3713 1100 
L 3047 1100 
L 3047 0 
L 2419 0 
L 2419 1100 
L 313 1100 
L 313 1709 
L 2253 4666 
z
" transform="scale(0.015625)"/>
        <path id="DejaVuSans-35" d="M 691 4666 
L 3169 4666 
L 3169 4134 
L 1269 4134 
L 1269 2991 
Q 1406 3038 1543 3061 
Q 1681 3084 1819 3084 
Q 2600 3084 3056 2656 
Q 3513 2228 3513 1497 
Q 3513 744 3044 326 
Q 2575 -91 1722 -91 
Q 1428 -91 1123 -41 
Q 819 9 494 109 
L 494 744 
Q 775 591 1075 516 
Q 1375 441 1709 441 
Q 2250 441 2565 725 
Q 2881 1009 2881 1497 
Q 2881 1984 2565 2268 
Q 2250 2553 1709 2553 
Q 1456 2553 1204 2497 
Q 953 2441 691 2322 
L 691 4666 
z
" transform="scale(0.015625)"/>
       </defs>
       <use xlink:href="#DejaVuSans-34"/>
       <use xlink:href="#DejaVuSans-35" x="63.623047"/>
      </g>
     </g>
    </g>
    <g id="xtick_2">
     <g id="line2d_2">
      <g>
       <use xlink:href="#mbab0649bc2" x="99.771429" y="224.28" style="stroke: #000000; stroke-width: 0.8"/>
      </g>
     </g>
     <g id="text_2">
      <!-- 50 -->
      <g transform="translate(93.408929 238.878438) scale(0.1 -0.1)">
       <defs>
        <path id="DejaVuSans-30" d="M 2034 4250 
Q 1547 4250 1301 3770 
Q 1056 3291 1056 2328 
Q 1056 1369 1301 889 
Q 1547 409 2034 409 
Q 2525 409 2770 889 
Q 3016 1369 3016 2328 
Q 3016 3291 2770 3770 
Q 2525 4250 2034 4250 
z
M 2034 4750 
Q 2819 4750 3233 4129 
Q 3647 3509 3647 2328 
Q 3647 1150 3233 529 
Q 2819 -91 2034 -91 
Q 1250 -91 836 529 
Q 422 1150 422 2328 
Q 422 3509 836 4129 
Q 1250 4750 2034 4750 
z
" transform="scale(0.015625)"/>
       </defs>
       <use xlink:href="#DejaVuSans-35"/>
       <use xlink:href="#DejaVuSans-30" x="63.623047"/>
      </g>
     </g>
    </g>
    <g id="xtick_3">
     <g id="line2d_3">
      <g>
       <use xlink:href="#mbab0649bc2" x="152.914286" y="224.28" style="stroke: #000000; stroke-width: 0.8"/>
      </g>
     </g>
     <g id="text_3">
      <!-- 55 -->
      <g transform="translate(146.551786 238.878438) scale(0.1 -0.1)">
       <use xlink:href="#DejaVuSans-35"/>
       <use xlink:href="#DejaVuSans-35" x="63.623047"/>
      </g>
     </g>
    </g>
    <g id="xtick_4">
     <g id="line2d_4">
      <g>
       <use xlink:href="#mbab0649bc2" x="206.057143" y="224.28" style="stroke: #000000; stroke-width: 0.8"/>
      </g>
     </g>
     <g id="text_4">
      <!-- 60 -->
      <g transform="translate(199.694643 238.878438) scale(0.1 -0.1)">
       <defs>
        <path id="DejaVuSans-36" d="M 2113 2584 
Q 1688 2584 1439 2293 
Q 1191 2003 1191 1497 
Q 1191 994 1439 701 
Q 1688 409 2113 409 
Q 2538 409 2786 701 
Q 3034 994 3034 1497 
Q 3034 2003 2786 2293 
Q 2538 2584 2113 2584 
z
M 3366 4563 
L 3366 3988 
Q 3128 4100 2886 4159 
Q 2644 4219 2406 4219 
Q 1781 4219 1451 3797 
Q 1122 3375 1075 2522 
Q 1259 2794 1537 2939 
Q 1816 3084 2150 3084 
Q 2853 3084 3261 2657 
Q 3669 2231 3669 1497 
Q 3669 778 3244 343 
Q 2819 -91 2113 -91 
Q 1303 -91 875 529 
Q 447 1150 447 2328 
Q 447 3434 972 4092 
Q 1497 4750 2381 4750 
Q 2619 4750 2861 4703 
Q 3103 4656 3366 4563 
z
" transform="scale(0.015625)"/>
       </defs>
       <use xlink:href="#DejaVuSans-36"/>
       <use xlink:href="#DejaVuSans-30" x="63.623047"/>
      </g>
     </g>
    </g>
    <g id="xtick_5">
     <g id="line2d_5">
      <g>
       <use xlink:href="#mbab0649bc2" x="259.2" y="224.28" style="stroke: #000000; stroke-width: 0.8"/>
      </g>
     </g>
     <g id="text_5">
      <!-- 65 -->
      <g transform="translate(252.8375 238.878438) scale(0.1 -0.1)">
       <use xlink:href="#DejaVuSans-36"/>
       <use xlink:href="#DejaVuSans-35" x="63.623047"/>
      </g>
     </g>
    </g>
    <g id="text_6">
     <!-- $SiO_2$ -->
     <g transform="translate(134.52 254.07625) scale(0.12 -0.12)">
      <defs>
       <path id="DejaVuSans-Oblique-53" d="M 3859 4513 
L 3738 3897 
Q 3422 4066 3111 4152 
Q 2800 4238 2509 4238 
Q 1944 4238 1609 3991 
Q 1275 3744 1275 3334 
Q 1275 3109 1398 2989 
Q 1522 2869 2034 2731 
L 2413 2638 
Q 3053 2472 3303 2217 
Q 3553 1963 3553 1503 
Q 3553 797 2998 353 
Q 2444 -91 1538 -91 
Q 1166 -91 791 -17 
Q 416 56 38 206 
L 166 856 
Q 513 641 861 531 
Q 1209 422 1556 422 
Q 2147 422 2503 684 
Q 2859 947 2859 1369 
Q 2859 1650 2717 1795 
Q 2575 1941 2106 2059 
L 1728 2156 
Q 1081 2325 845 2545 
Q 609 2766 609 3163 
Q 609 3859 1145 4304 
Q 1681 4750 2541 4750 
Q 2875 4750 3203 4690 
Q 3531 4631 3859 4513 
z
" transform="scale(0.015625)"/>
       <path id="DejaVuSans-Oblique-69" d="M 1172 4863 
L 1747 4863 
L 1606 4134 
L 1031 4134 
L 1172 4863 
z
M 909 3500 
L 1484 3500 
L 800 0 
L 225 0 
L 909 3500 
z
" transform="scale(0.015625)"/>
       <path id="DejaVuSans-Oblique-4f" d="M 2919 4238 
Q 2400 4238 2003 3986 
Q 1606 3734 1313 3219 
Q 1125 2891 1026 2522 
Q 928 2153 928 1778 
Q 928 1128 1239 775 
Q 1550 422 2119 422 
Q 2631 422 3032 676 
Q 3434 931 3719 1434 
Q 3909 1772 4009 2142 
Q 4109 2513 4109 2881 
Q 4109 3528 3796 3883 
Q 3484 4238 2919 4238 
z
M 2100 -91 
Q 1241 -91 748 418 
Q 256 928 256 1813 
Q 256 2319 448 2847 
Q 641 3375 978 3788 
Q 1375 4272 1862 4511 
Q 2350 4750 2938 4750 
Q 3794 4750 4287 4245 
Q 4781 3741 4781 2869 
Q 4781 2331 4593 1812 
Q 4406 1294 4056 872 
Q 3656 384 3173 146 
Q 2691 -91 2100 -91 
z
" transform="scale(0.015625)"/>
       <path id="DejaVuSans-32" d="M 1228 531 
L 3431 531 
L 3431 0 
L 469 0 
L 469 531 
Q 828 903 1448 1529 
Q 2069 2156 2228 2338 
Q 2531 2678 2651 2914 
Q 2772 3150 2772 3378 
Q 2772 3750 2511 3984 
Q 2250 4219 1831 4219 
Q 1534 4219 1204 4116 
Q 875 4013 500 3803 
L 500 4441 
Q 881 4594 1212 4672 
Q 1544 4750 1819 4750 
Q 2544 4750 2975 4387 
Q 3406 4025 3406 3419 
Q 3406 3131 3298 2873 
Q 3191 2616 2906 2266 
Q 2828 2175 2409 1742 
Q 1991 1309 1228 531 
z
" transform="scale(0.015625)"/>
      </defs>
      <use xlink:href="#DejaVuSans-Oblique-53" transform="translate(0 0.015625)"/>
      <use xlink:href="#DejaVuSans-Oblique-69" transform="translate(63.476562 0.015625)"/>
      <use xlink:href="#DejaVuSans-Oblique-4f" transform="translate(91.259766 0.015625)"/>
      <use xlink:href="#DejaVuSans-32" transform="translate(169.970703 -16.390625) scale(0.7)"/>
     </g>
    </g>
   </g>
   <g id="matplotlib.axis_2">
    <g id="ytick_1">
     <g id="line2d_6">
      <defs>
       <path id="mefc1cc06ee" d="M 0 0 
L -3.5 0 
" style="stroke: #000000; stroke-width: 0.8"/>
      </defs>
      <g>
       <use xlink:href="#mefc1cc06ee" x="36" y="224.28" style="stroke: #000000; stroke-width: 0.8"/>
      </g>
     </g>
     <g id="text_7">
      <!-- 0 -->
      <g transform="translate(22.6375 228.079219) scale(0.1 -0.1)">
       <use xlink:href="#DejaVuSans-30"/>
      </g>
     </g>
    </g>
    <g id="ytick_2">
     <g id="line2d_7">
      <g>
       <use xlink:href="#mefc1cc06ee" x="36" y="200.025" style="stroke: #000000; stroke-width: 0.8"/>
      </g>
     </g>
     <g id="text_8">
      <!-- 1 -->
      <g transform="translate(22.6375 203.824219) scale(0.1 -0.1)">
       <defs>
        <path id="DejaVuSans-31" d="M 794 531 
L 1825 531 
L 1825 4091 
L 703 3866 
L 703 4441 
L 1819 4666 
L 2450 4666 
L 2450 531 
L 3481 531 
L 3481 0 
L 794 0 
L 794 531 
z
" transform="scale(0.015625)"/>
       </defs>
       <use xlink:href="#DejaVuSans-31"/>
      </g>
     </g>
    </g>
    <g id="ytick_3">
     <g id="line2d_8">
      <g>
       <use xlink:href="#mefc1cc06ee" x="36" y="175.77" style="stroke: #000000; stroke-width: 0.8"/>
      </g>
     </g>
     <g id="text_9">
      <!-- 2 -->
      <g transform="translate(22.6375 179.569219) scale(0.1 -0.1)">
       <use xlink:href="#DejaVuSans-32"/>
      </g>
     </g>
    </g>
    <g id="ytick_4">
     <g id="line2d_9">
      <g>
       <use xlink:href="#mefc1cc06ee" x="36" y="151.515" style="stroke: #000000; stroke-width: 0.8"/>
      </g>
     </g>
     <g id="text_10">
      <!-- 3 -->
      <g transform="translate(22.6375 155.314219) scale(0.1 -0.1)">
       <defs>
        <path id="DejaVuSans-33" d="M 2597 2516 
Q 3050 2419 3304 2112 
Q 3559 1806 3559 1356 
Q 3559 666 3084 287 
Q 2609 -91 1734 -91 
Q 1441 -91 1130 -33 
Q 819 25 488 141 
L 488 750 
Q 750 597 1062 519 
Q 1375 441 1716 441 
Q 2309 441 2620 675 
Q 2931 909 2931 1356 
Q 2931 1769 2642 2001 
Q 2353 2234 1838 2234 
L 1294 2234 
L 1294 2753 
L 1863 2753 
Q 2328 2753 2575 2939 
Q 2822 3125 2822 3475 
Q 2822 3834 2567 4026 
Q 2313 4219 1838 4219 
Q 1578 4219 1281 4162 
Q 984 4106 628 3988 
L 628 4550 
Q 988 4650 1302 4700 
Q 1616 4750 1894 4750 
Q 2613 4750 3031 4423 
Q 3450 4097 3450 3541 
Q 3450 3153 3228 2886 
Q 3006 2619 2597 2516 
z
" transform="scale(0.015625)"/>
       </defs>
       <use xlink:href="#DejaVuSans-33"/>
      </g>
     </g>
    </g>
    <g id="ytick_5">
     <g id="line2d_10">
      <g>
       <use xlink:href="#mefc1cc06ee" x="36" y="127.26" style="stroke: #000000; stroke-width: 0.8"/>
      </g>
     </g>
     <g id="text_11">
      <!-- 4 -->
      <g transform="translate(22.6375 131.059219) scale(0.1 -0.1)">
       <use xlink:href="#DejaVuSans-34"/>
      </g>
     </g>
    </g>
    <g id="ytick_6">
     <g id="line2d_11">
      <g>
       <use xlink:href="#mefc1cc06ee" x="36" y="103.005" style="stroke: #000000; stroke-width: 0.8"/>
      </g>
     </g>
     <g id="text_12">
      <!-- 5 -->
      <g transform="translate(22.6375 106.804219) scale(0.1 -0.1)">
       <use xlink:href="#DejaVuSans-35"/>
      </g>
     </g>
    </g>
    <g id="ytick_7">
     <g id="line2d_12">
      <g>
       <use xlink:href="#mefc1cc06ee" x="36" y="78.75" style="stroke: #000000; stroke-width: 0.8"/>
      </g>
     </g>
     <g id="text_13">
      <!-- 6 -->
      <g transform="translate(22.6375 82.549219) scale(0.1 -0.1)">
       <use xlink:href="#DejaVuSans-36"/>
      </g>
     </g>
    </g>
    <g id="ytick_8">
     <g id="line2d_13">
      <g>
       <use xlink:href="#mefc1cc06ee" x="36" y="54.495" style="stroke: #000000; stroke-width: 0.8"/>
      </g>
     </g>
     <g id="text_14">
      <!-- 7 -->
      <g transform="translate(22.6375 58.294219) scale(0.1 -0.1)">
       <defs>
        <path id="DejaVuSans-37" d="M 525 4666 
L 3525 4666 
L 3525 4397 
L 1831 0 
L 1172 0 
L 2766 4134 
L 525 4134 
L 525 4666 
z
" transform="scale(0.015625)"/>
       </defs>
       <use xlink:href="#DejaVuSans-37"/>
      </g>
     </g>
    </g>
    <g id="ytick_9">
     <g id="line2d_14">
      <g>
       <use xlink:href="#mefc1cc06ee" x="36" y="30.24" style="stroke: #000000; stroke-width: 0.8"/>
      </g>
     </g>
     <g id="text_15">
      <!-- 8 -->
      <g transform="translate(22.6375 34.039219) scale(0.1 -0.1)">
       <defs>
        <path id="DejaVuSans-38" d="M 2034 2216 
Q 1584 2216 1326 1975 
Q 1069 1734 1069 1313 
Q 1069 891 1326 650 
Q 1584 409 2034 409 
Q 2484 409 2743 651 
Q 3003 894 3003 1313 
Q 3003 1734 2745 1975 
Q 2488 2216 2034 2216 
z
M 1403 2484 
Q 997 2584 770 2862 
Q 544 3141 544 3541 
Q 544 4100 942 4425 
Q 1341 4750 2034 4750 
Q 2731 4750 3128 4425 
Q 3525 4100 3525 3541 
Q 3525 3141 3298 2862 
Q 3072 2584 2669 2484 
Q 3125 2378 3379 2068 
Q 3634 1759 3634 1313 
Q 3634 634 3220 271 
Q 2806 -91 2034 -91 
Q 1263 -91 848 271 
Q 434 634 434 1313 
Q 434 1759 690 2068 
Q 947 2378 1403 2484 
z
M 1172 3481 
Q 1172 3119 1398 2916 
Q 1625 2713 2034 2713 
Q 2441 2713 2670 2916 
Q 2900 3119 2900 3481 
Q 2900 3844 2670 4047 
Q 2441 4250 2034 4250 
Q 1625 4250 1398 4047 
Q 1172 3844 1172 3481 
z
" transform="scale(0.015625)"/>
       </defs>
       <use xlink:href="#DejaVuSans-38"/>
      </g>
     </g>
    </g>
    <g id="text_16">
     <!-- $Na_2O + K_2O$ -->
     <g transform="translate(16.141875 161.88) rotate(-90) scale(0.12 -0.12)">
      <defs>
       <path id="DejaVuSans-Oblique-4e" d="M 1081 4666 
L 1931 4666 
L 3219 666 
L 4000 4666 
L 4616 4666 
L 3706 0 
L 2853 0 
L 1569 4025 
L 788 0 
L 172 0 
L 1081 4666 
z
" transform="scale(0.015625)"/>
       <path id="DejaVuSans-Oblique-61" d="M 3438 1997 
L 3047 0 
L 2472 0 
L 2578 531 
Q 2325 219 2001 64 
Q 1678 -91 1281 -91 
Q 834 -91 548 182 
Q 263 456 263 884 
Q 263 1497 752 1853 
Q 1241 2209 2100 2209 
L 2900 2209 
L 2931 2363 
Q 2938 2388 2941 2417 
Q 2944 2447 2944 2509 
Q 2944 2788 2717 2942 
Q 2491 3097 2081 3097 
Q 1800 3097 1504 3025 
Q 1209 2953 897 2809 
L 997 3341 
Q 1322 3463 1633 3523 
Q 1944 3584 2234 3584 
Q 2853 3584 3176 3315 
Q 3500 3047 3500 2534 
Q 3500 2431 3484 2292 
Q 3469 2153 3438 1997 
z
M 2816 1759 
L 2241 1759 
Q 1534 1759 1195 1570 
Q 856 1381 856 984 
Q 856 709 1029 553 
Q 1203 397 1509 397 
Q 1978 397 2328 733 
Q 2678 1069 2791 1631 
L 2816 1759 
z
" transform="scale(0.015625)"/>
       <path id="DejaVuSans-2b" d="M 2944 4013 
L 2944 2272 
L 4684 2272 
L 4684 1741 
L 2944 1741 
L 2944 0 
L 2419 0 
L 2419 1741 
L 678 1741 
L 678 2272 
L 2419 2272 
L 2419 4013 
L 2944 4013 
z
" transform="scale(0.015625)"/>
       <path id="DejaVuSans-Oblique-4b" d="M 1081 4666 
L 1716 4666 
L 1331 2700 
L 3781 4666 
L 4622 4666 
L 1850 2438 
L 3878 0 
L 3109 0 
L 1247 2272 
L 806 0 
L 172 0 
L 1081 4666 
z
" transform="scale(0.015625)"/>
      </defs>
      <use xlink:href="#DejaVuSans-Oblique-4e" transform="translate(0 0.78125)"/>
      <use xlink:href="#DejaVuSans-Oblique-61" transform="translate(74.804688 0.78125)"/>
      <use xlink:href="#DejaVuSans-32" transform="translate(136.083984 -15.625) scale(0.7)"/>
      <use xlink:href="#DejaVuSans-Oblique-4f" transform="translate(183.354492 0.78125)"/>
      <use xlink:href="#DejaVuSans-2b" transform="translate(281.547852 0.78125)"/>
      <use xlink:href="#DejaVuSans-Oblique-4b" transform="translate(384.819336 0.78125)"/>
      <use xlink:href="#DejaVuSans-32" transform="translate(450.395508 -15.625) scale(0.7)"/>
      <use xlink:href="#DejaVuSans-Oblique-4f" transform="translate(497.666016 0.78125)"/>
     </g>
    </g>
   </g>
   <g id="line2d_15">
    <path d="M 73.884269 161.510887 
L 74.283292 161.205425 
L 74.681446 160.902238 
L 75.078749 160.601308 
L 75.475218 160.302619 
L 75.870873 160.00615 
L 76.511453 159.381081 
L 77.561431 158.202655 
L 78.566167 157.08571 
L 79.528322 156.026988 
L 80.450376 155.023483 
L 81.334653 154.072411 
L 82.183345 153.171176 
L 82.998531 152.317351 
L 83.276626 150.735855 
L 83.312066 148.778311 
L 83.380579 146.857985 
L 83.489368 144.970014 
L 83.648214 143.108603 
L 83.871335 141.266278 
L 84.181587 139.432302 
L 84.622531 137.588434 
L 87.593531 134.735699 
L 93.620401 130.643053 
L 99.236149 126.744022 
L 104.511657 123.022278 
L 109.505954 119.460628 
L 118.872707 114.592373 
L 126.709223 110.341657 
L 134.042071 106.341901 
L 140.946814 102.565779 
L 147.485625 98.98954 
L 153.709866 95.592662 
L 159.662232 92.357397 
L 165.378437 89.26834 
L 170.888521 86.312062 
L 176.217847 83.476798 
L 182.980874 80.280367 
L 189.155592 77.32584 
L 195.143354 74.488497 
L 200.966403 71.757608 
L 206.64365 69.123717 
L 212.191876 66.578208 
" clip-path="url(#pe1c3569bfa)" style="fill: none; stroke: #0000ff; stroke-width: 2; stroke-linecap: square"/>
   </g>
   <g id="line2d_16">
    <path d="M 73.684575 161.535528 
L 74.081205 161.233044 
L 74.476959 160.932793 
L 74.871854 160.634758 
L 75.265907 160.338924 
L 75.659139 160.045271 
L 76.252285 159.478243 
L 77.255765 158.344187 
L 78.214654 157.270641 
L 79.131587 156.254385 
L 80.009022 155.292447 
L 80.849263 154.382072 
L 81.654485 153.520693 
L 81.559239 151.469189 
L 81.540042 149.541132 
L 81.546221 147.65316 
L 81.58347 145.801078 
L 81.659226 143.980102 
L 81.783777 142.184408 
L 81.972512 140.406238 
L 82.251404 138.633902 
L 82.675161 136.845651 
L 86.1285 133.86157 
L 91.844563 129.976621 
L 97.18761 126.262871 
L 102.220425 122.708097 
L 106.995573 119.298337 
L 111.557687 116.019593 
L 120.978354 111.233812 
L 128.115801 107.32871 
L 134.849104 103.633764 
L 141.235573 100.127831 
L 147.322969 96.792393 
L 153.15125 93.611276 
L 158.75398 90.570335 
L 164.159441 87.657166 
L 170.369302 84.567795 
L 176.629052 81.53105 
L 182.684051 78.619802 
L 188.558177 75.822772 
L 194.271068 73.130283 
L 199.838721 70.534056 
L 205.273942 68.02704 
L 210.586949 65.603231 
" clip-path="url(#pe1c3569bfa)" style="fill: none; stroke-dasharray: 7.4,3.2; stroke-dashoffset: 0; stroke: #bf00bf; stroke-width: 2"/>
   </g>
   <g id="line2d_17">
    <path d="M 73.333122 161.586711 
L 73.735117 161.282427 
L 74.13618 160.980408 
L 74.536325 160.680637 
L 74.935572 160.383099 
L 75.333941 160.087773 
L 75.926812 159.514206 
L 76.857627 158.448328 
L 77.742558 157.444423 
L 78.584423 156.499075 
L 78.164253 154.151157 
L 78.016739 152.178885 
L 77.878458 150.257392 
L 77.753057 148.383094 
L 77.644831 146.552337 
L 77.559073 144.761232 
L 77.502636 143.0054 
L 77.484981 141.279534 
L 77.520338 139.576566 
L 77.633158 137.885684 
L 77.877712 136.185928 
L 81.7534 133.541187 
L 86.388398 130.32454 
L 91.47809 126.78252 
L 96.270523 123.383367 
L 100.814778 120.116972 
L 104.865436 116.866057 
L 108.134149 113.484098 
L 116.110447 108.73143 
L 122.29465 104.674381 
L 128.106189 100.80276 
L 133.588799 97.100957 
L 138.779462 93.55511 
L 143.709584 90.15293 
L 149.630997 86.448135 
L 155.348519 82.872574 
L 160.795483 79.44742 
L 166.001718 76.159335 
L 170.992409 72.996824 
L 175.789046 69.949891 
L 180.41019 67.009743 
L 184.872035 64.16858 
L 189.188675 61.419508 
L 193.372533 58.756358 
L 197.434621 56.173581 
" clip-path="url(#pe1c3569bfa)" style="fill: none; stroke-dasharray: 12.8,3.2,2,3.2; stroke-dashoffset: 0; stroke: #ff0000; stroke-width: 2"/>
   </g>
   <g id="line2d_18">
    <path d="M 72.632081 161.679013 
L 73.042216 161.372609 
L 73.45132 161.068516 
L 73.859409 160.766717 
L 72.699225 158.746525 
L 71.768607 156.990309 
L 70.911877 155.227457 
L 69.719657 153.211518 
L 69.274889 151.170247 
L 68.191485 149.047172 
L 66.615738 146.842848 
L 65.067386 144.674766 
L 63.550472 142.536558 
L 62.068482 140.422635 
L 60.630329 138.323346 
L 59.251907 136.223596 
L 58.193881 133.911075 
L 59.85469 130.208604 
L 61.594724 126.527326 
L 63.360709 122.888634 
L 65.121448 119.305823 
L 66.85652 115.787005 
L 69.251908 111.875804 
L 71.502258 108.007402 
L 73.547017 104.224348 
L 75.403653 100.522305 
L 81.296771 95.451425 
L 85.782907 90.935722 
L 90.031279 86.523953 
L 94.062444 82.21101 
L 99.577111 77.201779 
L 104.50587 72.477028 
L 109.193356 67.874186 
L 113.780274 63.320847 
L 118.114447 58.913402 
L 122.221321 54.639766 
L 126.12369 50.488658 
L 131.066962 46.454582 
L 135.652249 42.631069 
L 140.117293 38.881895 
L 144.473305 35.200061 
L 148.729836 31.579393 
L 152.898286 28.020484 
L 156.973007 24.499419 
L 160.962123 21.020273 
L 164.86978 17.581699 
L 168.699469 14.18268 
" clip-path="url(#pe1c3569bfa)" style="fill: none; stroke-dasharray: 2,3.3; stroke-dashoffset: 0; stroke: #bfbf00; stroke-width: 2"/>
   </g>
   <g id="patch_20">
    <path d="M 36 224.28 
L 36 30.24 
" style="fill: none; stroke: #000000; stroke-width: 0.8; stroke-linejoin: miter; stroke-linecap: square"/>
   </g>
   <g id="patch_21">
    <path d="M 259.2 224.28 
L 259.2 30.24 
" style="fill: none; stroke: #000000; stroke-width: 0.8; stroke-linejoin: miter; stroke-linecap: square"/>
   </g>
   <g id="patch_22">
    <path d="M 36 224.28 
L 259.2 224.28 
" style="fill: none; stroke: #000000; stroke-width: 0.8; stroke-linejoin: miter; stroke-linecap: square"/>
   </g>
   <g id="patch_23">
    <path d="M 36 30.24 
L 259.2 30.24 
" style="fill: none; stroke: #000000; stroke-width: 0.8; stroke-linejoin: miter; stroke-linecap: square"/>
   </g>
   <g id="legend_1">
    <g id="line2d_19">
     <path d="M 268.2 43.338437 
L 278.2 43.338437 
L 288.2 43.338437 
" style="fill: none; stroke: #0000ff; stroke-width: 2; stroke-linecap: square"/>
    </g>
    <g id="text_17">
     <!-- P = 500 bars -->
     <g transform="translate(296.2 46.838437) scale(0.1 -0.1)">
      <defs>
       <path id="DejaVuSans-50" d="M 1259 4147 
L 1259 2394 
L 2053 2394 
Q 2494 2394 2734 2622 
Q 2975 2850 2975 3272 
Q 2975 3691 2734 3919 
Q 2494 4147 2053 4147 
L 1259 4147 
z
M 628 4666 
L 2053 4666 
Q 2838 4666 3239 4311 
Q 3641 3956 3641 3272 
Q 3641 2581 3239 2228 
Q 2838 1875 2053 1875 
L 1259 1875 
L 1259 0 
L 628 0 
L 628 4666 
z
" transform="scale(0.015625)"/>
       <path id="DejaVuSans-20" transform="scale(0.015625)"/>
       <path id="DejaVuSans-3d" d="M 678 2906 
L 4684 2906 
L 4684 2381 
L 678 2381 
L 678 2906 
z
M 678 1631 
L 4684 1631 
L 4684 1100 
L 678 1100 
L 678 1631 
z
" transform="scale(0.015625)"/>
       <path id="DejaVuSans-62" d="M 3116 1747 
Q 3116 2381 2855 2742 
Q 2594 3103 2138 3103 
Q 1681 3103 1420 2742 
Q 1159 2381 1159 1747 
Q 1159 1113 1420 752 
Q 1681 391 2138 391 
Q 2594 391 2855 752 
Q 3116 1113 3116 1747 
z
M 1159 2969 
Q 1341 3281 1617 3432 
Q 1894 3584 2278 3584 
Q 2916 3584 3314 3078 
Q 3713 2572 3713 1747 
Q 3713 922 3314 415 
Q 2916 -91 2278 -91 
Q 1894 -91 1617 61 
Q 1341 213 1159 525 
L 1159 0 
L 581 0 
L 581 4863 
L 1159 4863 
L 1159 2969 
z
" transform="scale(0.015625)"/>
       <path id="DejaVuSans-61" d="M 2194 1759 
Q 1497 1759 1228 1600 
Q 959 1441 959 1056 
Q 959 750 1161 570 
Q 1363 391 1709 391 
Q 2188 391 2477 730 
Q 2766 1069 2766 1631 
L 2766 1759 
L 2194 1759 
z
M 3341 1997 
L 3341 0 
L 2766 0 
L 2766 531 
Q 2569 213 2275 61 
Q 1981 -91 1556 -91 
Q 1019 -91 701 211 
Q 384 513 384 1019 
Q 384 1609 779 1909 
Q 1175 2209 1959 2209 
L 2766 2209 
L 2766 2266 
Q 2766 2663 2505 2880 
Q 2244 3097 1772 3097 
Q 1472 3097 1187 3025 
Q 903 2953 641 2809 
L 641 3341 
Q 956 3463 1253 3523 
Q 1550 3584 1831 3584 
Q 2591 3584 2966 3190 
Q 3341 2797 3341 1997 
z
" transform="scale(0.015625)"/>
       <path id="DejaVuSans-72" d="M 2631 2963 
Q 2534 3019 2420 3045 
Q 2306 3072 2169 3072 
Q 1681 3072 1420 2755 
Q 1159 2438 1159 1844 
L 1159 0 
L 581 0 
L 581 3500 
L 1159 3500 
L 1159 2956 
Q 1341 3275 1631 3429 
Q 1922 3584 2338 3584 
Q 2397 3584 2469 3576 
Q 2541 3569 2628 3553 
L 2631 2963 
z
" transform="scale(0.015625)"/>
       <path id="DejaVuSans-73" d="M 2834 3397 
L 2834 2853 
Q 2591 2978 2328 3040 
Q 2066 3103 1784 3103 
Q 1356 3103 1142 2972 
Q 928 2841 928 2578 
Q 928 2378 1081 2264 
Q 1234 2150 1697 2047 
L 1894 2003 
Q 2506 1872 2764 1633 
Q 3022 1394 3022 966 
Q 3022 478 2636 193 
Q 2250 -91 1575 -91 
Q 1294 -91 989 -36 
Q 684 19 347 128 
L 347 722 
Q 666 556 975 473 
Q 1284 391 1588 391 
Q 1994 391 2212 530 
Q 2431 669 2431 922 
Q 2431 1156 2273 1281 
Q 2116 1406 1581 1522 
L 1381 1569 
Q 847 1681 609 1914 
Q 372 2147 372 2553 
Q 372 3047 722 3315 
Q 1072 3584 1716 3584 
Q 2034 3584 2315 3537 
Q 2597 3491 2834 3397 
z
" transform="scale(0.015625)"/>
      </defs>
      <use xlink:href="#DejaVuSans-50"/>
      <use xlink:href="#DejaVuSans-20" x="60.302734"/>
      <use xlink:href="#DejaVuSans-3d" x="92.089844"/>
      <use xlink:href="#DejaVuSans-20" x="175.878906"/>
      <use xlink:href="#DejaVuSans-35" x="207.666016"/>
      <use xlink:href="#DejaVuSans-30" x="271.289062"/>
      <use xlink:href="#DejaVuSans-30" x="334.912109"/>
      <use xlink:href="#DejaVuSans-20" x="398.535156"/>
      <use xlink:href="#DejaVuSans-62" x="430.322266"/>
      <use xlink:href="#DejaVuSans-61" x="493.798828"/>
      <use xlink:href="#DejaVuSans-72" x="555.078125"/>
      <use xlink:href="#DejaVuSans-73" x="596.191406"/>
     </g>
    </g>
    <g id="line2d_20">
     <path d="M 268.2 58.016562 
L 278.2 58.016562 
L 288.2 58.016562 
" style="fill: none; stroke-dasharray: 7.4,3.2; stroke-dashoffset: 0; stroke: #bf00bf; stroke-width: 2"/>
    </g>
    <g id="text_18">
     <!-- P = 1000 bars -->
     <g transform="translate(296.2 61.516562) scale(0.1 -0.1)">
      <use xlink:href="#DejaVuSans-50"/>
      <use xlink:href="#DejaVuSans-20" x="60.302734"/>
      <use xlink:href="#DejaVuSans-3d" x="92.089844"/>
      <use xlink:href="#DejaVuSans-20" x="175.878906"/>
      <use xlink:href="#DejaVuSans-31" x="207.666016"/>
      <use xlink:href="#DejaVuSans-30" x="271.289062"/>
      <use xlink:href="#DejaVuSans-30" x="334.912109"/>
      <use xlink:href="#DejaVuSans-30" x="398.535156"/>
      <use xlink:href="#DejaVuSans-20" x="462.158203"/>
      <use xlink:href="#DejaVuSans-62" x="493.945312"/>
      <use xlink:href="#DejaVuSans-61" x="557.421875"/>
      <use xlink:href="#DejaVuSans-72" x="618.701172"/>
      <use xlink:href="#DejaVuSans-73" x="659.814453"/>
     </g>
    </g>
    <g id="line2d_21">
     <path d="M 268.2 72.694687 
L 278.2 72.694687 
L 288.2 72.694687 
" style="fill: none; stroke-dasharray: 12.8,3.2,2,3.2; stroke-dashoffset: 0; stroke: #ff0000; stroke-width: 2"/>
    </g>
    <g id="text_19">
     <!-- P = 2000 bars -->
     <g transform="translate(296.2 76.194687) scale(0.1 -0.1)">
      <use xlink:href="#DejaVuSans-50"/>
      <use xlink:href="#DejaVuSans-20" x="60.302734"/>
      <use xlink:href="#DejaVuSans-3d" x="92.089844"/>
      <use xlink:href="#DejaVuSans-20" x="175.878906"/>
      <use xlink:href="#DejaVuSans-32" x="207.666016"/>
      <use xlink:href="#DejaVuSans-30" x="271.289062"/>
      <use xlink:href="#DejaVuSans-30" x="334.912109"/>
      <use xlink:href="#DejaVuSans-30" x="398.535156"/>
      <use xlink:href="#DejaVuSans-20" x="462.158203"/>
      <use xlink:href="#DejaVuSans-62" x="493.945312"/>
      <use xlink:href="#DejaVuSans-61" x="557.421875"/>
      <use xlink:href="#DejaVuSans-72" x="618.701172"/>
      <use xlink:href="#DejaVuSans-73" x="659.814453"/>
     </g>
    </g>
    <g id="line2d_22">
     <path d="M 268.2 87.372813 
L 278.2 87.372813 
L 288.2 87.372813 
" style="fill: none; stroke-dasharray: 2,3.3; stroke-dashoffset: 0; stroke: #bfbf00; stroke-width: 2"/>
    </g>
    <g id="text_20">
     <!-- P = 4000 bars -->
     <g transform="translate(296.2 90.872813) scale(0.1 -0.1)">
      <use xlink:href="#DejaVuSans-50"/>
      <use xlink:href="#DejaVuSans-20" x="60.302734"/>
      <use xlink:href="#DejaVuSans-3d" x="92.089844"/>
      <use xlink:href="#DejaVuSans-20" x="175.878906"/>
      <use xlink:href="#DejaVuSans-34" x="207.666016"/>
      <use xlink:href="#DejaVuSans-30" x="271.289062"/>
      <use xlink:href="#DejaVuSans-30" x="334.912109"/>
      <use xlink:href="#DejaVuSans-30" x="398.535156"/>
      <use xlink:href="#DejaVuSans-20" x="462.158203"/>
      <use xlink:href="#DejaVuSans-62" x="493.945312"/>
      <use xlink:href="#DejaVuSans-61" x="557.421875"/>
      <use xlink:href="#DejaVuSans-72" x="618.701172"/>
      <use xlink:href="#DejaVuSans-73" x="659.814453"/>
     </g>
    </g>
   </g>
  </g>
 </g>
 <defs>
  <clipPath id="pe1c3569bfa">
   <rect x="36" y="30.24" width="223.2" height="194.04"/>
  </clipPath>
 </defs>
</svg>
