<?xml version="1.0" encoding="utf-8"?>
<!-- Generator: Adobe Illustrator 27.9.0, SVG Export Plug-In . SVG Version: 6.00 Build 0)  -->
<svg version="1.1" id="Layer_1" xmlns="http://www.w3.org/2000/svg" xmlns:xlink="http://www.w3.org/1999/xlink" x="0px" y="0px"
	 viewBox="0 0 288 252" style="enable-background:new 0 0 288 252;" xml:space="preserve">
<style type="text/css">
	.st0{fill:#FFFFFF;}
	
		.st1{opacity:0.5;clip-path:url(#SVGID_00000145021776128681358290000002452567171798021774_);fill:none;stroke:#000000;stroke-width:0.5;enable-background:new    ;}
	
		.st2{opacity:0.5;clip-path:url(#SVGID_00000096741951871692621140000014110220570314602135_);fill:none;stroke:#000000;stroke-width:0.5;enable-background:new    ;}
	
		.st3{opacity:0.5;clip-path:url(#SVGID_00000000914933998674590130000001469158609569444013_);fill:none;stroke:#000000;stroke-width:0.5;enable-background:new    ;}
	
		.st4{opacity:0.5;clip-path:url(#SVGID_00000005261204583612294710000007875732890968462979_);fill:none;stroke:#000000;stroke-width:0.5;enable-background:new    ;}
	
		.st5{opacity:0.5;clip-path:url(#SVGID_00000106859013138711815540000008798231881894519221_);fill:none;stroke:#000000;stroke-width:0.5;enable-background:new    ;}
	
		.st6{opacity:0.5;clip-path:url(#SVGID_00000128478508677295506000000017465509279585447332_);fill:none;stroke:#000000;stroke-width:0.5;enable-background:new    ;}
	
		.st7{opacity:0.5;clip-path:url(#SVGID_00000002362397133637312760000018374563143748652953_);fill:none;stroke:#000000;stroke-width:0.5;enable-background:new    ;}
	.st8{clip-path:url(#SVGID_00000016070182396613025570000009060152601631060397_);fill:none;}
	.st9{clip-path:url(#SVGID_00000006682667745715817830000000267180813382151329_);fill:none;}
	
		.st10{opacity:0.5;clip-path:url(#SVGID_00000072243099505369227600000000650401829741383063_);fill:none;stroke:#000000;stroke-width:0.5;enable-background:new    ;}
	
		.st11{opacity:0.5;clip-path:url(#SVGID_00000164510460210789559620000010822202966342077603_);fill:none;stroke:#000000;stroke-width:0.5;enable-background:new    ;}
	
		.st12{opacity:0.5;clip-path:url(#SVGID_00000082342336440742632280000012593865869391098045_);fill:none;stroke:#000000;stroke-width:0.5;enable-background:new    ;}
	
		.st13{opacity:0.5;clip-path:url(#SVGID_00000160179520134590043160000007868421802458118059_);fill:none;stroke:#000000;stroke-width:0.5;enable-background:new    ;}
	
		.st14{opacity:0.5;clip-path:url(#SVGID_00000064321961273941498360000006164216615975489721_);fill:none;stroke:#000000;stroke-width:0.5;enable-background:new    ;}
	
		.st15{opacity:0.5;clip-path:url(#SVGID_00000109717618610168275540000004961868474786956725_);fill:none;stroke:#000000;stroke-width:0.5;enable-background:new    ;}
	
		.st16{opacity:0.5;clip-path:url(#SVGID_00000140733115444322091190000017995043277425245063_);fill:none;stroke:#000000;stroke-width:0.5;enable-background:new    ;}
	.st17{clip-path:url(#SVGID_00000039133160963179575560000013939652823041107888_);fill:none;}
	.st18{stroke:#000000;stroke-width:0.8;stroke-linejoin:round;}
	
		.st19{clip-path:url(#SVGID_00000029733839673247413360000004438129392535953325_);fill:none;stroke:#0000FF;stroke-width:2;stroke-linecap:square;stroke-linejoin:round;}
	
		.st20{clip-path:url(#SVGID_00000129889757654098829420000013741808370436917687_);fill:none;stroke:#BF00BF;stroke-width:2;stroke-linejoin:round;stroke-dasharray:7.4,3.2;}
	
		.st21{clip-path:url(#SVGID_00000131338794977541288140000006380643389554308763_);fill:none;stroke:#FF0000;stroke-width:2;stroke-linejoin:round;stroke-dasharray:12.8,3.2,2,3.2;}
	
		.st22{clip-path:url(#SVGID_00000065772710201261214070000013343175969174626472_);fill:none;stroke:#BFBF00;stroke-width:2;stroke-linejoin:round;stroke-dasharray:2,3.3;}
	.st23{fill:none;stroke:#000000;stroke-width:0.8;stroke-linecap:square;}
	.st24{fill:none;stroke:#0000FF;stroke-width:2;stroke-linecap:square;stroke-linejoin:round;}
	.st25{fill:none;stroke:#BF00BF;stroke-width:2;stroke-linejoin:round;stroke-dasharray:7.4,3.2;}
	.st26{fill:none;stroke:#FF0000;stroke-width:2;stroke-linejoin:round;stroke-dasharray:12.8,3.2,2,3.2;}
	.st27{fill:none;stroke:#BFBF00;stroke-width:2;stroke-linejoin:round;stroke-dasharray:2,3.3;}
</style>
<g id="patch_1">
	<path class="st0" d="M0,252h288V0H0V252z"/>
</g>
<g id="patch_2">
	<path class="st0" d="M36,224.3h223.2v-194H36V224.3z"/>
</g>
<g id="patch_3">
	<g>
		<defs>
			<rect id="SVGID_1_" x="36" y="30.2" width="223.2" height="194"/>
		</defs>
		<clipPath id="SVGID_00000011717570665139665340000015076756005224317326_">
			<use xlink:href="#SVGID_1_"  style="overflow:visible;"/>
		</clipPath>
		
			<path style="opacity:0.5;clip-path:url(#SVGID_00000011717570665139665340000015076756005224317326_);fill:none;stroke:#000000;stroke-width:0.5;enable-background:new    ;" d="
			M46.6,103H121l-74.4,72.8V103z"/>
	</g>
</g>
<g id="patch_4">
	<g>
		<defs>
			<rect id="SVGID_00000117656355973853835280000004873822172115250837_" x="36" y="30.2" width="223.2" height="194"/>
		</defs>
		<clipPath id="SVGID_00000050639886175358179550000003163395725506142136_">
			<use xlink:href="#SVGID_00000117656355973853835280000004873822172115250837_"  style="overflow:visible;"/>
		</clipPath>
		
			<path style="opacity:0.5;clip-path:url(#SVGID_00000050639886175358179550000003163395725506142136_);fill:none;stroke:#000000;stroke-width:0.5;enable-background:new    ;" d="
			M46.6,175.8L121,103v121.3H46.6V175.8z"/>
	</g>
</g>
<g id="patch_5">
	<g>
		<defs>
			<rect id="SVGID_00000027600856093652844330000013133067088200597133_" x="36" y="30.2" width="223.2" height="194"/>
		</defs>
		<clipPath id="SVGID_00000063609156962026696960000002415424013714798269_">
			<use xlink:href="#SVGID_00000027600856093652844330000013133067088200597133_"  style="overflow:visible;"/>
		</clipPath>
		
			<path style="opacity:0.5;clip-path:url(#SVGID_00000063609156962026696960000002415424013714798269_);fill:none;stroke:#000000;stroke-width:0.5;enable-background:new    ;" d="
			M44.6-1L4.1,54.5v97H-1"/>
	</g>
</g>
<g id="patch_6">
	<g>
		<defs>
			<rect id="SVGID_00000154416028474039043810000014999207509617707156_" x="36" y="30.2" width="223.2" height="194"/>
		</defs>
		<clipPath id="SVGID_00000141453552887354349940000010488361448961861765_">
			<use xlink:href="#SVGID_00000154416028474039043810000014999207509617707156_"  style="overflow:visible;"/>
		</clipPath>
		
			<path style="opacity:0.5;clip-path:url(#SVGID_00000141453552887354349940000010488361448961861765_);fill:none;stroke:#000000;stroke-width:0.5;enable-background:new    ;" d="
			M121,224.3V103l53.1-21.8v143.1H121z"/>
	</g>
</g>
<g id="patch_7">
	<g>
		<defs>
			<rect id="SVGID_00000045581053623317904610000000712964423782235560_" x="36" y="30.2" width="223.2" height="194"/>
		</defs>
		<clipPath id="SVGID_00000106841939750286636350000014740913551991638427_">
			<use xlink:href="#SVGID_00000045581053623317904610000000712964423782235560_"  style="overflow:visible;"/>
		</clipPath>
		
			<path style="opacity:0.5;clip-path:url(#SVGID_00000106841939750286636350000014740913551991638427_);fill:none;stroke:#000000;stroke-width:0.5;enable-background:new    ;" d="
			M174.2,224.3V81.2l63.8-26.7v169.8H174.2z"/>
	</g>
</g>
<g id="patch_8">
	<g>
		<defs>
			<rect id="SVGID_00000163049701227770579790000015206785026773424258_" x="36" y="30.2" width="223.2" height="194"/>
		</defs>
		<clipPath id="SVGID_00000182527586163452932680000011178864215848393865_">
			<use xlink:href="#SVGID_00000163049701227770579790000015206785026773424258_"  style="overflow:visible;"/>
		</clipPath>
		
			<path style="opacity:0.5;clip-path:url(#SVGID_00000182527586163452932680000011178864215848393865_);fill:none;stroke:#000000;stroke-width:0.5;enable-background:new    ;" d="
			M237.9,224.3V54.5L289,35.1 M289,224.3h-51.1"/>
	</g>
</g>
<g id="patch_9">
	<g>
		<defs>
			<rect id="SVGID_00000126324288156398281510000008385478348281046667_" x="36" y="30.2" width="223.2" height="194"/>
		</defs>
		<clipPath id="SVGID_00000114059064146558586690000014335302052083962537_">
			<use xlink:href="#SVGID_00000126324288156398281510000008385478348281046667_"  style="overflow:visible;"/>
		</clipPath>
		
			<path style="opacity:0.5;clip-path:url(#SVGID_00000114059064146558586690000014335302052083962537_);fill:none;stroke:#000000;stroke-width:0.5;enable-background:new    ;" d="
			M4.1,151.5h42.5v24.3v48.5H4.1V151.5z"/>
	</g>
</g>
<g id="patch_10">
	<g>
		<defs>
			<rect id="SVGID_00000058569514614592490570000009908289930025293703_" x="36" y="30.2" width="223.2" height="194"/>
		</defs>
		<clipPath id="SVGID_00000098201723719579305550000017433804226058292638_">
			<use xlink:href="#SVGID_00000058569514614592490570000009908289930025293703_"  style="overflow:visible;"/>
		</clipPath>
		<path style="clip-path:url(#SVGID_00000098201723719579305550000017433804226058292638_);fill:none;" d="M36,224.3"/>
	</g>
</g>
<g id="patch_11">
	<g>
		<defs>
			<rect id="SVGID_00000121281269289037532980000013254776120896622502_" x="36" y="30.2" width="223.2" height="194"/>
		</defs>
		<clipPath id="SVGID_00000142860700528046211400000010831289007615512231_">
			<use xlink:href="#SVGID_00000121281269289037532980000013254776120896622502_"  style="overflow:visible;"/>
		</clipPath>
		<path style="clip-path:url(#SVGID_00000142860700528046211400000010831289007615512231_);fill:none;" d="M36,224.3"/>
	</g>
</g>
<g id="patch_12">
	<g>
		<defs>
			<rect id="SVGID_00000035520668809478219990000005657974937651220611_" x="36" y="30.2" width="223.2" height="194"/>
		</defs>
		<clipPath id="SVGID_00000072245806274142052870000016196986395114265747_">
			<use xlink:href="#SVGID_00000035520668809478219990000005657974937651220611_"  style="overflow:visible;"/>
		</clipPath>
		
			<path style="opacity:0.5;clip-path:url(#SVGID_00000072245806274142052870000016196986395114265747_);fill:none;stroke:#000000;stroke-width:0.5;enable-background:new    ;" d="
			M46.6,103l46.8-55.8L121,103H46.6z"/>
	</g>
</g>
<g id="patch_13">
	<g>
		<defs>
			<rect id="SVGID_00000181773250064781219380000005158469652581454760_" x="36" y="30.2" width="223.2" height="194"/>
		</defs>
		<clipPath id="SVGID_00000119119466183398736760000004874726139565866628_">
			<use xlink:href="#SVGID_00000181773250064781219380000005158469652581454760_"  style="overflow:visible;"/>
		</clipPath>
		
			<path style="opacity:0.5;clip-path:url(#SVGID_00000119119466183398736760000004874726139565866628_);fill:none;stroke:#000000;stroke-width:0.5;enable-background:new    ;" d="
			M93.4,47.2l38-48.2 M131.8-1l42.4,82.2L121,103L93.4,47.2"/>
	</g>
</g>
<g id="patch_14">
	<g>
		<defs>
			<rect id="SVGID_00000137836379602544805440000012073841772235279765_" x="36" y="30.2" width="223.2" height="194"/>
		</defs>
		<clipPath id="SVGID_00000128462453181637640550000005599541075856251785_">
			<use xlink:href="#SVGID_00000137836379602544805440000012073841772235279765_"  style="overflow:visible;"/>
		</clipPath>
		
			<path style="opacity:0.5;clip-path:url(#SVGID_00000128462453181637640550000005599541075856251785_);fill:none;stroke:#000000;stroke-width:0.5;enable-background:new    ;" d="
			M208.7-1l8,16.7l21.3,38.8l-63.8,26.7L131.8-1"/>
	</g>
</g>
<g id="patch_15">
	<g>
		<defs>
			<rect id="SVGID_00000172408704679065998590000009854743330119479205_" x="36" y="30.2" width="223.2" height="194"/>
		</defs>
		<clipPath id="SVGID_00000056419944434616678530000009893453230808150922_">
			<use xlink:href="#SVGID_00000172408704679065998590000009854743330119479205_"  style="overflow:visible;"/>
		</clipPath>
		
			<path style="opacity:0.5;clip-path:url(#SVGID_00000056419944434616678530000009893453230808150922_);fill:none;stroke:#000000;stroke-width:0.5;enable-background:new    ;" d="
			M232.8-1l-16.1,16.7l-8-16.7"/>
	</g>
</g>
<g id="patch_16">
	<g>
		<defs>
			<rect id="SVGID_00000172425741006949629860000015523467301673820055_" x="36" y="30.2" width="223.2" height="194"/>
		</defs>
		<clipPath id="SVGID_00000030485391670678627330000017405538711796329385_">
			<use xlink:href="#SVGID_00000172425741006949629860000015523467301673820055_"  style="overflow:visible;"/>
		</clipPath>
		
			<path style="opacity:0.5;clip-path:url(#SVGID_00000030485391670678627330000017405538711796329385_);fill:none;stroke:#000000;stroke-width:0.5;enable-background:new    ;" d="
			M216.7,15.7L232.8-1 M289,35.1l-51.1,19.4l-21.3-38.8"/>
	</g>
</g>
<g id="patch_17">
	<g>
		<defs>
			<rect id="SVGID_00000057132263403859761950000006568143960236834229_" x="36" y="30.2" width="223.2" height="194"/>
		</defs>
		<clipPath id="SVGID_00000056429181682445681570000005836562049001928337_">
			<use xlink:href="#SVGID_00000057132263403859761950000006568143960236834229_"  style="overflow:visible;"/>
		</clipPath>
		
			<path style="opacity:0.5;clip-path:url(#SVGID_00000056429181682445681570000005836562049001928337_);fill:none;stroke:#000000;stroke-width:0.5;enable-background:new    ;" d="
			M4.1,151.5v-97L44.6-1 M49.1-1l44.3,48.2L46.6,103v48.5H4.1"/>
	</g>
</g>
<g id="patch_18">
	<g>
		<defs>
			<rect id="SVGID_00000078750293062158938220000006660566736144278714_" x="36" y="30.2" width="223.2" height="194"/>
		</defs>
		<clipPath id="SVGID_00000140711361167740685940000012050910796921680055_">
			<use xlink:href="#SVGID_00000078750293062158938220000006660566736144278714_"  style="overflow:visible;"/>
		</clipPath>
		
			<path style="opacity:0.5;clip-path:url(#SVGID_00000140711361167740685940000012050910796921680055_);fill:none;stroke:#000000;stroke-width:0.5;enable-background:new    ;" d="
			M131.4-1l-38,48.2L49.1-1"/>
	</g>
</g>
<g id="patch_19">
	<g>
		<defs>
			<rect id="SVGID_00000025420159292676268460000016713357817167391116_" x="36" y="30.2" width="223.2" height="194"/>
		</defs>
		<clipPath id="SVGID_00000178194629163284773660000014791493682949793959_">
			<use xlink:href="#SVGID_00000025420159292676268460000016713357817167391116_"  style="overflow:visible;"/>
		</clipPath>
		<path style="clip-path:url(#SVGID_00000178194629163284773660000014791493682949793959_);fill:none;" d="M36,224.3"/>
	</g>
</g>
<g id="matplotlib.axis_1">
	<g id="xtick_1">
		<g id="line2d_1">
			<g>
				<g>
					<path id="mae6a6e75f0" class="st18" d="M46.6,224.3v3.5"/>
				</g>
			</g>
		</g>
		<g id="text_1">
			<g transform="translate(40.266071 238.878438) scale(0.1 -0.1)">
				<g>
					<path id="DejaVuSans-34" d="M37.8,64.3L12.9,25.4h24.9V64.3z M35.2,72.9h12.4V25.4H58v-8.2H47.6V0h-9.8v17.2H4.9v9.5L35.2,72.9
						z"/>
				</g>
				<g>
					<path id="DejaVuSans-35" d="M74.4,72.9h38.7v-8.3H83.5V46.7c1.4,0.5,2.9,0.9,4.3,1.1c1.4,0.2,2.9,0.4,4.3,0.4
						c8.1,0,14.6-2.2,19.3-6.7c4.8-4.5,7.1-10.5,7.1-18.1c0-7.8-2.4-13.9-7.3-18.3c-4.9-4.3-11.8-6.5-20.7-6.5
						c-3.1,0-6.2,0.3-9.4,0.8c-3.2,0.5-6.4,1.3-9.8,2.3v9.9c2.9-1.6,6-2.8,9.1-3.6s6.4-1.2,9.9-1.2c5.6,0,10.1,1.5,13.4,4.4
						c3.3,3,4.9,7,4.9,12.1c0,5.1-1.6,9.1-4.9,12c-3.3,3-7.7,4.5-13.4,4.5c-2.6,0-5.3-0.3-7.9-0.9c-2.6-0.6-5.3-1.5-8-2.7V72.9z"/>
				</g>
			</g>
		</g>
	</g>
	<g id="xtick_2">
		<g id="line2d_2">
			<g>
				<g>
					<path id="mae6a6e75f0_00000005959925759892596030000000050813042847566475_" class="st18" d="M99.8,224.3v3.5"/>
				</g>
			</g>
		</g>
		<g id="text_2">
			<g transform="translate(93.408929 238.878438) scale(0.1 -0.1)">
				<g>
					<path id="DejaVuSans-35_00000173875942848292372350000007211310930936465838_" d="M10.8,72.9h38.7v-8.3H19.8V46.7
						c1.4,0.5,2.9,0.9,4.3,1.1c1.4,0.2,2.9,0.4,4.3,0.4c8.1,0,14.6-2.2,19.3-6.7c4.8-4.5,7.1-10.5,7.1-18.1c0-7.8-2.4-13.9-7.3-18.3
						c-4.9-4.3-11.8-6.5-20.7-6.5c-3.1,0-6.2,0.3-9.4,0.8c-3.2,0.5-6.4,1.3-9.8,2.3v9.9c2.9-1.6,6-2.8,9.1-3.6s6.4-1.2,9.9-1.2
						c5.6,0,10.1,1.5,13.4,4.4c3.3,3,4.9,7,4.9,12.1c0,5.1-1.6,9.1-4.9,12c-3.3,3-7.7,4.5-13.4,4.5c-2.6,0-5.3-0.3-7.9-0.9
						c-2.6-0.6-5.3-1.5-8-2.7V72.9z"/>
				</g>
				<g>
					<path id="DejaVuSans-30" d="M95.4,66.4c-5.1,0-8.9-2.5-11.5-7.5c-2.6-5-3.8-12.5-3.8-22.5c0-10,1.3-17.5,3.8-22.5
						c2.6-5,6.4-7.5,11.5-7.5c5.1,0,8.9,2.5,11.5,7.5c2.6,5,3.8,12.5,3.8,22.5c0,10-1.3,17.5-3.8,22.5
						C104.4,63.9,100.5,66.4,95.4,66.4z M95.4,74.2c8.2,0,14.4-3.2,18.7-9.7c4.3-6.5,6.5-15.8,6.5-28.1c0-12.3-2.2-21.6-6.5-28.1
						c-4.3-6.5-10.6-9.7-18.7-9.7c-8.2,0-14.4,3.2-18.7,9.7c-4.3,6.5-6.5,15.8-6.5,28.1c0,12.3,2.2,21.7,6.5,28.1
						C81,71,87.2,74.2,95.4,74.2z"/>
				</g>
			</g>
		</g>
	</g>
	<g id="xtick_3">
		<g id="line2d_3">
			<g>
				<g>
					<path id="mae6a6e75f0_00000029028960292827625520000012371386666544116653_" class="st18" d="M152.9,224.3v3.5"/>
				</g>
			</g>
		</g>
		<g id="text_3">
			<g transform="translate(146.551786 238.878438) scale(0.1 -0.1)">
				<g>
					<path id="DejaVuSans-35_00000086657591314147985190000006899599888221949089_" d="M10.8,72.9h38.7v-8.3H19.8V46.7
						c1.4,0.5,2.9,0.9,4.3,1.1c1.4,0.2,2.9,0.4,4.3,0.4c8.1,0,14.6-2.2,19.3-6.7c4.8-4.5,7.1-10.5,7.1-18.1c0-7.8-2.4-13.9-7.3-18.3
						c-4.9-4.3-11.8-6.5-20.7-6.5c-3.1,0-6.2,0.3-9.4,0.8c-3.2,0.5-6.4,1.3-9.8,2.3v9.9c2.9-1.6,6-2.8,9.1-3.6s6.4-1.2,9.9-1.2
						c5.6,0,10.1,1.5,13.4,4.4c3.3,3,4.9,7,4.9,12.1c0,5.1-1.6,9.1-4.9,12c-3.3,3-7.7,4.5-13.4,4.5c-2.6,0-5.3-0.3-7.9-0.9
						c-2.6-0.6-5.3-1.5-8-2.7V72.9z"/>
				</g>
				<g>
					<path id="DejaVuSans-35_00000008130478187270297270000003048330763601421476_" d="M74.4,72.9h38.7v-8.3H83.5V46.7
						c1.4,0.5,2.9,0.9,4.3,1.1c1.4,0.2,2.9,0.4,4.3,0.4c8.1,0,14.6-2.2,19.3-6.7c4.8-4.5,7.1-10.5,7.1-18.1c0-7.8-2.4-13.9-7.3-18.3
						c-4.9-4.3-11.8-6.5-20.7-6.5c-3.1,0-6.2,0.3-9.4,0.8c-3.2,0.5-6.4,1.3-9.8,2.3v9.9c2.9-1.6,6-2.8,9.1-3.6s6.4-1.2,9.9-1.2
						c5.6,0,10.1,1.5,13.4,4.4c3.3,3,4.9,7,4.9,12.1c0,5.1-1.6,9.1-4.9,12c-3.3,3-7.7,4.5-13.4,4.5c-2.6,0-5.3-0.3-7.9-0.9
						c-2.6-0.6-5.3-1.5-8-2.7V72.9z"/>
				</g>
			</g>
		</g>
	</g>
	<g id="xtick_4">
		<g id="line2d_4">
			<g>
				<g>
					<path id="mae6a6e75f0_00000136408679089711054610000017185869972061678759_" class="st18" d="M206.1,224.3v3.5"/>
				</g>
			</g>
		</g>
		<g id="text_4">
			<g transform="translate(199.694643 238.878438) scale(0.1 -0.1)">
				<g>
					<path id="DejaVuSans-36" d="M33,40.4c-4.4,0-7.9-1.5-10.5-4.5c-2.6-3-3.9-7.2-3.9-12.4c0-5.2,1.3-9.4,3.9-12.4
						c2.6-3,6.1-4.6,10.5-4.6s7.9,1.5,10.5,4.6c2.6,3.1,3.9,7.2,3.9,12.4c0,5.3-1.3,9.4-3.9,12.4C40.9,38.9,37.4,40.4,33,40.4z
						 M52.6,71.3v-9c-2.5,1.2-5,2.1-7.5,2.7c-2.5,0.6-5,0.9-7.5,0.9c-6.5,0-11.5-2.2-14.9-6.6c-3.4-4.4-5.4-11-5.9-19.9
						c1.9,2.8,4.3,5,7.2,6.5c2.9,1.5,6.1,2.3,9.6,2.3c7.3,0,13.1-2.2,17.4-6.7c4.3-4.4,6.4-10.5,6.4-18.1c0-7.5-2.2-13.5-6.6-18
						C46.3,0.8,40.4-1.4,33-1.4c-8.4,0-14.9,3.2-19.3,9.7C9.2,14.7,7,24.1,7,36.4c0,11.5,2.7,20.7,8.2,27.6s12.8,10.3,22,10.3
						c2.5,0,5-0.2,7.5-0.7S49.9,72.3,52.6,71.3z"/>
				</g>
				<g>
					<path id="DejaVuSans-30_00000044137435886369036740000000013401302231223425_" d="M95.4,66.4c-5.1,0-8.9-2.5-11.5-7.5
						c-2.6-5-3.8-12.5-3.8-22.5c0-10,1.3-17.5,3.8-22.5c2.6-5,6.4-7.5,11.5-7.5c5.1,0,8.9,2.5,11.5,7.5c2.6,5,3.8,12.5,3.8,22.5
						c0,10-1.3,17.5-3.8,22.5C104.4,63.9,100.5,66.4,95.4,66.4z M95.4,74.2c8.2,0,14.4-3.2,18.7-9.7c4.3-6.5,6.5-15.8,6.5-28.1
						c0-12.3-2.2-21.6-6.5-28.1c-4.3-6.5-10.6-9.7-18.7-9.7c-8.2,0-14.4,3.2-18.7,9.7c-4.3,6.5-6.5,15.8-6.5,28.1
						c0,12.3,2.2,21.7,6.5,28.1C81,71,87.2,74.2,95.4,74.2z"/>
				</g>
			</g>
		</g>
	</g>
	<g id="xtick_5">
		<g id="line2d_5">
			<g>
				<g>
					<path id="mae6a6e75f0_00000054228369360652475540000008320649529393003673_" class="st18" d="M259.2,224.3v3.5"/>
				</g>
			</g>
		</g>
		<g id="text_5">
			<g transform="translate(252.8375 238.878438) scale(0.1 -0.1)">
				<g>
					<path id="DejaVuSans-36_00000070808348838762007800000006855462846745460134_" d="M33,40.4c-4.4,0-7.9-1.5-10.5-4.5
						c-2.6-3-3.9-7.2-3.9-12.4c0-5.2,1.3-9.4,3.9-12.4c2.6-3,6.1-4.6,10.5-4.6s7.9,1.5,10.5,4.6c2.6,3.1,3.9,7.2,3.9,12.4
						c0,5.3-1.3,9.4-3.9,12.4C40.9,38.9,37.4,40.4,33,40.4z M52.6,71.3v-9c-2.5,1.2-5,2.1-7.5,2.7c-2.5,0.6-5,0.9-7.5,0.9
						c-6.5,0-11.5-2.2-14.9-6.6c-3.4-4.4-5.4-11-5.9-19.9c1.9,2.8,4.3,5,7.2,6.5c2.9,1.5,6.1,2.3,9.6,2.3c7.3,0,13.1-2.2,17.4-6.7
						c4.2-4.4,6.4-10.5,6.4-18.1c0-7.5-2.2-13.5-6.6-18C46.3,0.8,40.4-1.4,33-1.4c-8.4,0-14.9,3.2-19.3,9.7C9.2,14.7,7,24.1,7,36.4
						c0,11.5,2.7,20.7,8.2,27.6s12.8,10.3,22,10.3c2.5,0,5-0.2,7.5-0.7S49.9,72.3,52.6,71.3z"/>
				</g>
				<g>
					<path id="DejaVuSans-35_00000088840783789544378360000002315152648997470616_" d="M74.4,72.9h38.7v-8.3H83.5V46.7
						c1.4,0.5,2.9,0.9,4.3,1.1c1.4,0.2,2.9,0.4,4.3,0.4c8.1,0,14.6-2.2,19.3-6.7c4.8-4.5,7.1-10.5,7.1-18.1c0-7.8-2.4-13.9-7.3-18.3
						c-4.9-4.3-11.8-6.5-20.7-6.5c-3.1,0-6.2,0.3-9.4,0.8c-3.2,0.5-6.4,1.3-9.8,2.3v9.9c2.9-1.6,6-2.8,9.1-3.6s6.4-1.2,9.9-1.2
						c5.6,0,10.1,1.5,13.4,4.4c3.3,3,4.9,7,4.9,12.1c0,5.1-1.6,9.1-4.9,12c-3.3,3-7.7,4.5-13.4,4.5c-2.6,0-5.3-0.3-7.9-0.9
						c-2.6-0.6-5.3-1.5-8-2.7V72.9z"/>
				</g>
			</g>
		</g>
	</g>
	<g id="text_6">
		<g transform="translate(134.52 254.07625) scale(0.12 -0.12)">
			<g transform="translate(0 0.015625)">
				<path id="DejaVuSans-Oblique-53" d="M60.3,70.5l-1.9-9.6c-3.3,1.8-6.6,3.1-9.8,4s-6.4,1.3-9.4,1.3c-5.9,0-10.6-1.3-14.1-3.9
					c-3.5-2.6-5.2-6-5.2-10.3c0-2.3,0.6-4.1,1.9-5.4c1.3-1.2,4.6-2.6,9.9-4l5.9-1.5c6.7-1.7,11.3-3.9,13.9-6.6
					c2.6-2.6,3.9-6.4,3.9-11.2c0-7.4-2.9-13.3-8.7-18C41.1,0.9,33.5-1.4,24-1.4c-3.9,0-7.8,0.4-11.7,1.2C8.5,0.5,4.5,1.7,0.6,3.2
					l2,10.2c3.6-2.2,7.2-3.9,10.9-5.1c3.6-1.1,7.2-1.7,10.9-1.7c6.2,0,11.1,1.4,14.8,4.1c3.7,2.7,5.6,6.3,5.6,10.7
					c0,2.9-0.7,5.1-2.2,6.7c-1.5,1.5-4.7,2.9-9.5,4.1L27,33.7c-6.7,1.8-11.3,3.8-13.8,6.1c-2.5,2.3-3.7,5.5-3.7,9.7
					c0,7.2,2.8,13.2,8.4,17.8c5.6,4.6,12.9,7,21.8,7c3.5,0,6.9-0.3,10.3-0.9C53.5,72.7,56.9,71.8,60.3,70.5z"/>
			</g>
			<g transform="translate(63.476562 0.015625)">
				<path id="DejaVuSans-Oblique-69" d="M81.8,76h9l-2.2-11.4h-9L81.8,76z M77.7,54.7h9L76,0h-9L77.7,54.7z"/>
			</g>
			<g transform="translate(91.259766 0.015625)">
				<path id="DejaVuSans-Oblique-4f" d="M136.9,66.2c-5.4,0-10.2-1.3-14.3-3.9c-4.1-2.6-7.7-6.6-10.8-12c-2-3.4-3.5-7-4.5-10.9
					c-1-3.8-1.5-7.7-1.5-11.6c0-6.8,1.6-12,4.9-15.7s7.8-5.5,13.8-5.5c5.3,0,10.1,1.3,14.3,4c4.2,2.7,7.8,6.6,10.7,11.8
					c2,3.5,3.5,7.2,4.5,11.1c1,3.9,1.6,7.7,1.6,11.5c0,6.7-1.6,12-4.9,15.7C147.3,64.4,142.8,66.2,136.9,66.2z M124.1-1.4
					c-8.9,0-16,2.7-21.1,8c-5.1,5.3-7.7,12.6-7.7,21.8c0,5.3,1,10.7,3,16.2c2,5.5,4.8,10.4,8.3,14.7c4.1,5,8.7,8.8,13.8,11.3
					c5.1,2.5,10.7,3.7,16.8,3.7c8.9,0,15.9-2.6,21.1-7.9c5.1-5.3,7.7-12.4,7.7-21.5c0-5.6-1-11.1-2.9-16.5
					c-1.9-5.4-4.7-10.3-8.4-14.7c-4.2-5.1-8.8-8.9-13.8-11.3C135.8-0.2,130.2-1.4,124.1-1.4z"/>
			</g>
			<g transform="translate(169.970703 -16.390625) scale(0.7)">
				<path id="DejaVuSans-32" d="M183.4-10.6h24.1v-5.8h-32.4v5.8c2.6,2.7,6.2,6.4,10.7,10.9c4.5,4.6,7.4,7.5,8.5,8.8
					c2.2,2.5,3.8,4.6,4.6,6.3c0.9,1.7,1.3,3.4,1.3,5.1c0,2.7-1,4.9-2.9,6.6c-1.9,1.7-4.4,2.6-7.4,2.6c-2.2,0-4.5-0.4-6.9-1.1
					c-2.4-0.8-5-1.9-7.7-3.4v7c2.8,1.1,5.4,2,7.8,2.5c2.4,0.6,4.6,0.9,6.6,0.9c5.3,0,9.5-1.3,12.6-4c3.1-2.6,4.7-6.2,4.7-10.6
					c0-2.1-0.4-4.1-1.2-6c-0.8-1.9-2.2-4.1-4.3-6.6c-0.6-0.7-2.4-2.6-5.4-5.7C193.3-0.5,189-4.9,183.4-10.6z"/>
			</g>
		</g>
	</g>
</g>
<g id="matplotlib.axis_2">
	<g id="ytick_1">
		<g id="line2d_6">
			<g>
				<g>
					<path id="md1340e6793" class="st18" d="M36,224.3h-3.5"/>
				</g>
			</g>
		</g>
		<g id="text_7">
			<g transform="translate(22.6375 228.079219) scale(0.1 -0.1)">
				<g>
					<path id="DejaVuSans-30_00000036950708368799847180000010924628283688419747_" d="M31.8,66.4c-5.1,0-8.9-2.5-11.5-7.5
						c-2.6-5-3.8-12.5-3.8-22.5c0-10,1.3-17.5,3.8-22.5c2.6-5,6.4-7.5,11.5-7.5c5.1,0,8.9,2.5,11.5,7.5c2.6,5,3.8,12.5,3.8,22.5
						c0,10-1.3,17.5-3.8,22.5C40.7,63.9,36.9,66.4,31.8,66.4z M31.8,74.2c8.2,0,14.4-3.2,18.7-9.7c4.3-6.5,6.5-15.8,6.5-28.1
						c0-12.3-2.2-21.6-6.5-28.1C46.2,1.8,40-1.4,31.8-1.4c-8.2,0-14.4,3.2-18.7,9.7c-4.3,6.5-6.5,15.8-6.5,28.1
						c0,12.3,2.2,21.7,6.5,28.1C17.4,71,23.6,74.2,31.8,74.2z"/>
				</g>
			</g>
		</g>
	</g>
	<g id="ytick_2">
		<g id="line2d_7">
			<g>
				<g>
					<path id="md1340e6793_00000110462797752642653410000008560110277313645498_" class="st18" d="M36,200h-3.5"/>
				</g>
			</g>
		</g>
		<g id="text_8">
			<g transform="translate(22.6375 203.824219) scale(0.1 -0.1)">
				<g>
					<path id="DejaVuSans-31" d="M12.4,8.3h16.1v55.6L11,60.4v9l17.4,3.5h9.9V8.3h16.1V0h-42V8.3z"/>
				</g>
			</g>
		</g>
	</g>
	<g id="ytick_3">
		<g id="line2d_8">
			<g>
				<g>
					<path id="md1340e6793_00000053520709586565940370000004477387696199368634_" class="st18" d="M36,175.8h-3.5"/>
				</g>
			</g>
		</g>
		<g id="text_9">
			<g transform="translate(22.6375 179.569219) scale(0.1 -0.1)">
				<g>
					<path id="DejaVuSans-32_00000034798444820263455680000002756674609225102267_" d="M19.2,8.3h34.4V0H7.3v8.3
						c3.7,3.9,8.8,9.1,15.3,15.6c6.5,6.5,10.5,10.7,12.2,12.6c3.2,3.5,5.4,6.5,6.6,9c1.3,2.5,1.9,4.9,1.9,7.2c0,3.9-1.4,7-4.1,9.5
						c-2.7,2.4-6.3,3.7-10.6,3.7c-3.1,0-6.4-0.5-9.8-1.6c-3.4-1.1-7.1-2.7-11-4.9v10c4,1.6,7.7,2.8,11.1,3.6
						c3.5,0.8,6.6,1.2,9.5,1.2c7.6,0,13.6-1.9,18.1-5.7c4.5-3.8,6.7-8.8,6.7-15.1c0-3-0.6-5.8-1.7-8.5c-1.1-2.7-3.2-5.8-6.1-9.5
						c-0.8-0.9-3.4-3.7-7.8-8.2C33.3,22.7,27.1,16.4,19.2,8.3z"/>
				</g>
			</g>
		</g>
	</g>
	<g id="ytick_4">
		<g id="line2d_9">
			<g>
				<g>
					<path id="md1340e6793_00000113343189236681198390000016979579273795051667_" class="st18" d="M36,151.5h-3.5"/>
				</g>
			</g>
		</g>
		<g id="text_10">
			<g transform="translate(22.6375 155.314219) scale(0.1 -0.1)">
				<g>
					<path id="DejaVuSans-33" d="M40.6,39.3c4.7-1,8.4-3.1,11-6.3c2.7-3.2,4-7.1,4-11.8c0-7.2-2.5-12.8-7.4-16.7
						c-4.9-3.9-12-5.9-21.1-5.9c-3.1,0-6.2,0.3-9.4,0.9S11.1,1,7.6,2.2v9.5c2.7-1.6,5.7-2.8,9-3.6c3.3-0.8,6.7-1.2,10.2-1.2
						c6.2,0,10.9,1.2,14.1,3.7s4.9,6,4.9,10.6c0,4.3-1.5,7.7-4.5,10.1c-3,2.4-7.2,3.6-12.6,3.6h-8.5V43h8.9c4.8,0,8.6,1,11.1,2.9
						s3.9,4.7,3.9,8.4c0,3.7-1.3,6.6-4,8.6c-2.6,2-6.4,3-11.4,3c-2.7,0-5.6-0.3-8.7-0.9c-3.1-0.6-6.5-1.5-10.2-2.7v8.8
						c3.8,1,7.3,1.8,10.5,2.3s6.4,0.8,9.2,0.8c7.5,0,13.4-1.7,17.8-5.1c4.4-3.4,6.5-8,6.5-13.8c0-4-1.2-7.5-3.5-10.2
						S44.8,40.4,40.6,39.3z"/>
				</g>
			</g>
		</g>
	</g>
	<g id="ytick_5">
		<g id="line2d_10">
			<g>
				<g>
					<path id="md1340e6793_00000021813364586484168230000012191536668534651322_" class="st18" d="M36,127.3h-3.5"/>
				</g>
			</g>
		</g>
		<g id="text_11">
			<g transform="translate(22.6375 131.059219) scale(0.1 -0.1)">
				<g>
					<path id="DejaVuSans-34_00000054979657819047572440000000760005114821845414_" d="M37.8,64.3L12.9,25.4h24.9V64.3z M35.2,72.9
						h12.4V25.4H58v-8.2H47.6V0h-9.8v17.2H4.9v9.5L35.2,72.9z"/>
				</g>
			</g>
		</g>
	</g>
	<g id="ytick_6">
		<g id="line2d_11">
			<g>
				<g>
					<path id="md1340e6793_00000163777728780620256490000011092525562262514068_" class="st18" d="M36,103h-3.5"/>
				</g>
			</g>
		</g>
		<g id="text_12">
			<g transform="translate(22.6375 106.804219) scale(0.1 -0.1)">
				<g>
					<path id="DejaVuSans-35_00000175314669442428793970000003502429575179953041_" d="M10.8,72.9h38.7v-8.3H19.8V46.7
						c1.4,0.5,2.9,0.9,4.3,1.1c1.4,0.2,2.9,0.4,4.3,0.4c8.1,0,14.6-2.2,19.3-6.7c4.8-4.5,7.1-10.5,7.1-18.1c0-7.8-2.4-13.9-7.3-18.3
						c-4.9-4.3-11.8-6.5-20.7-6.5c-3.1,0-6.2,0.3-9.4,0.8c-3.2,0.5-6.4,1.3-9.8,2.3v9.9c2.9-1.6,6-2.8,9.1-3.6s6.4-1.2,9.9-1.2
						c5.6,0,10.1,1.5,13.4,4.4c3.3,3,4.9,7,4.9,12.1c0,5.1-1.6,9.1-4.9,12c-3.3,3-7.7,4.5-13.4,4.5c-2.6,0-5.3-0.3-7.9-0.9
						c-2.6-0.6-5.3-1.5-8-2.7V72.9z"/>
				</g>
			</g>
		</g>
	</g>
	<g id="ytick_7">
		<g id="line2d_12">
			<g>
				<g>
					<path id="md1340e6793_00000002377951597631546440000011155255166898664836_" class="st18" d="M36,78.8h-3.5"/>
				</g>
			</g>
		</g>
		<g id="text_13">
			<g transform="translate(22.6375 82.549219) scale(0.1 -0.1)">
				<g>
					<path id="DejaVuSans-36_00000072997828572035684330000015104453891530045862_" d="M33,40.4c-4.4,0-7.9-1.5-10.5-4.5
						c-2.6-3-3.9-7.2-3.9-12.4c0-5.2,1.3-9.4,3.9-12.4c2.6-3,6.1-4.6,10.5-4.6s7.9,1.5,10.5,4.6c2.6,3.1,3.9,7.2,3.9,12.4
						c0,5.3-1.3,9.4-3.9,12.4C40.9,38.9,37.4,40.4,33,40.4z M52.6,71.3v-9c-2.5,1.2-5,2.1-7.5,2.7c-2.5,0.6-5,0.9-7.5,0.9
						c-6.5,0-11.5-2.2-14.9-6.6c-3.4-4.4-5.4-11-5.9-19.9c1.9,2.8,4.3,5,7.2,6.5c2.9,1.5,6.1,2.3,9.6,2.3c7.3,0,13.1-2.2,17.4-6.7
						c4.2-4.4,6.4-10.5,6.4-18.1c0-7.5-2.2-13.5-6.6-18C46.3,0.8,40.4-1.4,33-1.4c-8.4,0-14.9,3.2-19.3,9.7C9.2,14.7,7,24.1,7,36.4
						c0,11.5,2.7,20.7,8.2,27.6s12.8,10.3,22,10.3c2.5,0,5-0.2,7.5-0.7S49.9,72.3,52.6,71.3z"/>
				</g>
			</g>
		</g>
	</g>
	<g id="ytick_8">
		<g id="line2d_13">
			<g>
				<g>
					<path id="md1340e6793_00000169546009862316905720000008930113139079830157_" class="st18" d="M36,54.5h-3.5"/>
				</g>
			</g>
		</g>
		<g id="text_14">
			<g transform="translate(22.6375 58.294219) scale(0.1 -0.1)">
				<g>
					<path id="DejaVuSans-37" d="M8.2,72.9h46.9v-4.2L28.6,0H18.3l24.9,64.6h-35V72.9z"/>
				</g>
			</g>
		</g>
	</g>
	<g id="ytick_9">
		<g id="line2d_14">
			<g>
				<g>
					<path id="md1340e6793_00000039825970933220843570000013680908983675401395_" class="st18" d="M36,30.2h-3.5"/>
				</g>
			</g>
		</g>
		<g id="text_15">
			<g transform="translate(22.6375 34.039219) scale(0.1 -0.1)">
				<g>
					<path id="DejaVuSans-38" d="M31.8,34.6c-4.7,0-8.4-1.3-11.1-3.8c-2.7-2.5-4-6-4-10.3c0-4.4,1.3-7.8,4-10.4
						c2.7-2.5,6.4-3.8,11.1-3.8s8.4,1.3,11.1,3.8c2.7,2.5,4.1,6,4.1,10.3c0,4.4-1.3,7.8-4,10.3C40.2,33.4,36.5,34.6,31.8,34.6z
						 M21.9,38.8c-4.2,1-7.5,3-9.9,5.9c-2.4,2.9-3.5,6.4-3.5,10.6c0,5.8,2.1,10.4,6.2,13.8c4.2,3.4,9.8,5.1,17.1,5.1
						c7.3,0,13-1.7,17.1-5.1s6.2-8,6.2-13.8c0-4.2-1.2-7.7-3.5-10.6c-2.4-2.9-5.6-4.9-9.8-5.9c4.8-1.1,8.4-3.3,11.1-6.5
						c2.7-3.2,4-7.2,4-11.8c0-7.1-2.2-12.5-6.5-16.3C46,0.5,39.8-1.4,31.8-1.4c-8,0-14.2,1.9-18.5,5.7C8.9,8,6.8,13.4,6.8,20.5
						c0,4.6,1.3,8.6,4,11.8C13.5,35.5,17.2,37.7,21.9,38.8z M18.3,54.4c0-3.8,1.2-6.7,3.5-8.8c2.4-2.1,5.7-3.2,9.9-3.2
						c4.2,0,7.6,1.1,9.9,3.2c2.4,2.1,3.6,5.1,3.6,8.8c0,3.8-1.2,6.7-3.6,8.8c-2.4,2.1-5.7,3.2-9.9,3.2c-4.3,0-7.6-1.1-9.9-3.2
						C19.5,61.1,18.3,58.2,18.3,54.4z"/>
				</g>
			</g>
		</g>
	</g>
	<g id="text_16">
		<g transform="translate(16.141875 161.88) rotate(-90) scale(0.12 -0.12)">
			<g transform="translate(0 0.78125)">
				<path id="DejaVuSans-Oblique-4e" d="M16.9,73.7h13.3l20.1-62.5l12.2,62.5h9.6L57.9,0.8H44.6L24.5,63.7L12.3,0.8H2.7L16.9,73.7z"
					/>
			</g>
			<g transform="translate(74.804688 0.78125)">
				<path id="DejaVuSans-Oblique-61" d="M128.5,32l-6.1-31.2h-9l1.7,8.3c-2.6-3.2-5.6-5.7-9-7.3c-3.4-1.6-7.1-2.4-11.2-2.4
					c-4.7,0-8.5,1.4-11.5,4.3c-3,2.9-4.5,6.5-4.5,11c0,6.4,2.5,11.4,7.6,15.1s12.1,5.6,21.1,5.6h12.5l0.5,2.4
					c0.1,0.3,0.1,0.5,0.2,0.8c0,0.3,0,0.8,0,1.4c0,2.9-1.2,5.2-3.5,6.8c-2.4,1.6-5.7,2.4-9.9,2.4c-2.9,0-5.9-0.4-9-1.1
					c-3.1-0.8-6.2-1.9-9.5-3.4l1.6,8.3c3.4,1.3,6.7,2.2,9.9,2.8c3.2,0.6,6.4,1,9.4,1c6.4,0,11.4-1.4,14.7-4.2
					c3.4-2.8,5.1-6.9,5.1-12.2c0-1.1-0.1-2.3-0.2-3.8C129.1,35.1,128.8,33.6,128.5,32z M118.8,28.3h-9c-7.4,0-12.8-1-16.3-3
					s-5.3-5-5.3-9.2c0-2.9,0.9-5.1,2.7-6.7C92.7,7.8,95.2,7,98.4,7c4.9,0,9.2,1.8,12.8,5.2c3.6,3.5,6.1,8.2,7.2,14L118.8,28.3z"/>
			</g>
			<g transform="translate(136.083984 -15.625) scale(0.7)">
				<path id="DejaVuSans-32_00000023257221735446390690000014524518773318634661_" d="M149.5-9.8h24.1v-5.8h-32.4v5.8
					c2.6,2.7,6.2,6.4,10.7,10.9c4.5,4.6,7.4,7.5,8.5,8.8c2.2,2.5,3.8,4.6,4.6,6.3c0.9,1.7,1.3,3.4,1.3,5.1c0,2.7-1,4.9-2.9,6.6
					c-1.9,1.7-4.4,2.6-7.4,2.6c-2.2,0-4.5-0.4-6.9-1.1c-2.4-0.8-5-1.9-7.7-3.4v7c2.8,1.1,5.4,2,7.8,2.5c2.4,0.6,4.6,0.9,6.6,0.9
					c5.3,0,9.5-1.3,12.6-4c3.1-2.6,4.7-6.2,4.7-10.6c0-2.1-0.4-4.1-1.2-6c-0.8-1.9-2.2-4.1-4.3-6.6c-0.6-0.7-2.4-2.6-5.4-5.7
					C159.4,0.3,155.1-4.1,149.5-9.8z"/>
			</g>
			<g transform="translate(183.354492 0.78125)">
				<path id="DejaVuSans-Oblique-4f_00000006665882353960014320000017823459416947176878_" d="M229,67c-5.4,0-10.2-1.3-14.3-3.9
					c-4.1-2.6-7.7-6.6-10.8-12c-2-3.4-3.5-7-4.5-10.9c-1-3.8-1.5-7.7-1.5-11.6c0-6.8,1.6-12,4.9-15.7c3.2-3.7,7.8-5.5,13.8-5.5
					c5.3,0,10.1,1.3,14.3,4c4.2,2.7,7.8,6.6,10.7,11.8c2,3.5,3.5,7.2,4.5,11.1c1,3.9,1.6,7.7,1.6,11.5c0,6.7-1.6,12-4.9,15.7
					C239.4,65.2,234.8,67,229,67z M216.2-0.6c-8.9,0-16,2.7-21.1,8c-5.1,5.3-7.7,12.6-7.7,21.8c0,5.3,1,10.7,3,16.2
					c2,5.5,4.8,10.4,8.3,14.7c4.1,5,8.7,8.8,13.8,11.3c5.1,2.5,10.7,3.7,16.8,3.7c8.9,0,15.9-2.6,21.1-7.9
					c5.1-5.2,7.7-12.4,7.7-21.5c0-5.6-1-11.1-2.9-16.5c-1.9-5.4-4.7-10.3-8.4-14.7c-4.2-5.1-8.8-8.9-13.8-11.3
					C227.9,0.6,222.3-0.6,216.2-0.6z"/>
			</g>
			<g transform="translate(281.547852 0.78125)">
				<path id="DejaVuSans-2b" d="M327.5,63.5V36.3h27.2V28h-27.2V0.8h-8.2V28h-27.2v8.3h27.2v27.2H327.5z"/>
			</g>
			<g transform="translate(384.819336 0.78125)">
				<path id="DejaVuSans-Oblique-4b" d="M401.7,73.7h9.9l-6-30.7l38.3,30.7H457l-43.3-34.8l31.7-38.1h-12l-29.1,35.5l-6.9-35.5h-9.9
					L401.7,73.7z"/>
			</g>
			<g transform="translate(450.395508 -15.625) scale(0.7)">
				<path id="DejaVuSans-32_00000176724812732137388750000015429442484152879791_" d="M463.8-9.8h24.1v-5.8h-32.4v5.8
					c2.6,2.7,6.2,6.4,10.7,10.9c4.5,4.6,7.4,7.5,8.5,8.8c2.2,2.5,3.8,4.6,4.6,6.3c0.9,1.7,1.3,3.4,1.3,5.1c0,2.7-1,4.9-2.9,6.6
					c-1.9,1.7-4.4,2.6-7.4,2.6c-2.2,0-4.5-0.4-6.9-1.1c-2.4-0.8-5-1.9-7.7-3.4v7c2.8,1.1,5.4,2,7.8,2.5c2.4,0.6,4.6,0.9,6.6,0.9
					c5.3,0,9.5-1.3,12.6-4c3.1-2.6,4.7-6.2,4.7-10.6c0-2.1-0.4-4.1-1.2-6c-0.8-1.9-2.2-4.1-4.3-6.6c-0.6-0.7-2.4-2.6-5.4-5.7
					C473.7,0.3,469.4-4.1,463.8-9.8z"/>
			</g>
			<g transform="translate(497.666016 0.78125)">
				<path id="DejaVuSans-Oblique-4f_00000059272464676533440350000007720093094809503108_" d="M543.3,67c-5.4,0-10.2-1.3-14.3-3.9
					c-4.1-2.6-7.7-6.6-10.8-12c-2-3.4-3.5-7-4.5-10.9c-1-3.8-1.5-7.7-1.5-11.6c0-6.8,1.6-12,4.9-15.7c3.2-3.7,7.8-5.5,13.8-5.5
					c5.3,0,10.1,1.3,14.3,4c4.2,2.7,7.8,6.6,10.7,11.8c2,3.5,3.5,7.2,4.5,11.1c1,3.9,1.6,7.7,1.6,11.5c0,6.7-1.6,12-4.9,15.7
					C553.7,65.2,549.2,67,543.3,67z M530.5-0.6c-8.9,0-16,2.7-21.1,8c-5.1,5.3-7.7,12.6-7.7,21.8c0,5.3,1,10.7,3,16.2
					c2,5.5,4.8,10.4,8.3,14.7c4.1,5,8.7,8.8,13.8,11.3c5.1,2.5,10.7,3.7,16.8,3.7c8.9,0,15.9-2.6,21.1-7.9
					c5.1-5.2,7.7-12.4,7.7-21.5c0-5.6-1-11.1-2.9-16.5c-1.9-5.4-4.7-10.3-8.4-14.7c-4.2-5.1-8.8-8.9-13.8-11.3
					C542.2,0.6,536.6-0.6,530.5-0.6z"/>
			</g>
		</g>
	</g>
</g>
<g id="line2d_15">
	<g>
		<defs>
			<rect id="SVGID_00000168800900514741269820000002276377511498664618_" x="36" y="30.2" width="223.2" height="194"/>
		</defs>
		<clipPath id="SVGID_00000033344803710165984650000004042641027646521773_">
			<use xlink:href="#SVGID_00000168800900514741269820000002276377511498664618_"  style="overflow:visible;"/>
		</clipPath>
		
			<path style="clip-path:url(#SVGID_00000033344803710165984650000004042641027646521773_);fill:none;stroke:#0000FF;stroke-width:2;stroke-linecap:square;stroke-linejoin:round;" d="
			M73.9,161.5l0.4-0.3l0.4-0.3l0.4-0.3l0.4-0.3l0.4-0.3l0.6-0.6l1-1.2l1-1.1l1-1.1l0.9-1l0.9-1l0.8-0.9l0.8-0.9l0.3-1.6l0-2l0.1-1.9
			l0.1-1.9l0.2-1.9l0.2-1.8l0.3-1.8l0.4-1.8l3-2.9l6-4.1l5.6-3.9l5.3-3.7l5-3.6l9.4-4.9l7.8-4.3l7.3-4l6.9-3.8l6.5-3.6l6.2-3.4
			l6-3.2l5.7-3.1l5.5-3l5.3-2.8l6.8-3.2l6.2-3l6-2.8l5.8-2.7l5.7-2.6l5.5-2.5"/>
	</g>
</g>
<g id="line2d_16">
	<g>
		<defs>
			<rect id="SVGID_00000088846956100131341210000006804320609309463190_" x="36" y="30.2" width="223.2" height="194"/>
		</defs>
		<clipPath id="SVGID_00000116931019041491487030000008046040712837437847_">
			<use xlink:href="#SVGID_00000088846956100131341210000006804320609309463190_"  style="overflow:visible;"/>
		</clipPath>
		
			<path style="clip-path:url(#SVGID_00000116931019041491487030000008046040712837437847_);fill:none;stroke:#BF00BF;stroke-width:2;stroke-linejoin:round;stroke-dasharray:7.4,3.2;" d="
			M73.7,161.5l0.4-0.3l0.4-0.3l0.4-0.3l0.4-0.3l0.4-0.3l0.6-0.6l1-1.1l1-1.1l0.9-1l0.9-1l0.8-0.9l0.8-0.9l-0.1-2.1l0-1.9l0-1.9
			l0-1.9l0.1-1.8l0.1-1.8l0.2-1.8l0.3-1.8l0.4-1.8l3.5-3l5.7-3.9l5.3-3.7l5-3.6l4.8-3.4l4.6-3.3l9.4-4.8l7.1-3.9l6.7-3.7l6.4-3.5
			l6.1-3.3l5.8-3.2l5.6-3l5.4-2.9l6.2-3.1l6.3-3l6.1-2.9l5.9-2.8l5.7-2.7l5.6-2.6l5.4-2.5l5.3-2.4"/>
	</g>
</g>
<g id="line2d_17">
	<g>
		<defs>
			<rect id="SVGID_00000096780166231787123800000013753894413163444108_" x="36" y="30.2" width="223.2" height="194"/>
		</defs>
		<clipPath id="SVGID_00000009549653357301454960000001599606734750939309_">
			<use xlink:href="#SVGID_00000096780166231787123800000013753894413163444108_"  style="overflow:visible;"/>
		</clipPath>
		
			<path style="clip-path:url(#SVGID_00000009549653357301454960000001599606734750939309_);fill:none;stroke:#FF0000;stroke-width:2;stroke-linejoin:round;stroke-dasharray:12.8,3.2,2,3.2;" d="
			M73.3,161.6l0.4-0.3l0.4-0.3l0.4-0.3l0.4-0.3l0.4-0.3l0.6-0.6l0.9-1.1l0.9-1l0.8-0.9l-0.4-2.3l-0.1-2l-0.1-1.9l-0.1-1.9l-0.1-1.8
			l-0.1-1.8l-0.1-1.8l0-1.7l0-1.7l0.1-1.7l0.2-1.7l3.9-2.6l4.6-3.2l5.1-3.5l4.8-3.4l4.5-3.3l4.1-3.3l3.3-3.4l8-4.8l6.2-4.1l5.8-3.9
			l5.5-3.7l5.2-3.5l4.9-3.4l5.9-3.7l5.7-3.6l5.4-3.4l5.2-3.3l5-3.2l4.8-3l4.6-2.9l4.5-2.8l4.3-2.7l4.2-2.7l4.1-2.6"/>
	</g>
</g>
<g id="line2d_18">
	<g>
		<defs>
			<rect id="SVGID_00000122708985495988008950000012487860119250192794_" x="36" y="30.2" width="223.2" height="194"/>
		</defs>
		<clipPath id="SVGID_00000085930306958568283450000005570435812930015154_">
			<use xlink:href="#SVGID_00000122708985495988008950000012487860119250192794_"  style="overflow:visible;"/>
		</clipPath>
		
			<path style="clip-path:url(#SVGID_00000085930306958568283450000005570435812930015154_);fill:none;stroke:#BFBF00;stroke-width:2;stroke-linejoin:round;stroke-dasharray:2,3.3;" d="
			M72.6,161.7l0.4-0.3l0.4-0.3l0.4-0.3l-1.2-2l-0.9-1.8l-0.9-1.8l-1.2-2l-0.4-2l-1.1-2.1l-1.6-2.2l-1.5-2.2l-1.5-2.1l-1.5-2.1
			l-1.4-2.1l-1.4-2.1l-1.1-2.3l1.7-3.7l1.7-3.7l1.8-3.6l1.8-3.6l1.7-3.5l2.4-3.9l2.3-3.9l2-3.8l1.9-3.7l5.9-5.1l4.5-4.5l4.2-4.4
			l4-4.3l5.5-5l4.9-4.7l4.7-4.6l4.6-4.6l4.3-4.4l4.1-4.3l3.9-4.2l4.9-4l4.6-3.8l4.5-3.7l4.4-3.7l4.3-3.6l4.2-3.6l4.1-3.5l4-3.5
			l3.9-3.4l3.8-3.4"/>
	</g>
</g>
<g id="patch_20">
	<path class="st23" d="M36,224.3v-194"/>
</g>
<g id="patch_21">
	<path class="st23" d="M259.2,224.3v-194"/>
</g>
<g id="patch_22">
	<path class="st23" d="M36,224.3h223.2"/>
</g>
<g id="patch_23">
	<path class="st23" d="M36,30.2h223.2"/>
</g>
<g id="legend_1">
	<g id="line2d_19">
		<path class="st24" d="M268.2,43.3h10h10"/>
	</g>
	<g id="text_17">
		<g transform="translate(296.2 46.838437) scale(0.1 -0.1)">
			<g>
				<path id="DejaVuSans-50" d="M19.7,64.8V37.4h12.4c4.6,0,8.1,1.2,10.6,3.6c2.5,2.4,3.8,5.8,3.8,10.2c0,4.4-1.3,7.7-3.8,10.1
					c-2.5,2.4-6,3.6-10.6,3.6H19.7z M9.8,72.9h22.3c8.2,0,14.4-1.8,18.5-5.5c4.2-3.7,6.3-9.1,6.3-16.2c0-7.2-2.1-12.6-6.3-16.3
					c-4.2-3.7-10.4-5.5-18.5-5.5H19.7V0H9.8V72.9z"/>
			</g>
			<g>
				<path id="DejaVuSans-20" d="M60.3,0"/>
			</g>
			<g>
				<path id="DejaVuSans-3d" d="M102.7,45.4h62.6v-8.2h-62.6V45.4z M102.7,25.5h62.6v-8.3h-62.6V25.5z"/>
			</g>
			<g>
				<path id="DejaVuSans-20_00000018939385612567161400000017576548393959945857_" d="M175.9,0"/>
			</g>
			<g>
				<path id="DejaVuSans-35_00000001657426767936964650000010481676552563786397_" d="M218.5,72.9h38.7v-8.3h-29.7V46.7
					c1.4,0.5,2.9,0.9,4.3,1.1c1.4,0.2,2.9,0.4,4.3,0.4c8.1,0,14.6-2.2,19.3-6.7c4.8-4.5,7.1-10.5,7.1-18.1c0-7.8-2.4-13.9-7.3-18.3
					c-4.9-4.3-11.8-6.5-20.7-6.5c-3.1,0-6.2,0.3-9.4,0.8c-3.2,0.5-6.4,1.3-9.8,2.3v9.9c2.9-1.6,6-2.8,9.1-3.6s6.4-1.2,9.9-1.2
					c5.6,0,10.1,1.5,13.4,4.4c3.3,3,4.9,7,4.9,12.1c0,5.1-1.6,9.1-4.9,12c-3.3,3-7.7,4.5-13.4,4.5c-2.6,0-5.3-0.3-7.9-0.9
					c-2.6-0.6-5.3-1.5-8-2.7V72.9z"/>
			</g>
			<g>
				<path id="DejaVuSans-30_00000001638331792173984410000002432516708530756494_" d="M303.1,66.4c-5.1,0-8.9-2.5-11.5-7.5
					c-2.6-5-3.8-12.5-3.8-22.5c0-10,1.3-17.5,3.8-22.5c2.6-5,6.4-7.5,11.5-7.5c5.1,0,8.9,2.5,11.5,7.5c2.6,5,3.8,12.5,3.8,22.5
					c0,10-1.3,17.5-3.8,22.5C312,63.9,308.2,66.4,303.1,66.4z M303.1,74.2c8.2,0,14.4-3.2,18.7-9.7c4.3-6.5,6.5-15.8,6.5-28.1
					c0-12.3-2.2-21.6-6.5-28.1c-4.3-6.5-10.6-9.7-18.7-9.7c-8.2,0-14.4,3.2-18.7,9.7c-4.3,6.5-6.5,15.8-6.5,28.1
					c0,12.3,2.2,21.7,6.5,28.1C288.7,71,294.9,74.2,303.1,74.2z"/>
			</g>
			<g>
				<path id="DejaVuSans-30_00000161633437701232835950000012600488607055488159_" d="M366.7,66.4c-5.1,0-8.9-2.5-11.5-7.5
					c-2.6-5-3.8-12.5-3.8-22.5c0-10,1.3-17.5,3.8-22.5c2.6-5,6.4-7.5,11.5-7.5c5.1,0,8.9,2.5,11.5,7.5c2.6,5,3.8,12.5,3.8,22.5
					c0,10-1.3,17.5-3.8,22.5C375.6,63.9,371.8,66.4,366.7,66.4z M366.7,74.2c8.2,0,14.4-3.2,18.7-9.7c4.3-6.5,6.5-15.8,6.5-28.1
					c0-12.3-2.2-21.6-6.5-28.1c-4.3-6.5-10.6-9.7-18.7-9.7c-8.2,0-14.4,3.2-18.7,9.7c-4.3,6.5-6.5,15.8-6.5,28.1
					c0,12.3,2.2,21.7,6.5,28.1C352.3,71,358.5,74.2,366.7,74.2z"/>
			</g>
			<g>
				<path id="DejaVuSans-20_00000067925042227071489180000009713146669040292015_" d="M398.5,0"/>
			</g>
			<g>
				<path id="DejaVuSans-62" d="M479,27.3c0,6.6-1.4,11.8-4.1,15.5s-6.5,5.6-11.2,5.6c-4.8,0-8.5-1.9-11.2-5.6s-4.1-8.9-4.1-15.5
					s1.4-11.8,4.1-15.5s6.5-5.6,11.2-5.6c4.8,0,8.5,1.9,11.2,5.6S479,20.7,479,27.3z M448.4,46.4c1.9,3.2,4.3,5.7,7.2,7.2
					c2.9,1.6,6.3,2.4,10.3,2.4c6.6,0,12-2.6,16.2-7.9c4.2-5.3,6.2-12.2,6.2-20.8s-2.1-15.5-6.2-20.8c-4.1-5.3-9.5-7.9-16.2-7.9
					c-4,0-7.4,0.8-10.3,2.4c-2.9,1.6-5.3,4-7.2,7.3V0h-9v76h9V46.4z"/>
			</g>
			<g>
				<path id="DejaVuSans-61" d="M528.1,27.5c-7.3,0-12.3-0.8-15.1-2.5c-2.8-1.7-4.2-4.5-4.2-8.5c0-3.2,1.1-5.7,3.2-7.6
					c2.1-1.9,5-2.8,8.6-2.8c5,0,9,1.8,12,5.3s4.5,8.2,4.5,14.1v2H528.1z M546,31.2V0h-9v8.3C535,5,532.4,2.5,529.3,1
					s-6.8-2.4-11.2-2.4c-5.6,0-10,1.6-13.4,4.7c-3.3,3.1-5,7.4-5,12.6c0,6.1,2.1,10.8,6.2,13.9c4.1,3.1,10.3,4.7,18.4,4.7H537v0.9
					c0,4.1-1.4,7.3-4.1,9.6s-6.5,3.4-11.5,3.4c-3.1,0-6.2-0.4-9.1-1.1c-3-0.8-5.8-1.9-8.5-3.4v8.3c3.3,1.3,6.5,2.2,9.6,2.8
					c3.1,0.6,6.1,1,9,1c7.9,0,13.8-2.1,17.7-6.2C544,45.8,546,39.5,546,31.2z"/>
			</g>
			<g>
				<path id="DejaVuSans-72" d="M596.2,46.3c-1,0.6-2.1,1-3.3,1.3c-1.2,0.3-2.5,0.4-3.9,0.4c-5.1,0-9-1.7-11.7-5s-4.1-8-4.1-14.2V0
					h-9v54.7h9v-8.5c1.9,3.3,4.4,5.8,7.4,7.4c3,1.6,6.7,2.4,11,2.4c0.6,0,1.3,0,2-0.1c0.8-0.1,1.6-0.2,2.5-0.4L596.2,46.3z"/>
			</g>
			<g>
				<path id="DejaVuSans-73" d="M640.5,53.1v-8.5c-2.5,1.3-5.2,2.3-7.9,2.9c-2.7,0.7-5.6,1-8.5,1c-4.5,0-7.8-0.7-10-2
					c-2.2-1.4-3.3-3.4-3.3-6.2c0-2.1,0.8-3.7,2.4-4.9s4.8-2.3,9.6-3.4l3.1-0.7c6.4-1.4,10.9-3.3,13.6-5.8s4-6,4-10.4
					c0-5.1-2-9.1-6-12.1c-4-3-9.5-4.4-16.6-4.4c-2.9,0-6,0.3-9.2,0.9c-3.2,0.6-6.5,1.4-10,2.6v9.3c3.3-1.7,6.6-3,9.8-3.9
					c3.2-0.9,6.4-1.3,9.6-1.3c4.2,0,7.5,0.7,9.8,2.2c2.3,1.4,3.4,3.5,3.4,6.1c0,2.4-0.8,4.3-2.5,5.6c-1.6,1.3-5.2,2.6-10.8,3.8
					l-3.1,0.7c-5.6,1.2-9.6,3-12.1,5.4c-2.5,2.4-3.7,5.8-3.7,10c0,5.1,1.8,9.1,5.5,11.9c3.6,2.8,8.8,4.2,15.5,4.2
					c3.3,0,6.4-0.2,9.4-0.7C635.3,54.8,638,54.1,640.5,53.1z"/>
			</g>
		</g>
	</g>
	<g id="line2d_20">
		<path class="st25" d="M268.2,58h10h10"/>
	</g>
	<g id="text_18">
		<g transform="translate(296.2 61.516562) scale(0.1 -0.1)">
			<g>
				<path id="DejaVuSans-50_00000093164972920927260850000014027441882376742833_" d="M19.7,64.8V37.4h12.4c4.6,0,8.1,1.2,10.6,3.6
					c2.5,2.4,3.8,5.8,3.8,10.2c0,4.4-1.3,7.7-3.8,10.1c-2.5,2.4-6,3.6-10.6,3.6H19.7z M9.8,72.9h22.3c8.2,0,14.4-1.8,18.5-5.5
					c4.2-3.7,6.3-9.1,6.3-16.2c0-7.2-2.1-12.6-6.3-16.3c-4.2-3.7-10.4-5.5-18.5-5.5H19.7V0H9.8V72.9z"/>
			</g>
			<g>
				<path id="DejaVuSans-20_00000049221657545261499300000009063340969338290620_" d="M60.3,0"/>
			</g>
			<g>
				<path id="DejaVuSans-3d_00000119798214809103089140000009897229148464083641_" d="M102.7,45.4h62.6v-8.2h-62.6V45.4z
					 M102.7,25.5h62.6v-8.3h-62.6V25.5z"/>
			</g>
			<g>
				<path id="DejaVuSans-20_00000152955036687952653230000017352443771799064740_" d="M175.9,0"/>
			</g>
			<g>
				<path id="DejaVuSans-31_00000057148287939570736290000015482471361929277074_" d="M220.1,8.3h16.1v55.6l-17.5-3.5v9l17.4,3.5
					h9.9V8.3h16.1V0h-42V8.3z"/>
			</g>
			<g>
				<path id="DejaVuSans-30_00000130622912570243842210000001859025269584300183_" d="M303.1,66.4c-5.1,0-8.9-2.5-11.5-7.5
					c-2.6-5-3.8-12.5-3.8-22.5c0-10,1.3-17.5,3.8-22.5c2.6-5,6.4-7.5,11.5-7.5c5.1,0,8.9,2.5,11.5,7.5c2.6,5,3.8,12.5,3.8,22.5
					c0,10-1.3,17.5-3.8,22.5C312,63.9,308.2,66.4,303.1,66.4z M303.1,74.2c8.2,0,14.4-3.2,18.7-9.7c4.3-6.5,6.5-15.8,6.5-28.1
					c0-12.3-2.2-21.6-6.5-28.1c-4.3-6.5-10.6-9.7-18.7-9.7c-8.2,0-14.4,3.2-18.7,9.7c-4.3,6.5-6.5,15.8-6.5,28.1
					c0,12.3,2.2,21.7,6.5,28.1C288.7,71,294.9,74.2,303.1,74.2z"/>
			</g>
			<g>
				<path id="DejaVuSans-30_00000113346337111406087010000009011594841679348634_" d="M366.7,66.4c-5.1,0-8.9-2.5-11.5-7.5
					c-2.6-5-3.8-12.5-3.8-22.5c0-10,1.3-17.5,3.8-22.5c2.6-5,6.4-7.5,11.5-7.5c5.1,0,8.9,2.5,11.5,7.5c2.6,5,3.8,12.5,3.8,22.5
					c0,10-1.3,17.5-3.8,22.5C375.6,63.9,371.8,66.4,366.7,66.4z M366.7,74.2c8.2,0,14.4-3.2,18.7-9.7c4.3-6.5,6.5-15.8,6.5-28.1
					c0-12.3-2.2-21.6-6.5-28.1c-4.3-6.5-10.6-9.7-18.7-9.7c-8.2,0-14.4,3.2-18.7,9.7c-4.3,6.5-6.5,15.8-6.5,28.1
					c0,12.3,2.2,21.7,6.5,28.1C352.3,71,358.5,74.2,366.7,74.2z"/>
			</g>
			<g>
				<path id="DejaVuSans-30_00000038411619982195350980000002053512693207436931_" d="M430.3,66.4c-5.1,0-8.9-2.5-11.5-7.5
					c-2.6-5-3.8-12.5-3.8-22.5c0-10,1.3-17.5,3.8-22.5c2.6-5,6.4-7.5,11.5-7.5c5.1,0,8.9,2.5,11.5,7.5c2.6,5,3.8,12.5,3.8,22.5
					c0,10-1.3,17.5-3.8,22.5C439.3,63.9,435.4,66.4,430.3,66.4z M430.3,74.2c8.2,0,14.4-3.2,18.7-9.7c4.3-6.5,6.5-15.8,6.5-28.1
					c0-12.3-2.2-21.6-6.5-28.1c-4.3-6.5-10.6-9.7-18.7-9.7c-8.2,0-14.4,3.2-18.7,9.7c-4.3,6.5-6.5,15.8-6.5,28.1
					c0,12.3,2.2,21.7,6.5,28.1C415.9,71,422.1,74.2,430.3,74.2z"/>
			</g>
			<g>
				<path id="DejaVuSans-20_00000019645571929184757600000001352267142320156594_" d="M462.2,0"/>
			</g>
			<g>
				<path id="DejaVuSans-62_00000085949835975296481170000006752141819839609250_" d="M542.6,27.3c0,6.6-1.4,11.8-4.1,15.5
					s-6.5,5.6-11.2,5.6c-4.8,0-8.5-1.9-11.2-5.6s-4.1-8.9-4.1-15.5s1.4-11.8,4.1-15.5s6.5-5.6,11.2-5.6c4.8,0,8.5,1.9,11.2,5.6
					S542.6,20.7,542.6,27.3z M512.1,46.4c1.9,3.2,4.3,5.7,7.2,7.2c2.9,1.6,6.3,2.4,10.3,2.4c6.6,0,12-2.6,16.2-7.9
					c4.2-5.3,6.2-12.2,6.2-20.8s-2.1-15.5-6.2-20.8c-4.1-5.3-9.5-7.9-16.2-7.9c-4,0-7.4,0.8-10.3,2.4c-2.9,1.6-5.3,4-7.2,7.3V0h-9
					v76h9V46.4z"/>
			</g>
			<g>
				<path id="DejaVuSans-61_00000073713251373906054190000013505976222906017451_" d="M591.7,27.5c-7.3,0-12.3-0.8-15.1-2.5
					c-2.8-1.7-4.2-4.5-4.2-8.5c0-3.2,1.1-5.7,3.2-7.6c2.1-1.9,5-2.8,8.6-2.8c5,0,9,1.8,12,5.3s4.5,8.2,4.5,14.1v2H591.7z
					 M609.6,31.2V0h-9v8.3C598.6,5,596,2.5,593,1s-6.8-2.4-11.2-2.4c-5.6,0-10,1.6-13.4,4.7c-3.3,3.1-5,7.4-5,12.6
					c0,6.1,2.1,10.8,6.2,13.9c4.1,3.1,10.3,4.7,18.4,4.7h12.6v0.9c0,4.1-1.4,7.3-4.1,9.6s-6.5,3.4-11.5,3.4c-3.1,0-6.2-0.4-9.1-1.1
					c-3-0.8-5.8-1.9-8.5-3.4v8.3c3.3,1.3,6.5,2.2,9.6,2.8c3.1,0.6,6.1,1,9,1c7.9,0,13.8-2.1,17.7-6.2
					C607.7,45.7,609.6,39.5,609.6,31.2z"/>
			</g>
			<g>
				<path id="DejaVuSans-72_00000017511414463768004610000004411864162952157590_" d="M659.8,46.3c-1,0.6-2.1,1-3.3,1.3
					c-1.2,0.3-2.5,0.4-3.9,0.4c-5.1,0-9-1.7-11.7-5s-4.1-8-4.1-14.2V0h-9v54.7h9v-8.5c1.9,3.3,4.4,5.8,7.4,7.4c3,1.6,6.7,2.4,11,2.4
					c0.6,0,1.3,0,2-0.1c0.8-0.1,1.6-0.2,2.5-0.4L659.8,46.3z"/>
			</g>
			<g>
				<path id="DejaVuSans-73_00000176722476700293196140000010307179880296005554_" d="M704.1,53.1v-8.5c-2.5,1.3-5.2,2.3-7.9,2.9
					c-2.7,0.7-5.6,1-8.5,1c-4.5,0-7.8-0.7-10-2c-2.2-1.4-3.3-3.4-3.3-6.2c0-2.1,0.8-3.7,2.4-4.9s4.8-2.3,9.6-3.4l3.1-0.7
					c6.4-1.4,10.9-3.3,13.6-5.8s4-6,4-10.4c0-5.1-2-9.1-6-12.1c-4-3-9.5-4.4-16.6-4.4c-2.9,0-6,0.3-9.2,0.9c-3.2,0.6-6.5,1.4-10,2.6
					v9.3c3.3-1.7,6.6-3,9.8-3.9c3.2-0.9,6.4-1.3,9.6-1.3c4.2,0,7.5,0.7,9.8,2.2c2.3,1.4,3.4,3.5,3.4,6.1c0,2.4-0.8,4.3-2.5,5.6
					c-1.6,1.3-5.2,2.6-10.8,3.8l-3.1,0.7c-5.6,1.2-9.6,3-12.1,5.4c-2.5,2.4-3.7,5.8-3.7,10c0,5.1,1.8,9.1,5.5,11.9
					c3.6,2.8,8.8,4.2,15.5,4.2c3.3,0,6.4-0.2,9.4-0.7C698.9,54.8,701.6,54.1,704.1,53.1z"/>
			</g>
		</g>
	</g>
	<g id="line2d_21">
		<path class="st26" d="M268.2,72.7h10h10"/>
	</g>
	<g id="text_19">
		<g transform="translate(296.2 76.194687) scale(0.1 -0.1)">
			<g>
				<path id="DejaVuSans-50_00000065068947755522934990000011348550698715540104_" d="M19.7,64.8V37.4h12.4c4.6,0,8.1,1.2,10.6,3.6
					c2.5,2.4,3.8,5.8,3.8,10.2c0,4.4-1.3,7.7-3.8,10.1c-2.5,2.4-6,3.6-10.6,3.6H19.7z M9.8,72.9h22.3c8.2,0,14.4-1.8,18.5-5.5
					c4.2-3.7,6.3-9.1,6.3-16.2c0-7.2-2.1-12.6-6.3-16.3c-4.2-3.7-10.4-5.5-18.5-5.5H19.7V0H9.8V72.9z"/>
			</g>
			<g>
				<path id="DejaVuSans-20_00000066503049923032820610000010655978049869295240_" d="M60.3,0"/>
			</g>
			<g>
				<path id="DejaVuSans-3d_00000079450091269812566480000007081049861587602335_" d="M102.7,45.4h62.6v-8.2h-62.6V45.4z
					 M102.7,25.5h62.6v-8.3h-62.6V25.5z"/>
			</g>
			<g>
				<path id="DejaVuSans-20_00000119086065791166560480000001210258104392742327_" d="M175.9,0"/>
			</g>
			<g>
				<path id="DejaVuSans-32_00000125572477783092917160000007349081150892715184_" d="M226.9,8.3h34.4V0H215v8.3
					c3.7,3.9,8.8,9.1,15.3,15.6c6.5,6.5,10.5,10.7,12.2,12.6c3.2,3.5,5.4,6.5,6.6,9c1.3,2.5,1.9,4.9,1.9,7.2c0,3.9-1.4,7-4.1,9.5
					c-2.7,2.4-6.3,3.7-10.6,3.7c-3.1,0-6.4-0.5-9.8-1.6c-3.4-1.1-7.1-2.7-11-4.9v10c4,1.6,7.7,2.8,11.1,3.6c3.5,0.8,6.6,1.2,9.5,1.2
					c7.6,0,13.6-1.9,18.1-5.7c4.5-3.8,6.7-8.8,6.7-15.1c0-3-0.6-5.8-1.7-8.5c-1.1-2.7-3.2-5.8-6.1-9.5c-0.8-0.9-3.4-3.7-7.8-8.2
					C241,22.7,234.8,16.4,226.9,8.3z"/>
			</g>
			<g>
				<path id="DejaVuSans-30_00000016791511071898537240000007329304008883283119_" d="M303.1,66.4c-5.1,0-8.9-2.5-11.5-7.5
					c-2.6-5-3.8-12.5-3.8-22.5c0-10,1.3-17.5,3.8-22.5c2.6-5,6.4-7.5,11.5-7.5c5.1,0,8.9,2.5,11.5,7.5c2.6,5,3.8,12.5,3.8,22.5
					c0,10-1.3,17.5-3.8,22.5C312,63.9,308.2,66.4,303.1,66.4z M303.1,74.2c8.2,0,14.4-3.2,18.7-9.7c4.3-6.5,6.5-15.8,6.5-28.1
					c0-12.3-2.2-21.6-6.5-28.1c-4.3-6.5-10.6-9.7-18.7-9.7c-8.2,0-14.4,3.2-18.7,9.7c-4.3,6.5-6.5,15.8-6.5,28.1
					c0,12.3,2.2,21.7,6.5,28.1C288.7,71,294.9,74.2,303.1,74.2z"/>
			</g>
			<g>
				<path id="DejaVuSans-30_00000049902837914068686340000015438236709722239407_" d="M366.7,66.4c-5.1,0-8.9-2.5-11.5-7.5
					c-2.6-5-3.8-12.5-3.8-22.5c0-10,1.3-17.5,3.8-22.5c2.6-5,6.4-7.5,11.5-7.5c5.1,0,8.9,2.5,11.5,7.5c2.6,5,3.8,12.5,3.8,22.5
					c0,10-1.3,17.5-3.8,22.5C375.6,63.9,371.8,66.4,366.7,66.4z M366.7,74.2c8.2,0,14.4-3.2,18.7-9.7c4.3-6.5,6.5-15.8,6.5-28.1
					c0-12.3-2.2-21.6-6.5-28.1c-4.3-6.5-10.6-9.7-18.7-9.7c-8.2,0-14.4,3.2-18.7,9.7c-4.3,6.5-6.5,15.8-6.5,28.1
					c0,12.3,2.2,21.7,6.5,28.1C352.3,71,358.5,74.2,366.7,74.2z"/>
			</g>
			<g>
				<path id="DejaVuSans-30_00000133526832945953798860000007869410453134629553_" d="M430.3,66.4c-5.1,0-8.9-2.5-11.5-7.5
					c-2.6-5-3.8-12.5-3.8-22.5c0-10,1.3-17.5,3.8-22.5c2.6-5,6.4-7.5,11.5-7.5c5.1,0,8.9,2.5,11.5,7.5c2.6,5,3.8,12.5,3.8,22.5
					c0,10-1.3,17.5-3.8,22.5C439.3,63.9,435.4,66.4,430.3,66.4z M430.3,74.2c8.2,0,14.4-3.2,18.7-9.7c4.3-6.5,6.5-15.8,6.5-28.1
					c0-12.3-2.2-21.6-6.5-28.1c-4.3-6.5-10.6-9.7-18.7-9.7c-8.2,0-14.4,3.2-18.7,9.7c-4.3,6.5-6.5,15.8-6.5,28.1
					c0,12.3,2.2,21.7,6.5,28.1C415.9,71,422.1,74.2,430.3,74.2z"/>
			</g>
			<g>
				<path id="DejaVuSans-20_00000125576402226242286510000015336333907844347808_" d="M462.2,0"/>
			</g>
			<g>
				<path id="DejaVuSans-62_00000123439022837606395780000015863162234926559376_" d="M542.6,27.3c0,6.6-1.4,11.8-4.1,15.5
					s-6.5,5.6-11.2,5.6c-4.8,0-8.5-1.9-11.2-5.6s-4.1-8.9-4.1-15.5s1.4-11.8,4.1-15.5s6.5-5.6,11.2-5.6c4.8,0,8.5,1.9,11.2,5.6
					S542.6,20.7,542.6,27.3z M512.1,46.4c1.9,3.2,4.3,5.7,7.2,7.2c2.9,1.6,6.3,2.4,10.3,2.4c6.6,0,12-2.6,16.2-7.9
					c4.2-5.3,6.2-12.2,6.2-20.8s-2.1-15.5-6.2-20.8c-4.1-5.3-9.5-7.9-16.2-7.9c-4,0-7.4,0.8-10.3,2.4c-2.9,1.6-5.3,4-7.2,7.2V0h-9
					v76h9V46.4z"/>
			</g>
			<g>
				<path id="DejaVuSans-61_00000044172589283123756970000001579766076902834869_" d="M591.7,27.5c-7.3,0-12.3-0.8-15.1-2.5
					c-2.8-1.7-4.2-4.5-4.2-8.5c0-3.2,1.1-5.7,3.2-7.6c2.1-1.9,5-2.8,8.6-2.8c5,0,9,1.8,12,5.3s4.5,8.2,4.5,14.1v2H591.7z
					 M609.6,31.2V0h-9v8.3C598.6,5,596,2.5,593,1s-6.8-2.4-11.2-2.4c-5.6,0-10,1.6-13.4,4.7c-3.3,3.1-5,7.4-5,12.6
					c0,6.1,2.1,10.8,6.2,13.9c4.1,3.1,10.3,4.7,18.4,4.7h12.6v0.9c0,4.1-1.4,7.3-4.1,9.6s-6.5,3.4-11.5,3.4c-3.1,0-6.2-0.4-9.1-1.1
					c-3-0.8-5.8-1.9-8.5-3.4v8.3c3.3,1.3,6.5,2.2,9.6,2.8c3.1,0.6,6.1,1,9,1c7.9,0,13.8-2.1,17.7-6.2
					C607.7,45.8,609.6,39.5,609.6,31.2z"/>
			</g>
			<g>
				<path id="DejaVuSans-72_00000002383816789920962890000002029494551176638610_" d="M659.8,46.3c-1,0.6-2.1,1-3.3,1.3
					c-1.2,0.3-2.5,0.4-3.9,0.4c-5.1,0-9-1.7-11.7-5s-4.1-8-4.1-14.2V0h-9v54.7h9v-8.5c1.9,3.3,4.4,5.8,7.4,7.4c3,1.6,6.7,2.4,11,2.4
					c0.6,0,1.3,0,2-0.1c0.8-0.1,1.6-0.2,2.5-0.4L659.8,46.3z"/>
			</g>
			<g>
				<path id="DejaVuSans-73_00000177448128961568449730000015719402625443616152_" d="M704.1,53.1v-8.5c-2.5,1.3-5.2,2.3-7.9,2.9
					c-2.7,0.7-5.6,1-8.5,1c-4.5,0-7.8-0.7-10-2c-2.2-1.4-3.3-3.4-3.3-6.2c0-2.1,0.8-3.7,2.4-4.9s4.8-2.3,9.6-3.4l3.1-0.7
					c6.4-1.4,10.9-3.3,13.6-5.8s4-6,4-10.4c0-5.1-2-9.1-6-12.1c-4-3-9.5-4.4-16.6-4.4c-2.9,0-6,0.3-9.2,0.9c-3.2,0.6-6.5,1.4-10,2.6
					v9.3c3.3-1.7,6.6-3,9.8-3.9c3.2-0.9,6.4-1.3,9.6-1.3c4.2,0,7.5,0.7,9.8,2.2c2.3,1.4,3.4,3.5,3.4,6.1c0,2.4-0.8,4.3-2.5,5.6
					c-1.6,1.3-5.2,2.6-10.8,3.8l-3.1,0.7c-5.6,1.2-9.6,3-12.1,5.4c-2.5,2.4-3.7,5.8-3.7,10c0,5.1,1.8,9.1,5.5,11.9
					c3.6,2.8,8.8,4.2,15.5,4.2c3.3,0,6.4-0.2,9.4-0.7C698.9,54.8,701.6,54.1,704.1,53.1z"/>
			</g>
		</g>
	</g>
	<g id="line2d_22">
		<path class="st27" d="M268.2,87.4h10h10"/>
	</g>
	<g id="text_20">
		<g transform="translate(296.2 90.872813) scale(0.1 -0.1)">
			<g>
				<path id="DejaVuSans-50_00000077297995561679007300000009619830374882626727_" d="M19.7,64.8V37.4h12.4c4.6,0,8.1,1.2,10.6,3.6
					c2.5,2.4,3.8,5.8,3.8,10.2c0,4.4-1.3,7.7-3.8,10.1c-2.5,2.4-6,3.6-10.6,3.6H19.7z M9.8,72.9h22.3c8.2,0,14.4-1.8,18.5-5.5
					c4.2-3.7,6.3-9.1,6.3-16.2c0-7.2-2.1-12.6-6.3-16.3c-4.2-3.7-10.4-5.5-18.5-5.5H19.7V0H9.8V72.9z"/>
			</g>
			<g>
				<path id="DejaVuSans-20_00000043421106206261286200000016181892377596408207_" d="M60.3,0"/>
			</g>
			<g>
				<path id="DejaVuSans-3d_00000182523467274699649680000007840877677324329618_" d="M102.7,45.4h62.6v-8.2h-62.6V45.4z
					 M102.7,25.5h62.6v-8.3h-62.6V25.5z"/>
			</g>
			<g>
				<path id="DejaVuSans-20_00000161590769314370024540000006785630643727656876_" d="M175.9,0"/>
			</g>
			<g>
				<path id="DejaVuSans-34_00000066509652503322298880000014311543403876280250_" d="M245.5,64.3l-24.9-38.9h24.9V64.3z
					 M242.9,72.9h12.4V25.4h10.4v-8.2h-10.4V0h-9.8v17.2h-32.9v9.5L242.9,72.9z"/>
			</g>
			<g>
				<path id="DejaVuSans-30_00000034082474483157846130000001693311290719622294_" d="M303.1,66.4c-5.1,0-8.9-2.5-11.5-7.5
					c-2.6-5-3.8-12.5-3.8-22.5c0-10,1.3-17.5,3.8-22.5c2.6-5,6.4-7.5,11.5-7.5c5.1,0,8.9,2.5,11.5,7.5c2.6,5,3.8,12.5,3.8,22.5
					c0,10-1.3,17.5-3.8,22.5C312,63.9,308.2,66.4,303.1,66.4z M303.1,74.2c8.2,0,14.4-3.2,18.7-9.7c4.3-6.5,6.5-15.8,6.5-28.1
					c0-12.3-2.2-21.6-6.5-28.1c-4.3-6.5-10.6-9.7-18.7-9.7c-8.2,0-14.4,3.2-18.7,9.7c-4.3,6.5-6.5,15.8-6.5,28.1
					c0,12.3,2.2,21.7,6.5,28.1C288.7,71,294.9,74.2,303.1,74.2z"/>
			</g>
			<g>
				<path id="DejaVuSans-30_00000117646028262810725850000006725673635746169233_" d="M366.7,66.4c-5.1,0-8.9-2.5-11.5-7.5
					c-2.6-5-3.8-12.5-3.8-22.5c0-10,1.3-17.5,3.8-22.5c2.6-5,6.4-7.5,11.5-7.5c5.1,0,8.9,2.5,11.5,7.5c2.6,5,3.8,12.5,3.8,22.5
					c0,10-1.3,17.5-3.8,22.5C375.6,63.9,371.8,66.4,366.7,66.4z M366.7,74.2c8.2,0,14.4-3.2,18.7-9.7c4.3-6.5,6.5-15.8,6.5-28.1
					c0-12.3-2.2-21.6-6.5-28.1c-4.3-6.5-10.6-9.7-18.7-9.7c-8.2,0-14.4,3.2-18.7,9.7c-4.3,6.5-6.5,15.8-6.5,28.1
					c0,12.3,2.2,21.7,6.5,28.1C352.3,71,358.5,74.2,366.7,74.2z"/>
			</g>
			<g>
				<path id="DejaVuSans-30_00000174586552545801346020000009855141933579274888_" d="M430.3,66.4c-5.1,0-8.9-2.5-11.5-7.5
					c-2.6-5-3.8-12.5-3.8-22.5c0-10,1.3-17.5,3.8-22.5c2.6-5,6.4-7.5,11.5-7.5c5.1,0,8.9,2.5,11.5,7.5c2.6,5,3.8,12.5,3.8,22.5
					c0,10-1.3,17.5-3.8,22.5C439.3,63.9,435.4,66.4,430.3,66.4z M430.3,74.2c8.2,0,14.4-3.2,18.7-9.7c4.3-6.5,6.5-15.8,6.5-28.1
					c0-12.3-2.2-21.6-6.5-28.1c-4.3-6.5-10.6-9.7-18.7-9.7c-8.2,0-14.4,3.2-18.7,9.7c-4.3,6.5-6.5,15.8-6.5,28.1
					c0,12.3,2.2,21.7,6.5,28.1C415.9,71,422.1,74.2,430.3,74.2z"/>
			</g>
			<g>
				<path id="DejaVuSans-20_00000069368667560649289030000010061838265878041508_" d="M462.2,0"/>
			</g>
			<g>
				<path id="DejaVuSans-62_00000126288248588853106830000018075712275687792548_" d="M542.6,27.3c0,6.6-1.4,11.8-4.1,15.5
					s-6.5,5.6-11.2,5.6c-4.8,0-8.5-1.9-11.2-5.6s-4.1-8.9-4.1-15.5s1.4-11.8,4.1-15.5s6.5-5.6,11.2-5.6c4.8,0,8.5,1.9,11.2,5.6
					S542.6,20.7,542.6,27.3z M512.1,46.4c1.9,3.2,4.3,5.7,7.2,7.2c2.9,1.6,6.3,2.4,10.3,2.4c6.6,0,12-2.6,16.2-7.9
					c4.2-5.3,6.2-12.2,6.2-20.8s-2.1-15.5-6.2-20.8c-4.1-5.3-9.5-7.9-16.2-7.9c-4,0-7.4,0.8-10.3,2.4c-2.9,1.6-5.3,4-7.2,7.2V0h-9
					v76h9V46.4z"/>
			</g>
			<g>
				<path id="DejaVuSans-61_00000093866484017538673550000011218786554698993038_" d="M591.7,27.5c-7.3,0-12.3-0.8-15.1-2.5
					c-2.8-1.7-4.2-4.5-4.2-8.5c0-3.2,1.1-5.7,3.2-7.6c2.1-1.9,5-2.8,8.6-2.8c5,0,9,1.8,12,5.3s4.5,8.2,4.5,14.1v2H591.7z
					 M609.6,31.2V0h-9v8.3C598.6,5,596,2.5,593,1s-6.8-2.4-11.2-2.4c-5.6,0-10,1.6-13.4,4.7c-3.3,3.1-5,7.4-5,12.6
					c0,6.1,2.1,10.8,6.2,13.9c4.1,3.1,10.3,4.7,18.4,4.7h12.6v0.9c0,4.1-1.4,7.3-4.1,9.6s-6.5,3.4-11.5,3.4c-3.1,0-6.2-0.4-9.1-1.1
					c-3-0.8-5.8-1.9-8.5-3.4v8.3c3.3,1.3,6.5,2.2,9.6,2.8c3.1,0.6,6.1,1,9,1c7.9,0,13.8-2.1,17.7-6.2
					C607.7,45.7,609.6,39.5,609.6,31.2z"/>
			</g>
			<g>
				<path id="DejaVuSans-72_00000103246130658742850720000002902925135459208356_" d="M659.8,46.3c-1,0.6-2.1,1-3.3,1.3
					c-1.2,0.3-2.5,0.4-3.9,0.4c-5.1,0-9-1.7-11.7-5s-4.1-8-4.1-14.2V0h-9v54.7h9v-8.5c1.9,3.3,4.4,5.8,7.4,7.4c3,1.6,6.7,2.4,11,2.4
					c0.6,0,1.3,0,2-0.1c0.8-0.1,1.6-0.2,2.5-0.4L659.8,46.3z"/>
			</g>
			<g>
				<path id="DejaVuSans-73_00000083080148877722859720000010261222698449835919_" d="M704.1,53.1v-8.5c-2.5,1.3-5.2,2.3-7.9,2.9
					c-2.7,0.7-5.6,1-8.5,1c-4.5,0-7.8-0.7-10-2c-2.2-1.4-3.3-3.4-3.3-6.2c0-2.1,0.8-3.7,2.4-4.9s4.8-2.3,9.6-3.4l3.1-0.7
					c6.4-1.4,10.9-3.3,13.6-5.8s4-6,4-10.4c0-5.1-2-9.1-6-12.1c-4-3-9.5-4.4-16.6-4.4c-2.9,0-6,0.3-9.2,0.9c-3.2,0.6-6.5,1.4-10,2.6
					v9.3c3.3-1.7,6.6-3,9.8-3.9c3.2-0.9,6.4-1.3,9.6-1.3c4.2,0,7.5,0.7,9.8,2.2c2.3,1.4,3.4,3.5,3.4,6.1c0,2.4-0.8,4.3-2.5,5.6
					c-1.6,1.3-5.2,2.6-10.8,3.8l-3.1,0.7c-5.6,1.2-9.6,3-12.1,5.4c-2.5,2.4-3.7,5.8-3.7,10c0,5.1,1.8,9.1,5.5,11.9
					c3.6,2.8,8.8,4.2,15.5,4.2c3.3,0,6.4-0.2,9.4-0.7C698.9,54.8,701.6,54.1,704.1,53.1z"/>
			</g>
		</g>
	</g>
</g>
</svg>
