<?xml version="1.0" encoding="utf-8"?>
<!-- Generator: Adobe Illustrator 27.9.0, SVG Export Plug-In . SVG Version: 6.00 Build 0)  -->
<svg version="1.1" id="Layer_1" xmlns="http://www.w3.org/2000/svg" xmlns:xlink="http://www.w3.org/1999/xlink" x="0px" y="0px"
	 viewBox="0 0 288 252" style="enable-background:new 0 0 288 252;" xml:space="preserve">
<style type="text/css">
	.st0{stroke:#000000;stroke-width:0.8;stroke-linejoin:round;}
	
		.st1{clip-path:url(#SVGID_00000166672401769603423640000000693595397388267950_);fill:none;stroke:#0000FF;stroke-width:2;stroke-linecap:square;stroke-linejoin:round;}
	
		.st2{clip-path:url(#SVGID_00000049223773771096093410000012500807379706794414_);fill:none;stroke:#BF00BF;stroke-width:2;stroke-linejoin:round;stroke-dasharray:7.4,3.2;}
	
		.st3{clip-path:url(#SVGID_00000148631889998551649790000004443595635846323105_);fill:none;stroke:#FF0000;stroke-width:2;stroke-linejoin:round;stroke-dasharray:12.8,3.2,2,3.2;}
	
		.st4{clip-path:url(#SVGID_00000146494419283174420070000001358880184148997055_);fill:none;stroke:#BFBF00;stroke-width:2;stroke-linejoin:round;stroke-dasharray:2,3.3;}
	.st5{fill:none;stroke:#000000;stroke-width:0.8;stroke-linecap:square;}
</style>
<g id="matplotlib.axis_1">
	<g id="xtick_1">
		<g id="line2d_1">
			<g>
				<g>
					<path id="ma08c42f3bf" class="st0" d="M65.4,224.3v3.5"/>
				</g>
			</g>
		</g>
		<g id="text_1">
			<g transform="translate(62.183131 238.878438) scale(0.1 -0.1)">
				<g>
					<path id="DejaVuSans-32" d="M19.2,8.3h34.4V0H7.3v8.3c3.7,3.9,8.8,9.1,15.3,15.6c6.5,6.5,10.5,10.7,12.2,12.6
						c3.2,3.5,5.4,6.5,6.6,9c1.3,2.5,1.9,4.9,1.9,7.2c0,3.9-1.4,7-4.1,9.5c-2.7,2.4-6.3,3.7-10.6,3.7c-3.1,0-6.4-0.5-9.8-1.6
						c-3.4-1.1-7.1-2.7-11-4.9v10c4,1.6,7.7,2.8,11.1,3.6c3.5,0.8,6.6,1.2,9.5,1.2c7.6,0,13.6-1.9,18.1-5.7
						c4.5-3.8,6.7-8.8,6.7-15.1c0-3-0.6-5.8-1.7-8.5c-1.1-2.7-3.2-5.8-6.1-9.5c-0.8-0.9-3.4-3.7-7.8-8.2
						C33.3,22.7,27.1,16.4,19.2,8.3z"/>
				</g>
			</g>
		</g>
	</g>
	<g id="xtick_2">
		<g id="line2d_2">
			<g>
				<g>
					<path id="ma08c42f3bf_00000177468149657129613790000000313738900029706431_" class="st0" d="M115.7,224.3v3.5"/>
				</g>
			</g>
		</g>
		<g id="text_2">
			<g transform="translate(112.50931 238.878438) scale(0.1 -0.1)">
				<g>
					<path id="DejaVuSans-34" d="M37.8,64.3L12.9,25.4h24.9V64.3z M35.2,72.9h12.4V25.4H58v-8.2H47.6V0h-9.8v17.2H4.9v9.5L35.2,72.9
						z"/>
				</g>
			</g>
		</g>
	</g>
	<g id="xtick_3">
		<g id="line2d_3">
			<g>
				<g>
					<path id="ma08c42f3bf_00000015339945908312077680000014370879283086483644_" class="st0" d="M166,224.3v3.5"/>
				</g>
			</g>
		</g>
		<g id="text_3">
			<g transform="translate(162.83549 238.878438) scale(0.1 -0.1)">
				<g>
					<path id="DejaVuSans-36" d="M33,40.4c-4.4,0-7.9-1.5-10.5-4.5c-2.6-3-3.9-7.2-3.9-12.4c0-5.2,1.3-9.4,3.9-12.4
						c2.6-3,6.1-4.6,10.5-4.6s7.9,1.5,10.5,4.6c2.6,3.1,3.9,7.2,3.9,12.4c0,5.3-1.3,9.4-3.9,12.4C40.9,38.9,37.4,40.4,33,40.4z
						 M52.6,71.3v-9c-2.5,1.2-5,2.1-7.5,2.7c-2.5,0.6-5,0.9-7.5,0.9c-6.5,0-11.5-2.2-14.9-6.6c-3.4-4.4-5.4-11-5.9-19.9
						c1.9,2.8,4.3,5,7.2,6.5c2.9,1.5,6.1,2.3,9.6,2.3c7.3,0,13.1-2.2,17.4-6.7c4.2-4.4,6.4-10.5,6.4-18.1c0-7.5-2.2-13.5-6.6-18
						C46.3,0.8,40.4-1.4,33-1.4c-8.4,0-14.9,3.2-19.3,9.7C9.2,14.7,7,24.1,7,36.4c0,11.5,2.7,20.7,8.2,27.6s12.8,10.3,22,10.3
						c2.5,0,5-0.2,7.5-0.7S49.9,72.3,52.6,71.3z"/>
				</g>
			</g>
		</g>
	</g>
	<g id="xtick_4">
		<g id="line2d_4">
			<g>
				<g>
					<path id="ma08c42f3bf_00000101087341787594082220000015342625319487984776_" class="st0" d="M216.3,224.3v3.5"/>
				</g>
			</g>
		</g>
		<g id="text_4">
			<g transform="translate(213.161669 238.878438) scale(0.1 -0.1)">
				<g>
					<path id="DejaVuSans-38" d="M31.8,34.6c-4.7,0-8.4-1.3-11.1-3.8c-2.7-2.5-4-6-4-10.3c0-4.4,1.3-7.8,4-10.4
						c2.7-2.5,6.4-3.8,11.1-3.8s8.4,1.3,11.1,3.8c2.7,2.5,4.1,6,4.1,10.3c0,4.4-1.3,7.8-4,10.3C40.2,33.4,36.5,34.6,31.8,34.6z
						 M21.9,38.8c-4.2,1-7.5,3-9.9,5.9c-2.4,2.9-3.5,6.4-3.5,10.6c0,5.8,2.1,10.4,6.2,13.8c4.2,3.4,9.8,5.1,17.1,5.1
						c7.3,0,13-1.7,17.1-5.1s6.2-8,6.2-13.8c0-4.2-1.2-7.7-3.5-10.6c-2.4-2.9-5.6-4.9-9.8-5.9c4.8-1.1,8.4-3.3,11.1-6.5
						c2.7-3.2,4-7.2,4-11.8c0-7.1-2.2-12.5-6.5-16.3C46,0.5,39.8-1.4,31.8-1.4c-8,0-14.2,1.9-18.5,5.7C8.9,8,6.8,13.4,6.8,20.5
						c0,4.6,1.3,8.6,4,11.8C13.5,35.5,17.2,37.7,21.9,38.8z M18.3,54.4c0-3.8,1.2-6.7,3.5-8.8c2.4-2.1,5.7-3.2,9.9-3.2
						c4.2,0,7.6,1.1,9.9,3.2c2.4,2.1,3.6,5.1,3.6,8.8c0,3.8-1.2,6.7-3.6,8.8c-2.4,2.1-5.7,3.2-9.9,3.2c-4.3,0-7.6-1.1-9.9-3.2
						C19.5,61.1,18.3,58.2,18.3,54.4z"/>
				</g>
			</g>
		</g>
	</g>
	<g id="text_5">
		<g transform="translate(99.3 254.051875) scale(0.12 -0.12)">
			<g transform="translate(0 0.78125)">
				<path id="DejaVuSans-54" d="M-0.3,73.7h61.7v-8.3H35.5V0.8h-9.9v64.6H-0.3V73.7z"/>
			</g>
			<g transform="translate(61.083984 0.78125)">
				<path id="DejaVuSans-65" d="M117.3,30.4V26H76c0.4-6.2,2.3-10.9,5.6-14.1S89.5,7,95.5,7c3.4,0,6.8,0.4,10,1.3
					c3.2,0.8,6.5,2.1,9.7,3.8V3.6c-3.2-1.4-6.5-2.4-9.9-3.1c-3.4-0.7-6.8-1.1-10.3-1.1c-8.7,0-15.6,2.5-20.7,7.6
					c-5.1,5.1-7.6,12-7.6,20.6c0,8.9,2.4,16,7.2,21.3c4.8,5.3,11.4,7.9,19.6,7.9c7.4,0,13.2-2.4,17.5-7.1
					C115.1,44.9,117.3,38.5,117.3,30.4z M108.3,33c-0.1,4.9-1.4,8.8-4.1,11.8c-2.7,2.9-6.2,4.4-10.7,4.4c-5,0-9-1.4-12-4.2
					s-4.7-6.8-5.2-12L108.3,33z"/>
			</g>
			<g transform="translate(122.607422 0.78125)">
				<path id="DejaVuSans-6d" d="M174.6,45c2.2,4,4.9,7,8.1,8.9s6.8,2.9,11,2.9c5.7,0,10.1-2,13.2-6c3.1-4,4.6-9.6,4.6-17v-33h-9
					v32.7c0,5.2-0.9,9.1-2.8,11.7c-1.9,2.5-4.7,3.8-8.5,3.8c-4.7,0-8.3-1.5-11-4.6c-2.7-3.1-4-7.3-4-12.6V0.8h-9v32.7
					c0,5.3-0.9,9.2-2.8,11.7s-4.7,3.8-8.6,3.8c-4.6,0-8.2-1.6-11-4.7c-2.7-3.1-4-7.3-4-12.6V0.8h-9v54.7h9V47
					c2.1,3.4,4.5,5.8,7.4,7.4c2.9,1.6,6.3,2.4,10.2,2.4c4,0,7.4-1,10.1-3C171.2,51.7,173.3,48.8,174.6,45z"/>
			</g>
			<g transform="translate(220.019531 0.78125)">
				<path id="DejaVuSans-70" d="M238.1,9v-29h-9v75.5h9v-8.3c1.9,3.2,4.3,5.7,7.2,7.2c2.9,1.6,6.3,2.4,10.3,2.4
					c6.6,0,12-2.6,16.2-7.9c4.2-5.3,6.2-12.2,6.2-20.8s-2.1-15.5-6.2-20.8c-4.1-5.3-9.5-7.9-16.2-7.9c-4,0-7.4,0.8-10.3,2.4
					C242.4,3.3,240,5.7,238.1,9z M268.7,28.1c0,6.6-1.4,11.8-4.1,15.5s-6.5,5.6-11.2,5.6c-4.8,0-8.5-1.9-11.2-5.6s-4.1-8.9-4.1-15.5
					s1.4-11.8,4.1-15.5s6.5-5.6,11.2-5.6c4.8,0,8.5,1.9,11.2,5.6S268.7,21.5,268.7,28.1z"/>
			</g>
			<g transform="translate(283.496094 0.78125)">
				<path id="DejaVuSans-65_00000165235851931002938080000013785832476343651746_" d="M339.7,30.4V26h-41.3
					c0.4-6.2,2.3-10.9,5.6-14.1c3.3-3.2,8-4.9,13.9-4.9c3.4,0,6.8,0.4,10,1.3c3.2,0.8,6.5,2.1,9.7,3.8V3.6c-3.2-1.4-6.5-2.4-9.9-3.1
					c-3.4-0.7-6.8-1.1-10.3-1.1c-8.7,0-15.6,2.5-20.7,7.6c-5.1,5.1-7.6,12-7.6,20.6c0,8.9,2.4,16,7.2,21.3
					c4.8,5.3,11.4,7.9,19.6,7.9c7.4,0,13.2-2.4,17.5-7.1C337.6,44.9,339.7,38.5,339.7,30.4z M330.7,33c-0.1,4.9-1.4,8.8-4.1,11.8
					c-2.7,2.9-6.2,4.4-10.7,4.4c-5,0-9-1.4-12-4.2c-3-2.8-4.7-6.8-5.2-12L330.7,33z"/>
			</g>
			<g transform="translate(345.019531 0.78125)">
				<path id="DejaVuSans-72" d="M386.1,47.1c-1,0.6-2.1,1-3.3,1.3c-1.2,0.3-2.5,0.4-3.9,0.4c-5.1,0-9-1.7-11.7-5s-4.1-8-4.1-14.2
					V0.8h-9v54.7h9V47c1.9,3.3,4.4,5.8,7.4,7.4c3,1.6,6.7,2.4,11,2.4c0.6,0,1.3,0,2-0.1c0.8-0.1,1.6-0.2,2.5-0.4L386.1,47.1z"/>
			</g>
			<g transform="translate(386.132812 0.78125)">
				<path id="DejaVuSans-61" d="M420.4,28.3c-7.3,0-12.3-0.8-15.1-2.5c-2.8-1.7-4.2-4.5-4.2-8.5c0-3.2,1.1-5.7,3.2-7.6
					c2.1-1.9,5-2.8,8.6-2.8c5,0,9,1.8,12,5.3c3,3.5,4.5,8.2,4.5,14.1v2H420.4z M438.3,32V0.8h-9v8.3c-2.1-3.3-4.6-5.8-7.7-7.3
					s-6.8-2.4-11.2-2.4c-5.6,0-10,1.6-13.4,4.7c-3.3,3.1-5,7.4-5,12.6c0,6.1,2.1,10.8,6.2,13.9c4.1,3.1,10.3,4.7,18.4,4.7h12.6v0.9
					c0,4.1-1.4,7.3-4.1,9.6s-6.5,3.4-11.5,3.4c-3.1,0-6.2-0.4-9.1-1.1c-3-0.8-5.8-1.9-8.5-3.4V53c3.3,1.3,6.5,2.2,9.6,2.8
					c3.1,0.6,6.1,1,9,1c7.9,0,13.8-2.1,17.7-6.2C436.4,46.5,438.3,40.3,438.3,32z"/>
			</g>
			<g transform="translate(447.412109 0.78125)">
				<path id="DejaVuSans-74" d="M465.7,71V55.5h18.5v-7h-18.5V18.8c0-4.5,0.6-7.3,1.8-8.6s3.7-1.9,7.5-1.9h9.2V0.8H475
					c-6.9,0-11.7,1.3-14.4,3.9c-2.6,2.6-4,7.3-4,14.1v29.7h-6.6v7h6.6V71H465.7z"/>
			</g>
			<g transform="translate(486.621094 0.78125)">
				<path id="DejaVuSans-75" d="M495.1,22.4v33.1h9V22.7c0-5.2,1-9.1,3-11.7c2-2.6,5.1-3.9,9.1-3.9c4.8,0,8.7,1.5,11.5,4.6
					c2.8,3.1,4.2,7.3,4.2,12.7v31h9V0.8h-9v8.4c-2.2-3.3-4.7-5.8-7.6-7.4c-2.9-1.6-6.2-2.4-10-2.4c-6.3,0-11.1,2-14.3,5.9
					C496.7,9.1,495.1,14.8,495.1,22.4z M517.7,56.8L517.7,56.8z"/>
			</g>
			<g transform="translate(550 0.78125)">
				<path id="DejaVuSans-72_00000031170788495508911610000011936654061764813456_" d="M591.1,47.1c-1,0.6-2.1,1-3.3,1.3
					c-1.2,0.3-2.5,0.4-3.9,0.4c-5.1,0-9-1.7-11.7-5s-4.1-8-4.1-14.2V0.8h-9v54.7h9V47c1.9,3.3,4.4,5.8,7.4,7.4c3,1.6,6.7,2.4,11,2.4
					c0.6,0,1.3,0,2-0.1c0.8-0.1,1.6-0.2,2.5-0.4L591.1,47.1z"/>
			</g>
			<g transform="translate(591.113281 0.78125)">
				<path id="DejaVuSans-65_00000016052003641848685680000002273038229232650128_" d="M647.3,30.4V26H606c0.4-6.2,2.3-10.9,5.6-14.1
					c3.3-3.2,8-4.9,13.9-4.9c3.4,0,6.8,0.4,10,1.3c3.2,0.8,6.5,2.1,9.7,3.8V3.6c-3.2-1.4-6.5-2.4-9.9-3.1c-3.4-0.7-6.8-1.1-10.3-1.1
					c-8.7,0-15.6,2.5-20.7,7.6c-5.1,5.1-7.6,12-7.6,20.6c0,8.9,2.4,16,7.2,21.3c4.8,5.3,11.4,7.9,19.6,7.9c7.4,0,13.2-2.4,17.5-7.1
					C645.2,44.9,647.3,38.5,647.3,30.4z M638.3,33c-0.1,4.9-1.4,8.8-4.1,11.8c-2.7,2.9-6.2,4.4-10.7,4.4c-5,0-9-1.4-12-4.2
					c-3-2.8-4.7-6.8-5.2-12L638.3,33z"/>
			</g>
			<g transform="translate(652.636719 0.78125)">
				<path id="DejaVuSans-20" d="M652.6,0.8"/>
			</g>
			<g transform="translate(684.423828 0.78125)">
				<path id="DejaVuSans-b0" d="M709.4,68.7c-2.6,0-4.8-0.9-6.6-2.7c-1.8-1.8-2.7-4-2.7-6.6c0-2.6,0.9-4.7,2.7-6.5
					c1.8-1.8,4-2.7,6.6-2.7c2.6,0,4.8,0.9,6.6,2.7c1.8,1.8,2.7,3.9,2.7,6.5s-0.9,4.8-2.7,6.6C714.2,67.8,712,68.7,709.4,68.7z
					 M709.4,75c2.1,0,4.1-0.4,6-1.2c1.9-0.8,3.6-1.9,5-3.4c1.5-1.5,2.6-3.1,3.4-5c0.8-1.9,1.1-3.9,1.1-6c0-4.3-1.5-7.9-4.5-10.9
					c-3-3-6.7-4.5-11.1-4.5c-4.4,0-8.1,1.5-11,4.4c-2.9,2.9-4.4,6.6-4.4,11c0,4.4,1.5,8.1,4.5,11.1C701.4,73.5,705.1,75,709.4,75z"
					/>
			</g>
			<g transform="translate(734.423828 0.78125)">
				<path id="DejaVuSans-43" d="M798.8,68.1V57.7c-3.3,3.1-6.9,5.4-10.6,6.9c-3.8,1.5-7.8,2.3-12,2.3c-8.3,0-14.7-2.5-19.1-7.6
					c-4.4-5.1-6.6-12.5-6.6-22.1c0-9.6,2.2-17,6.6-22c4.4-5.1,10.8-7.6,19.1-7.6c4.2,0,8.2,0.8,12,2.3c3.8,1.5,7.3,3.8,10.6,6.9V6.4
					c-3.4-2.3-7.1-4.1-11-5.3c-3.9-1.2-7.9-1.8-12.2-1.8c-11,0-19.7,3.4-26.1,10.1c-6.3,6.8-9.5,16-9.5,27.7c0,11.7,3.2,21,9.5,27.7
					c6.4,6.8,15.1,10.1,26.1,10.1c4.4,0,8.5-0.6,12.3-1.7C791.8,72.1,795.4,70.4,798.8,68.1z"/>
			</g>
		</g>
	</g>
</g>
<g id="matplotlib.axis_2">
	<g id="ytick_1">
		<g id="line2d_5">
			<g>
				<g>
					<path id="m4f102d4b03" class="st0" d="M36,223.2h-3.5"/>
				</g>
			</g>
		</g>
		<g id="text_6">
			<g transform="translate(9.9125 227.030649) scale(0.1 -0.1)">
				<g>
					<path id="DejaVuSans-32_00000013164981701195560110000002023610705196217790_" d="M19.2,8.3h34.4V0H7.3v8.3
						c3.7,3.9,8.8,9.1,15.3,15.6c6.5,6.5,10.5,10.7,12.2,12.6c3.2,3.5,5.4,6.5,6.6,9c1.3,2.5,1.9,4.9,1.9,7.2c0,3.9-1.4,7-4.1,9.5
						c-2.7,2.4-6.3,3.7-10.6,3.7c-3.1,0-6.4-0.5-9.8-1.6c-3.4-1.1-7.1-2.7-11-4.9v10c4,1.6,7.7,2.8,11.1,3.6
						c3.5,0.8,6.6,1.2,9.5,1.2c7.6,0,13.6-1.9,18.1-5.7c4.5-3.8,6.7-8.8,6.7-15.1c0-3-0.6-5.8-1.7-8.5c-1.1-2.7-3.2-5.8-6.1-9.5
						c-0.8-0.9-3.4-3.7-7.8-8.2C33.3,22.7,27.1,16.4,19.2,8.3z"/>
				</g>
				<g>
					<path id="DejaVuSans-30" d="M95.4,66.4c-5.1,0-8.9-2.5-11.5-7.5c-2.6-5-3.8-12.5-3.8-22.5c0-10,1.3-17.5,3.8-22.5
						c2.6-5,6.4-7.5,11.5-7.5c5.1,0,8.9,2.5,11.5,7.5c2.6,5,3.8,12.5,3.8,22.5c0,10-1.3,17.5-3.8,22.5
						C104.4,63.9,100.5,66.4,95.4,66.4z M95.4,74.2c8.2,0,14.4-3.2,18.7-9.7c4.3-6.5,6.5-15.8,6.5-28.1c0-12.3-2.2-21.6-6.5-28.1
						c-4.3-6.5-10.6-9.7-18.7-9.7c-8.2,0-14.4,3.2-18.7,9.7c-4.3,6.5-6.5,15.8-6.5,28.1c0,12.3,2.2,21.7,6.5,28.1
						C81,71,87.2,74.2,95.4,74.2z"/>
				</g>
				<g>
					<path id="DejaVuSans-30_00000007400594409308634120000000618411542987294350_" d="M159,66.4c-5.1,0-8.9-2.5-11.5-7.5
						c-2.6-5-3.8-12.5-3.8-22.5c0-10,1.3-17.5,3.8-22.5c2.6-5,6.4-7.5,11.5-7.5c5.1,0,8.9,2.5,11.5,7.5c2.6,5,3.8,12.5,3.8,22.5
						c0,10-1.3,17.5-3.8,22.5C168,63.9,164.1,66.4,159,66.4z M159,74.2c8.2,0,14.4-3.2,18.7-9.7c4.3-6.5,6.5-15.8,6.5-28.1
						c0-12.3-2.2-21.6-6.5-28.1c-4.3-6.5-10.6-9.7-18.7-9.7c-8.2,0-14.4,3.2-18.7,9.7c-4.3,6.5-6.5,15.8-6.5,28.1
						c0,12.3,2.2,21.7,6.5,28.1C144.6,71,150.9,74.2,159,74.2z"/>
				</g>
			</g>
		</g>
	</g>
	<g id="ytick_2">
		<g id="line2d_6">
			<g>
				<g>
					<path id="m4f102d4b03_00000098186784720484778920000018006897832634451123_" class="st0" d="M36,200.3h-3.5"/>
				</g>
			</g>
		</g>
		<g id="text_7">
			<g transform="translate(9.9125 204.101102) scale(0.1 -0.1)">
				<g>
					<path id="DejaVuSans-33" d="M40.6,39.3c4.7-1,8.4-3.1,11-6.3c2.7-3.2,4-7.1,4-11.8c0-7.2-2.5-12.8-7.4-16.7
						c-4.9-3.9-12-5.9-21.1-5.9c-3.1,0-6.2,0.3-9.4,0.9S11.1,1,7.6,2.2v9.5c2.7-1.6,5.7-2.8,9-3.6c3.3-0.8,6.7-1.2,10.2-1.2
						c6.2,0,10.9,1.2,14.1,3.7s4.9,6,4.9,10.6c0,4.3-1.5,7.7-4.5,10.1c-3,2.4-7.2,3.6-12.6,3.6h-8.5V43h8.9c4.8,0,8.6,1,11.1,2.9
						s3.9,4.7,3.9,8.4c0,3.7-1.3,6.6-4,8.6c-2.6,2-6.4,3-11.4,3c-2.7,0-5.6-0.3-8.7-0.9c-3.1-0.6-6.5-1.5-10.2-2.7v8.8
						c3.8,1,7.3,1.8,10.5,2.3s6.4,0.8,9.2,0.8c7.5,0,13.4-1.7,17.8-5.1c4.4-3.4,6.5-8,6.5-13.8c0-4-1.2-7.5-3.5-10.2
						S44.8,40.4,40.6,39.3z"/>
				</g>
				<g>
					<path id="DejaVuSans-30_00000083780119692121668830000011861279902308546977_" d="M95.4,66.4c-5.1,0-8.9-2.5-11.5-7.5
						c-2.6-5-3.8-12.5-3.8-22.5c0-10,1.3-17.5,3.8-22.5c2.6-5,6.4-7.5,11.5-7.5c5.1,0,8.9,2.5,11.5,7.5c2.6,5,3.8,12.5,3.8,22.5
						c0,10-1.3,17.5-3.8,22.5C104.4,63.9,100.5,66.4,95.4,66.4z M95.4,74.2c8.2,0,14.4-3.2,18.7-9.7c4.3-6.5,6.5-15.8,6.5-28.1
						c0-12.3-2.2-21.6-6.5-28.1c-4.3-6.5-10.6-9.7-18.7-9.7c-8.2,0-14.4,3.2-18.7,9.7c-4.3,6.5-6.5,15.8-6.5,28.1
						c0,12.3,2.2,21.7,6.5,28.1C81,71,87.2,74.2,95.4,74.2z"/>
				</g>
				<g>
					<path id="DejaVuSans-30_00000161599863581070896230000000458457446409413803_" d="M159,66.4c-5.1,0-8.9-2.5-11.5-7.5
						c-2.6-5-3.8-12.5-3.8-22.5c0-10,1.3-17.5,3.8-22.5c2.6-5,6.4-7.5,11.5-7.5c5.1,0,8.9,2.5,11.5,7.5c2.6,5,3.8,12.5,3.8,22.5
						c0,10-1.3,17.5-3.8,22.5C168,63.9,164.1,66.4,159,66.4z M159,74.2c8.2,0,14.4-3.2,18.7-9.7c4.3-6.5,6.5-15.8,6.5-28.1
						c0-12.3-2.2-21.6-6.5-28.1c-4.3-6.5-10.6-9.7-18.7-9.7c-8.2,0-14.4,3.2-18.7,9.7c-4.3,6.5-6.5,15.8-6.5,28.1
						c0,12.3,2.2,21.7,6.5,28.1C144.6,71,150.9,74.2,159,74.2z"/>
				</g>
			</g>
		</g>
	</g>
	<g id="ytick_3">
		<g id="line2d_7">
			<g>
				<g>
					<path id="m4f102d4b03_00000162337198909745919150000009386476805659320719_" class="st0" d="M36,177.4h-3.5"/>
				</g>
			</g>
		</g>
		<g id="text_8">
			<g transform="translate(9.9125 181.171554) scale(0.1 -0.1)">
				<g>
					<path id="DejaVuSans-34_00000073707767156661504090000006191591505018224280_" d="M37.8,64.3L12.9,25.4h24.9V64.3z M35.2,72.9
						h12.4V25.4H58v-8.2H47.6V0h-9.8v17.2H4.9v9.5L35.2,72.9z"/>
				</g>
				<g>
					<path id="DejaVuSans-30_00000066501476270736473980000006237540355060563129_" d="M95.4,66.4c-5.1,0-8.9-2.5-11.5-7.5
						c-2.6-5-3.8-12.5-3.8-22.5c0-10,1.3-17.5,3.8-22.5c2.6-5,6.4-7.5,11.5-7.5c5.1,0,8.9,2.5,11.5,7.5c2.6,5,3.8,12.5,3.8,22.5
						c0,10-1.3,17.5-3.8,22.5C104.4,63.9,100.5,66.4,95.4,66.4z M95.4,74.2c8.2,0,14.4-3.2,18.7-9.7c4.3-6.5,6.5-15.8,6.5-28.1
						c0-12.3-2.2-21.6-6.5-28.1c-4.3-6.5-10.6-9.7-18.7-9.7c-8.2,0-14.4,3.2-18.7,9.7c-4.3,6.5-6.5,15.8-6.5,28.1
						c0,12.3,2.2,21.7,6.5,28.1C81,71,87.2,74.2,95.4,74.2z"/>
				</g>
				<g>
					<path id="DejaVuSans-30_00000109746493920137802330000001616071178718586772_" d="M159,66.4c-5.1,0-8.9-2.5-11.5-7.5
						c-2.6-5-3.8-12.5-3.8-22.5c0-10,1.3-17.5,3.8-22.5c2.6-5,6.4-7.5,11.5-7.5c5.1,0,8.9,2.5,11.5,7.5c2.6,5,3.8,12.5,3.8,22.5
						c0,10-1.3,17.5-3.8,22.5C168,63.9,164.1,66.4,159,66.4z M159,74.2c8.2,0,14.4-3.2,18.7-9.7c4.3-6.5,6.5-15.8,6.5-28.1
						c0-12.3-2.2-21.6-6.5-28.1c-4.3-6.5-10.6-9.7-18.7-9.7c-8.2,0-14.4,3.2-18.7,9.7c-4.3,6.5-6.5,15.8-6.5,28.1
						c0,12.3,2.2,21.7,6.5,28.1C144.6,71,150.9,74.2,159,74.2z"/>
				</g>
			</g>
		</g>
	</g>
	<g id="ytick_4">
		<g id="line2d_8">
			<g>
				<g>
					<path id="m4f102d4b03_00000062178627628554526760000013274331408111961735_" class="st0" d="M36,154.4h-3.5"/>
				</g>
			</g>
		</g>
		<g id="text_9">
			<g transform="translate(9.9125 158.242006) scale(0.1 -0.1)">
				<g>
					<path id="DejaVuSans-35" d="M10.8,72.9h38.7v-8.3H19.8V46.7c1.4,0.5,2.9,0.9,4.3,1.1c1.4,0.2,2.9,0.4,4.3,0.4
						c8.1,0,14.6-2.2,19.3-6.7c4.8-4.5,7.1-10.5,7.1-18.1c0-7.8-2.4-13.9-7.3-18.3c-4.9-4.3-11.8-6.5-20.7-6.5
						c-3.1,0-6.2,0.3-9.4,0.8c-3.2,0.5-6.4,1.3-9.8,2.3v9.9c2.9-1.6,6-2.8,9.1-3.6s6.4-1.2,9.9-1.2c5.6,0,10.1,1.5,13.4,4.4
						c3.3,3,4.9,7,4.9,12.1c0,5.1-1.6,9.1-4.9,12c-3.3,3-7.7,4.5-13.4,4.5c-2.6,0-5.3-0.3-7.9-0.9c-2.6-0.6-5.3-1.5-8-2.7V72.9z"/>
				</g>
				<g>
					<path id="DejaVuSans-30_00000058578943720058306570000013777024116403491736_" d="M95.4,66.4c-5.1,0-8.9-2.5-11.5-7.5
						c-2.6-5-3.8-12.5-3.8-22.5c0-10,1.3-17.5,3.8-22.5c2.6-5,6.4-7.5,11.5-7.5c5.1,0,8.9,2.5,11.5,7.5c2.6,5,3.8,12.5,3.8,22.5
						c0,10-1.3,17.5-3.8,22.5C104.4,63.9,100.5,66.4,95.4,66.4z M95.4,74.2c8.2,0,14.4-3.2,18.7-9.7c4.3-6.5,6.5-15.8,6.5-28.1
						c0-12.3-2.2-21.6-6.5-28.1c-4.3-6.5-10.6-9.7-18.7-9.7c-8.2,0-14.4,3.2-18.7,9.7c-4.3,6.5-6.5,15.8-6.5,28.1
						c0,12.3,2.2,21.7,6.5,28.1C81,71,87.2,74.2,95.4,74.2z"/>
				</g>
				<g>
					<path id="DejaVuSans-30_00000011005304429645135530000016567915801172393140_" d="M159,66.4c-5.1,0-8.9-2.5-11.5-7.5
						c-2.6-5-3.8-12.5-3.8-22.5c0-10,1.3-17.5,3.8-22.5c2.6-5,6.4-7.5,11.5-7.5c5.1,0,8.9,2.5,11.5,7.5c2.6,5,3.8,12.5,3.8,22.5
						c0,10-1.3,17.5-3.8,22.5C168,63.9,164.1,66.4,159,66.4z M159,74.2c8.2,0,14.4-3.2,18.7-9.7c4.3-6.5,6.5-15.8,6.5-28.1
						c0-12.3-2.2-21.6-6.5-28.1c-4.3-6.5-10.6-9.7-18.7-9.7c-8.2,0-14.4,3.2-18.7,9.7c-4.3,6.5-6.5,15.8-6.5,28.1
						c0,12.3,2.2,21.7,6.5,28.1C144.6,71,150.9,74.2,159,74.2z"/>
				</g>
			</g>
		</g>
	</g>
	<g id="ytick_5">
		<g id="line2d_9">
			<g>
				<g>
					<path id="m4f102d4b03_00000127022759334659602060000000824600474378415495_" class="st0" d="M36,131.5h-3.5"/>
				</g>
			</g>
		</g>
		<g id="text_10">
			<g transform="translate(9.9125 135.312459) scale(0.1 -0.1)">
				<g>
					<path id="DejaVuSans-36_00000048485852329058499060000012963807733136187827_" d="M33,40.4c-4.4,0-7.9-1.5-10.5-4.5
						c-2.6-3-3.9-7.2-3.9-12.4c0-5.2,1.3-9.4,3.9-12.4c2.6-3,6.1-4.6,10.5-4.6s7.9,1.5,10.5,4.6c2.6,3.1,3.9,7.2,3.9,12.4
						c0,5.3-1.3,9.4-3.9,12.4C40.9,38.9,37.4,40.4,33,40.4z M52.6,71.3v-9c-2.5,1.2-5,2.1-7.5,2.7c-2.5,0.6-5,0.9-7.5,0.9
						c-6.5,0-11.5-2.2-14.9-6.6c-3.4-4.4-5.4-11-5.9-19.9c1.9,2.8,4.3,5,7.2,6.5c2.9,1.5,6.1,2.3,9.6,2.3c7.3,0,13.1-2.2,17.4-6.7
						c4.2-4.4,6.4-10.5,6.4-18.1c0-7.5-2.2-13.5-6.6-18C46.3,0.8,40.4-1.4,33-1.4c-8.4,0-14.9,3.2-19.3,9.7C9.2,14.7,7,24.1,7,36.4
						c0,11.5,2.7,20.7,8.2,27.6s12.8,10.3,22,10.3c2.5,0,5-0.2,7.5-0.7S49.9,72.3,52.6,71.3z"/>
				</g>
				<g>
					<path id="DejaVuSans-30_00000011711063531760993920000011293953543430692268_" d="M95.4,66.4c-5.1,0-8.9-2.5-11.5-7.5
						c-2.6-5-3.8-12.5-3.8-22.5c0-10,1.3-17.5,3.8-22.5c2.6-5,6.4-7.5,11.5-7.5c5.1,0,8.9,2.5,11.5,7.5c2.6,5,3.8,12.5,3.8,22.5
						c0,10-1.3,17.5-3.8,22.5C104.4,63.9,100.5,66.4,95.4,66.4z M95.4,74.2c8.2,0,14.4-3.2,18.7-9.7c4.3-6.5,6.5-15.8,6.5-28.1
						c0-12.3-2.2-21.6-6.5-28.1c-4.3-6.5-10.6-9.7-18.7-9.7c-8.2,0-14.4,3.2-18.7,9.7c-4.3,6.5-6.5,15.8-6.5,28.1
						c0,12.3,2.2,21.7,6.5,28.1C81,71,87.2,74.2,95.4,74.2z"/>
				</g>
				<g>
					<path id="DejaVuSans-30_00000085216760282438744600000018156985934086913429_" d="M159,66.4c-5.1,0-8.9-2.5-11.5-7.5
						c-2.6-5-3.8-12.5-3.8-22.5c0-10,1.3-17.5,3.8-22.5c2.6-5,6.4-7.5,11.5-7.5c5.1,0,8.9,2.5,11.5,7.5c2.6,5,3.8,12.5,3.8,22.5
						c0,10-1.3,17.5-3.8,22.5C168,63.9,164.1,66.4,159,66.4z M159,74.2c8.2,0,14.4-3.2,18.7-9.7c4.3-6.5,6.5-15.8,6.5-28.1
						c0-12.3-2.2-21.6-6.5-28.1c-4.3-6.5-10.6-9.7-18.7-9.7c-8.2,0-14.4,3.2-18.7,9.7c-4.3,6.5-6.5,15.8-6.5,28.1
						c0,12.3,2.2,21.7,6.5,28.1C144.6,71,150.9,74.2,159,74.2z"/>
				</g>
			</g>
		</g>
	</g>
	<g id="ytick_6">
		<g id="line2d_10">
			<g>
				<g>
					<path id="m4f102d4b03_00000026872040210754576330000012999155131859456922_" class="st0" d="M36,108.6h-3.5"/>
				</g>
			</g>
		</g>
		<g id="text_11">
			<g transform="translate(9.9125 112.382911) scale(0.1 -0.1)">
				<g>
					<path id="DejaVuSans-37" d="M8.2,72.9h46.9v-4.2L28.6,0H18.3l24.9,64.6h-35V72.9z"/>
				</g>
				<g>
					<path id="DejaVuSans-30_00000145032624157520071540000004321511687784275108_" d="M95.4,66.4c-5.1,0-8.9-2.5-11.5-7.5
						c-2.6-5-3.8-12.5-3.8-22.5c0-10,1.3-17.5,3.8-22.5c2.6-5,6.4-7.5,11.5-7.5c5.1,0,8.9,2.5,11.5,7.5c2.6,5,3.8,12.5,3.8,22.5
						c0,10-1.3,17.5-3.8,22.5C104.4,63.9,100.5,66.4,95.4,66.4z M95.4,74.2c8.2,0,14.4-3.2,18.7-9.7c4.3-6.5,6.5-15.8,6.5-28.1
						c0-12.3-2.2-21.6-6.5-28.1c-4.3-6.5-10.6-9.7-18.7-9.7c-8.2,0-14.4,3.2-18.7,9.7c-4.3,6.5-6.5,15.8-6.5,28.1
						c0,12.3,2.2,21.7,6.5,28.1C81,71,87.2,74.2,95.4,74.2z"/>
				</g>
				<g>
					<path id="DejaVuSans-30_00000122695390781447326390000008430189611222367880_" d="M159,66.4c-5.1,0-8.9-2.5-11.5-7.5
						c-2.6-5-3.8-12.5-3.8-22.5c0-10,1.3-17.5,3.8-22.5c2.6-5,6.4-7.5,11.5-7.5c5.1,0,8.9,2.5,11.5,7.5c2.6,5,3.8,12.5,3.8,22.5
						c0,10-1.3,17.5-3.8,22.5C168,63.9,164.1,66.4,159,66.4z M159,74.2c8.2,0,14.4-3.2,18.7-9.7c4.3-6.5,6.5-15.8,6.5-28.1
						c0-12.3-2.2-21.6-6.5-28.1c-4.3-6.5-10.6-9.7-18.7-9.7c-8.2,0-14.4,3.2-18.7,9.7c-4.3,6.5-6.5,15.8-6.5,28.1
						c0,12.3,2.2,21.7,6.5,28.1C144.6,71,150.9,74.2,159,74.2z"/>
				</g>
			</g>
		</g>
	</g>
	<g id="ytick_7">
		<g id="line2d_11">
			<g>
				<g>
					<path id="m4f102d4b03_00000167386169868188163660000003067196683534721155_" class="st0" d="M36,85.7h-3.5"/>
				</g>
			</g>
		</g>
		<g id="text_12">
			<g transform="translate(9.9125 89.453364) scale(0.1 -0.1)">
				<g>
					<path id="DejaVuSans-38_00000024679989808090568330000012169138780385865369_" d="M31.8,34.6c-4.7,0-8.4-1.3-11.1-3.8
						c-2.7-2.5-4-6-4-10.3c0-4.4,1.3-7.8,4-10.4c2.7-2.5,6.4-3.8,11.1-3.8s8.4,1.3,11.1,3.8c2.7,2.5,4.1,6,4.1,10.3
						c0,4.4-1.3,7.8-4,10.3C40.2,33.4,36.5,34.6,31.8,34.6z M21.9,38.8c-4.2,1-7.5,3-9.9,5.9c-2.4,2.9-3.5,6.4-3.5,10.6
						c0,5.8,2.1,10.4,6.2,13.8c4.2,3.4,9.8,5.1,17.1,5.1c7.3,0,13-1.7,17.1-5.1s6.2-8,6.2-13.8c0-4.2-1.2-7.7-3.5-10.6
						c-2.4-2.9-5.6-4.9-9.8-5.9c4.8-1.1,8.4-3.3,11.1-6.5c2.7-3.2,4-7.2,4-11.8c0-7.1-2.2-12.5-6.5-16.3C46,0.5,39.8-1.4,31.8-1.4
						c-8,0-14.2,1.9-18.5,5.7C8.9,8,6.8,13.4,6.8,20.5c0,4.6,1.3,8.6,4,11.8C13.5,35.5,17.2,37.7,21.9,38.8z M18.3,54.4
						c0-3.8,1.2-6.7,3.5-8.8c2.4-2.1,5.7-3.2,9.9-3.2c4.2,0,7.6,1.1,9.9,3.2c2.4,2.1,3.6,5.1,3.6,8.8c0,3.8-1.2,6.7-3.6,8.8
						c-2.4,2.1-5.7,3.2-9.9,3.2c-4.3,0-7.6-1.1-9.9-3.2C19.5,61.1,18.3,58.2,18.3,54.4z"/>
				</g>
				<g>
					<path id="DejaVuSans-30_00000138551758162218211000000007407117030697912504_" d="M95.4,66.4c-5.1,0-8.9-2.5-11.5-7.5
						c-2.6-5-3.8-12.5-3.8-22.5c0-10,1.3-17.5,3.8-22.5c2.6-5,6.4-7.5,11.5-7.5c5.1,0,8.9,2.5,11.5,7.5c2.6,5,3.8,12.5,3.8,22.5
						c0,10-1.3,17.5-3.8,22.5C104.4,63.9,100.5,66.4,95.4,66.4z M95.4,74.2c8.2,0,14.4-3.2,18.7-9.7c4.3-6.5,6.5-15.8,6.5-28.1
						c0-12.3-2.2-21.6-6.5-28.1c-4.3-6.5-10.6-9.7-18.7-9.7c-8.2,0-14.4,3.2-18.7,9.7c-4.3,6.5-6.5,15.8-6.5,28.1
						c0,12.3,2.2,21.7,6.5,28.1C81,71,87.2,74.2,95.4,74.2z"/>
				</g>
				<g>
					<path id="DejaVuSans-30_00000124860422799604981160000017922995509747630745_" d="M159,66.4c-5.1,0-8.9-2.5-11.5-7.5
						c-2.6-5-3.8-12.5-3.8-22.5c0-10,1.3-17.5,3.8-22.5c2.6-5,6.4-7.5,11.5-7.5c5.1,0,8.9,2.5,11.5,7.5c2.6,5,3.8,12.5,3.8,22.5
						c0,10-1.3,17.5-3.8,22.5C168,63.9,164.1,66.4,159,66.4z M159,74.2c8.2,0,14.4-3.2,18.7-9.7c4.3-6.5,6.5-15.8,6.5-28.1
						c0-12.3-2.2-21.6-6.5-28.1c-4.3-6.5-10.6-9.7-18.7-9.7c-8.2,0-14.4,3.2-18.7,9.7c-4.3,6.5-6.5,15.8-6.5,28.1
						c0,12.3,2.2,21.7,6.5,28.1C144.6,71,150.9,74.2,159,74.2z"/>
				</g>
			</g>
		</g>
	</g>
	<g id="ytick_8">
		<g id="line2d_12">
			<g>
				<g>
					<path id="m4f102d4b03_00000048465447446948714640000005799937276187067019_" class="st0" d="M36,62.7h-3.5"/>
				</g>
			</g>
		</g>
		<g id="text_13">
			<g transform="translate(9.9125 66.523816) scale(0.1 -0.1)">
				<g>
					<path id="DejaVuSans-39" d="M11,1.5v9c2.5-1.2,5-2.1,7.5-2.7c2.5-0.6,5-0.9,7.5-0.9c6.5,0,11.5,2.2,14.9,6.6
						c3.4,4.4,5.4,11,5.9,20c-1.9-2.8-4.3-5-7.2-6.5c-2.9-1.5-6.1-2.2-9.6-2.2c-7.3,0-13.1,2.2-17.3,6.6c-4.2,4.4-6.4,10.5-6.4,18.1
						c0,7.5,2.2,13.5,6.6,18c4.4,4.5,10.3,6.8,17.7,6.8c8.4,0,14.9-3.2,19.3-9.7c4.4-6.5,6.7-15.8,6.7-28.1
						c0-11.5-2.7-20.7-8.2-27.5C43,2,35.6-1.4,26.4-1.4c-2.5,0-5,0.2-7.5,0.7C16.4-0.2,13.7,0.5,11,1.5z M30.6,32.4
						c4.4,0,7.9,1.5,10.5,4.5c2.6,3,3.9,7.2,3.9,12.5c0,5.2-1.3,9.4-3.9,12.4c-2.6,3-6.1,4.6-10.5,4.6s-7.9-1.5-10.5-4.6
						c-2.6-3-3.9-7.2-3.9-12.4c0-5.3,1.3-9.4,3.9-12.5C22.7,33.9,26.2,32.4,30.6,32.4z"/>
				</g>
				<g>
					<path id="DejaVuSans-30_00000129182057540530612140000007068327199528649128_" d="M95.4,66.4c-5.1,0-8.9-2.5-11.5-7.5
						c-2.6-5-3.8-12.5-3.8-22.5c0-10,1.3-17.5,3.8-22.5c2.6-5,6.4-7.5,11.5-7.5c5.1,0,8.9,2.5,11.5,7.5c2.6,5,3.8,12.5,3.8,22.5
						c0,10-1.3,17.5-3.8,22.5C104.4,63.9,100.5,66.4,95.4,66.4z M95.4,74.2c8.2,0,14.4-3.2,18.7-9.7c4.3-6.5,6.5-15.8,6.5-28.1
						c0-12.3-2.2-21.6-6.5-28.1c-4.3-6.5-10.6-9.7-18.7-9.7c-8.2,0-14.4,3.2-18.7,9.7c-4.3,6.5-6.5,15.8-6.5,28.1
						c0,12.3,2.2,21.7,6.5,28.1C81,71,87.2,74.2,95.4,74.2z"/>
				</g>
				<g>
					<path id="DejaVuSans-30_00000118391663780502534500000004168056732254411686_" d="M159,66.4c-5.1,0-8.9-2.5-11.5-7.5
						c-2.6-5-3.8-12.5-3.8-22.5c0-10,1.3-17.5,3.8-22.5c2.6-5,6.4-7.5,11.5-7.5c5.1,0,8.9,2.5,11.5,7.5c2.6,5,3.8,12.5,3.8,22.5
						c0,10-1.3,17.5-3.8,22.5C168,63.9,164.1,66.4,159,66.4z M159,74.2c8.2,0,14.4-3.2,18.7-9.7c4.3-6.5,6.5-15.8,6.5-28.1
						c0-12.3-2.2-21.6-6.5-28.1c-4.3-6.5-10.6-9.7-18.7-9.7c-8.2,0-14.4,3.2-18.7,9.7c-4.3,6.5-6.5,15.8-6.5,28.1
						c0,12.3,2.2,21.7,6.5,28.1C144.6,71,150.9,74.2,159,74.2z"/>
				</g>
			</g>
		</g>
	</g>
	<g id="ytick_9">
		<g id="line2d_13">
			<g>
				<g>
					<path id="m4f102d4b03_00000080166219718574261770000007810412178158779568_" class="st0" d="M36,39.8h-3.5"/>
				</g>
			</g>
		</g>
		<g id="text_14">
			<g transform="translate(3.55 43.594269) scale(0.1 -0.1)">
				<g>
					<path id="DejaVuSans-31" d="M12.4,8.3h16.1v55.6L11,60.4v9l17.4,3.5h9.9V8.3h16.1V0h-42V8.3z"/>
				</g>
				<g>
					<path id="DejaVuSans-30_00000123438597321608558510000010543015190511667098_" d="M95.4,66.4c-5.1,0-8.9-2.5-11.5-7.5
						c-2.6-5-3.8-12.5-3.8-22.5c0-10,1.3-17.5,3.8-22.5c2.6-5,6.4-7.5,11.5-7.5c5.1,0,8.9,2.5,11.5,7.5c2.6,5,3.8,12.5,3.8,22.5
						c0,10-1.3,17.5-3.8,22.5C104.4,63.9,100.5,66.4,95.4,66.4z M95.4,74.2c8.2,0,14.4-3.2,18.7-9.7c4.3-6.5,6.5-15.8,6.5-28.1
						c0-12.3-2.2-21.6-6.5-28.1c-4.3-6.5-10.6-9.7-18.7-9.7c-8.2,0-14.4,3.2-18.7,9.7c-4.3,6.5-6.5,15.8-6.5,28.1
						c0,12.3,2.2,21.7,6.5,28.1C81,71,87.2,74.2,95.4,74.2z"/>
				</g>
				<g>
					<path id="DejaVuSans-30_00000004525962951546729500000012796125347385696157_" d="M159,66.4c-5.1,0-8.9-2.5-11.5-7.5
						c-2.6-5-3.8-12.5-3.8-22.5c0-10,1.3-17.5,3.8-22.5c2.6-5,6.4-7.5,11.5-7.5c5.1,0,8.9,2.5,11.5,7.5c2.6,5,3.8,12.5,3.8,22.5
						c0,10-1.3,17.5-3.8,22.5C168,63.9,164.1,66.4,159,66.4z M159,74.2c8.2,0,14.4-3.2,18.7-9.7c4.3-6.5,6.5-15.8,6.5-28.1
						c0-12.3-2.2-21.6-6.5-28.1c-4.3-6.5-10.6-9.7-18.7-9.7c-8.2,0-14.4,3.2-18.7,9.7c-4.3,6.5-6.5,15.8-6.5,28.1
						c0,12.3,2.2,21.7,6.5,28.1C144.6,71,150.9,74.2,159,74.2z"/>
				</g>
				<g>
					<path id="DejaVuSans-30_00000067925390104633770660000000452048414447639959_" d="M222.7,66.4c-5.1,0-8.9-2.5-11.5-7.5
						c-2.6-5-3.8-12.5-3.8-22.5c0-10,1.3-17.5,3.8-22.5c2.6-5,6.4-7.5,11.5-7.5c5.1,0,8.9,2.5,11.5,7.5c2.6,5,3.8,12.5,3.8,22.5
						c0,10-1.3,17.5-3.8,22.5C231.6,63.9,227.8,66.4,222.7,66.4z M222.7,74.2c8.2,0,14.4-3.2,18.7-9.7c4.3-6.5,6.5-15.8,6.5-28.1
						c0-12.3-2.2-21.6-6.5-28.1c-4.3-6.5-10.6-9.7-18.7-9.7c-8.2,0-14.4,3.2-18.7,9.7c-4.3,6.5-6.5,15.8-6.5,28.1
						c0,12.3,2.2,21.7,6.5,28.1C208.2,71,214.5,74.2,222.7,74.2z"/>
				</g>
			</g>
		</g>
	</g>
	<g id="text_15">
		<g transform="translate(-2.945625 226.853437) rotate(-90) scale(0.12 -0.12)">
			<g>
				<path id="DejaVuSans-53" d="M53.5,70.5v-9.6c-3.7,1.8-7.3,3.1-10.6,4c-3.3,0.9-6.5,1.3-9.6,1.3c-5.4,0-9.5-1-12.4-3.1
					c-2.9-2.1-4.4-5-4.4-8.9c0-3.2,1-5.7,2.9-7.3c1.9-1.6,5.6-3,11-4l6-1.2c7.4-1.4,12.8-3.9,16.3-7.4s5.2-8.3,5.2-14.2
					c0-7.1-2.4-12.4-7.1-16.1C46.1,0.4,39.1-1.4,30-1.4c-3.4,0-7.1,0.4-11,1.2c-3.9,0.8-7.9,1.9-12.1,3.5v10.2
					c4-2.2,7.9-3.9,11.8-5.1c3.8-1.1,7.6-1.7,11.3-1.7c5.6,0,10,1.1,13,3.3c3.1,2.2,4.6,5.4,4.6,9.5c0,3.6-1.1,6.4-3.3,8.4
					s-5.8,3.5-10.8,4.5l-6,1.2c-7.4,1.5-12.7,3.8-16,6.9c-3.3,3.1-4.9,7.5-4.9,13c0,6.4,2.3,11.5,6.8,15.2s10.8,5.6,18.8,5.6
					c3.4,0,6.9-0.3,10.5-0.9C46.2,72.7,49.8,71.7,53.5,70.5z"/>
			</g>
			<g>
				<path id="DejaVuSans-43_00000002356765662945292170000007054549297817849527_" d="M127.9,67.3V56.9c-3.3,3.1-6.9,5.4-10.6,6.9
					c-3.8,1.5-7.8,2.3-12,2.3c-8.3,0-14.7-2.5-19.1-7.6c-4.4-5.1-6.6-12.5-6.6-22.1c0-9.6,2.2-17,6.6-22c4.4-5.1,10.8-7.6,19.1-7.6
					c4.2,0,8.2,0.8,12,2.3c3.8,1.5,7.3,3.8,10.6,6.9V5.6c-3.4-2.3-7.1-4.1-11-5.3c-3.9-1.2-7.9-1.8-12.2-1.8C93.7-1.4,85,2,78.6,8.7
					c-6.3,6.8-9.5,16-9.5,27.7c0,11.7,3.2,21,9.5,27.7c6.4,6.8,15.1,10.1,26.1,10.1c4.4,0,8.5-0.6,12.3-1.7
					C120.9,71.3,124.5,69.6,127.9,67.3z"/>
			</g>
			<g>
				<path id="DejaVuSans-53_00000149341557256301400750000013245744883134453663_" d="M186.8,70.5v-9.6c-3.7,1.8-7.3,3.1-10.6,4
					c-3.3,0.9-6.5,1.3-9.6,1.3c-5.4,0-9.5-1-12.4-3.1c-2.9-2.1-4.4-5-4.4-8.9c0-3.2,1-5.7,2.9-7.3c1.9-1.6,5.6-3,11-4l6-1.2
					c7.4-1.4,12.8-3.9,16.3-7.4s5.2-8.3,5.2-14.2c0-7.1-2.4-12.4-7.1-16.1c-4.7-3.6-11.7-5.5-20.8-5.5c-3.4,0-7.1,0.4-11,1.2
					c-3.9,0.8-7.9,1.9-12.1,3.5v10.2c4-2.2,7.9-3.9,11.8-5.1c3.8-1.1,7.6-1.7,11.3-1.7c5.6,0,10,1.1,13,3.3c3.1,2.2,4.6,5.4,4.6,9.5
					c0,3.6-1.1,6.4-3.3,8.4c-2.2,2-5.8,3.5-10.8,4.5l-6,1.2c-7.4,1.5-12.7,3.8-16,6.9c-3.3,3.1-4.9,7.5-4.9,13
					c0,6.4,2.3,11.5,6.8,15.2c4.5,3.7,10.8,5.6,18.8,5.6c3.4,0,6.9-0.3,10.5-0.9C179.5,72.7,183.1,71.7,186.8,70.5z"/>
			</g>
			<g>
				<path id="DejaVuSans-53_00000091726402942660357230000004896062925706231468_" d="M250.3,70.5v-9.6c-3.7,1.8-7.3,3.1-10.6,4
					c-3.3,0.9-6.5,1.3-9.6,1.3c-5.4,0-9.5-1-12.4-3.1c-2.9-2.1-4.4-5-4.4-8.9c0-3.2,1-5.7,2.9-7.3c1.9-1.6,5.6-3,11-4l6-1.2
					c7.4-1.4,12.8-3.9,16.3-7.4s5.2-8.3,5.2-14.2c0-7.1-2.4-12.4-7.1-16.1c-4.7-3.6-11.7-5.5-20.8-5.5c-3.4,0-7.1,0.4-11,1.2
					c-3.9,0.8-7.9,1.9-12.1,3.5v10.2c4-2.2,7.9-3.9,11.8-5.1c3.8-1.1,7.6-1.7,11.3-1.7c5.6,0,10,1.1,13,3.3c3.1,2.2,4.6,5.4,4.6,9.5
					c0,3.6-1.1,6.4-3.3,8.4c-2.2,2-5.8,3.5-10.8,4.5l-6,1.2c-7.4,1.5-12.7,3.8-16,6.9c-3.3,3.1-4.9,7.5-4.9,13
					c0,6.4,2.3,11.5,6.8,15.2c4.5,3.7,10.8,5.6,18.8,5.6c3.4,0,6.9-0.3,10.5-0.9C243,72.7,246.6,71.7,250.3,70.5z"/>
			</g>
			<g>
				<path id="DejaVuSans-20_00000097469913194331494060000016026332558267787944_" d="M260.3,0"/>
			</g>
			<g>
				<path id="DejaVuSans-70_00000164502151848406842730000008321122328365285795_" d="M310.2,8.2v-29h-9v75.5h9v-8.3
					c1.9,3.2,4.3,5.7,7.2,7.2c2.9,1.6,6.3,2.4,10.3,2.4c6.6,0,12-2.6,16.2-7.9c4.2-5.3,6.2-12.2,6.2-20.8s-2.1-15.5-6.2-20.8
					c-4.1-5.3-9.5-7.9-16.2-7.9c-4,0-7.4,0.8-10.3,2.4C314.4,2.5,312,5,310.2,8.2z M340.7,27.3c0,6.6-1.4,11.8-4.1,15.5
					s-6.5,5.6-11.2,5.6c-4.8,0-8.5-1.9-11.2-5.6s-4.1-8.9-4.1-15.5s1.4-11.8,4.1-15.5s6.5-5.6,11.2-5.6c4.8,0,8.5,1.9,11.2,5.6
					S340.7,20.7,340.7,27.3z"/>
			</g>
			<g>
				<path id="DejaVuSans-70_00000075862523093727839610000017414243238591030197_" d="M373.6,8.2v-29h-9v75.5h9v-8.3
					c1.9,3.2,4.3,5.7,7.2,7.2c2.9,1.6,6.3,2.4,10.3,2.4c6.6,0,12-2.6,16.2-7.9c4.2-5.3,6.2-12.2,6.2-20.8s-2.1-15.5-6.2-20.8
					c-4.1-5.3-9.5-7.9-16.2-7.9c-4,0-7.4,0.8-10.3,2.4C377.9,2.5,375.5,5,373.6,8.2z M404.2,27.3c0,6.6-1.4,11.8-4.1,15.5
					s-6.5,5.6-11.2,5.6c-4.8,0-8.5-1.9-11.2-5.6s-4.1-8.9-4.1-15.5s1.4-11.8,4.1-15.5s6.5-5.6,11.2-5.6c4.8,0,8.5,1.9,11.2,5.6
					S404.2,20.7,404.2,27.3z"/>
			</g>
			<g>
				<path id="DejaVuSans-6d_00000138553980159964037450000015350586020383336110_" d="M471,44.2c2.2,4,4.9,7,8.1,8.9s6.8,2.9,11,2.9
					c5.7,0,10.1-2,13.2-6c3.1-4,4.6-9.6,4.6-17V0h-9v32.7c0,5.2-0.9,9.1-2.8,11.7c-1.9,2.5-4.7,3.8-8.5,3.8c-4.7,0-8.3-1.5-11-4.6
					c-2.7-3.1-4-7.3-4-12.6V0h-9v32.7c0,5.3-0.9,9.2-2.8,11.7c-1.9,2.5-4.7,3.8-8.6,3.8c-4.6,0-8.2-1.6-11-4.7
					c-2.7-3.1-4-7.3-4-12.6V0h-9v54.7h9v-8.5c2.1,3.4,4.5,5.8,7.4,7.4c2.9,1.6,6.3,2.4,10.2,2.4c4,0,7.4-1,10.1-3
					C467.6,51,469.7,48,471,44.2z"/>
			</g>
			<g>
				<path id="DejaVuSans-20_00000155137474304333409040000011686235471916816016_" d="M516.4,0"/>
			</g>
			<g>
				<path id="DejaVuSans-28" d="M579.2,75.9c-4.4-7.5-7.6-14.9-9.7-22.2c-2.1-7.3-3.2-14.7-3.2-22.3c0-7.5,1.1-15,3.2-22.3
					c2.1-7.4,5.4-14.8,9.7-22.2h-7.8c-4.9,7.7-8.5,15.2-11,22.6c-2.4,7.4-3.6,14.7-3.6,22c0,7.3,1.2,14.6,3.6,21.9
					c2.4,7.4,6.1,14.9,11,22.6H579.2z"/>
			</g>
			<g>
				<path id="DejaVuSans-53_00000163780394875680855690000002634762984494347685_" d="M640.7,70.5v-9.6c-3.7,1.8-7.3,3.1-10.6,4
					c-3.3,0.9-6.5,1.3-9.6,1.3c-5.4,0-9.5-1-12.4-3.1c-2.9-2.1-4.4-5-4.4-8.9c0-3.2,1-5.7,2.9-7.3c1.9-1.6,5.6-3,11-4l6-1.2
					c7.4-1.4,12.8-3.9,16.3-7.4s5.2-8.3,5.2-14.2c0-7.1-2.4-12.4-7.1-16.1c-4.7-3.6-11.7-5.5-20.8-5.5c-3.4,0-7.1,0.4-11,1.2
					c-3.9,0.8-7.9,1.9-12.1,3.5v10.2c4-2.2,7.9-3.9,11.8-5.1c3.8-1.1,7.6-1.7,11.3-1.7c5.6,0,10,1.1,13,3.3c3.1,2.2,4.6,5.4,4.6,9.5
					c0,3.6-1.1,6.4-3.3,8.4c-2.2,2-5.8,3.5-10.8,4.5l-6,1.2c-7.4,1.5-12.7,3.8-16,6.9c-3.3,3.1-4.9,7.5-4.9,13
					c0,6.4,2.3,11.5,6.8,15.2c4.5,3.7,10.8,5.6,18.8,5.6c3.4,0,6.9-0.3,10.5-0.9C633.4,72.7,637,71.7,640.7,70.5z"/>
			</g>
			<g>
				<path id="DejaVuSans-6d_00000115486894565852375300000018176693216271518898_" d="M702.7,44.2c2.2,4,4.9,7,8.1,8.9
					s6.8,2.9,11,2.9c5.7,0,10.1-2,13.2-6c3.1-4,4.6-9.6,4.6-17V0h-9v32.7c0,5.2-0.9,9.1-2.8,11.7c-1.9,2.5-4.7,3.8-8.5,3.8
					c-4.7,0-8.3-1.5-11-4.6c-2.7-3.1-4-7.3-4-12.6V0h-9v32.7c0,5.3-0.9,9.2-2.8,11.7c-1.9,2.5-4.7,3.8-8.6,3.8
					c-4.6,0-8.2-1.6-11-4.7c-2.7-3.1-4-7.3-4-12.6V0h-9v54.7h9v-8.5c2.1,3.4,4.5,5.8,7.4,7.4c2.9,1.6,6.3,2.4,10.2,2.4
					c4,0,7.4-1,10.1-3C699.3,51,701.4,48,702.7,44.2z"/>
			</g>
			<g>
				<path id="DejaVuSans-79" d="M780.3-5.1c-2.5-6.5-5-10.8-7.4-12.7c-2.4-2-5.6-3-9.7-3H756v7.5h5.3c2.5,0,4.4,0.6,5.8,1.8
					c1.4,1.2,2.9,3.9,4.5,8.3l1.6,4.1l-22.1,53.8h9.5l17.1-42.8l17.1,42.8h9.5L780.3-5.1z"/>
			</g>
			<g>
				<path id="DejaVuSans-74_00000180325143160840433630000011827175773880338081_" d="M825.6,70.2V54.7h18.5v-7h-18.5V18
					c0-4.5,0.6-7.3,1.8-8.6s3.7-1.9,7.5-1.9h9.2V0h-9.2c-6.9,0-11.7,1.3-14.4,3.9c-2.6,2.6-4,7.3-4,14.1v29.7H810v7h6.6v15.5H825.6z
					"/>
			</g>
			<g>
				<path id="DejaVuSans-68" d="M901.4,33V0h-9v32.7c0,5.2-1,9-3,11.6c-2,2.6-5,3.9-9.1,3.9c-4.9,0-8.7-1.5-11.5-4.6
					c-2.8-3.1-4.2-7.3-4.2-12.6V0h-9v76h9V46.2c2.2,3.3,4.7,5.8,7.6,7.4c2.9,1.6,6.3,2.4,10.1,2.4c6.3,0,11-1.9,14.2-5.8
					C899.8,46.3,901.4,40.6,901.4,33z"/>
			</g>
			<g>
				<path id="DejaVuSans-65_00000055673979735077945710000002168031828880594824_" d="M966.1,29.6v-4.4h-41.3
					c0.4-6.2,2.3-10.9,5.6-14.1c3.3-3.2,8-4.9,13.9-4.9c3.4,0,6.8,0.4,10,1.3c3.2,0.8,6.5,2.1,9.7,3.8V2.8c-3.2-1.4-6.5-2.4-9.9-3.1
					c-3.4-0.7-6.8-1.1-10.3-1.1c-8.7,0-15.6,2.5-20.7,7.6c-5.1,5.1-7.6,12-7.6,20.6c0,8.9,2.4,16,7.2,21.3
					c4.8,5.3,11.4,7.9,19.6,7.9c7.4,0,13.2-2.4,17.5-7.1C963.9,44.2,966.1,37.7,966.1,29.6z M957.1,32.2c-0.1,4.9-1.4,8.8-4.1,11.8
					c-2.7,2.9-6.2,4.4-10.7,4.4c-5,0-9-1.4-12-4.2c-3-2.8-4.7-6.8-5.2-12L957.1,32.2z"/>
			</g>
			<g>
				<path id="DejaVuSans-20_00000101803902772377271300000003843441564188207544_" d="M971.4,0"/>
			</g>
			<g>
				<path id="DejaVuSans-65_00000019655072445318409990000002853706708688966303_" d="M1059.4,29.6v-4.4h-41.3
					c0.4-6.2,2.3-10.9,5.6-14.1c3.3-3.2,8-4.9,13.9-4.9c3.4,0,6.8,0.4,10,1.3c3.2,0.8,6.5,2.1,9.7,3.8V2.8c-3.2-1.4-6.5-2.4-9.9-3.1
					c-3.4-0.7-6.8-1.1-10.3-1.1c-8.7,0-15.6,2.5-20.7,7.6c-5.1,5.1-7.6,12-7.6,20.6c0,8.9,2.4,16,7.2,21.3
					c4.8,5.3,11.4,7.9,19.6,7.9c7.4,0,13.2-2.4,17.5-7.1C1057.2,44.2,1059.4,37.7,1059.4,29.6z M1050.4,32.2
					c-0.1,4.9-1.4,8.8-4.1,11.8c-2.7,2.9-6.2,4.4-10.7,4.4c-5,0-9-1.4-12-4.2c-3-2.8-4.7-6.8-5.2-12L1050.4,32.2z"/>
			</g>
			<g>
				<path id="DejaVuSans-74_00000027603369013953136910000016928145412844132287_" d="M1083,70.2V54.7h18.5v-7H1083V18
					c0-4.5,0.6-7.3,1.8-8.6s3.7-1.9,7.5-1.9h9.2V0h-9.2c-6.9,0-11.7,1.3-14.4,3.9c-2.6,2.6-4,7.3-4,14.1v29.7h-6.6v7h6.6v15.5H1083z
					"/>
			</g>
			<g>
				<path id="DejaVuSans-20_00000000183732626405497650000012531823279674025129_" d="M1103.9,0"/>
			</g>
			<g>
				<path id="DejaVuSans-61_00000029004015219406589440000007674029803353812896_" d="M1170,27.5c-7.3,0-12.3-0.8-15.1-2.5
					c-2.8-1.7-4.2-4.5-4.2-8.5c0-3.2,1.1-5.7,3.2-7.6c2.1-1.9,5-2.8,8.6-2.8c5,0,9,1.8,12,5.3c3,3.5,4.5,8.2,4.5,14.1v2H1170z
					 M1187.9,31.2V0h-9v8.3c-2.1-3.3-4.6-5.8-7.7-7.3s-6.8-2.4-11.2-2.4c-5.6,0-10,1.6-13.4,4.7c-3.3,3.1-5,7.4-5,12.6
					c0,6.1,2.1,10.8,6.2,13.9c4.1,3.1,10.3,4.7,18.4,4.7h12.6v0.9c0,4.1-1.4,7.3-4.1,9.6s-6.5,3.4-11.5,3.4c-3.1,0-6.2-0.4-9.1-1.1
					c-3-0.8-5.8-1.9-8.5-3.4v8.3c3.3,1.3,6.5,2.2,9.6,2.8c3.1,0.6,6.1,1,9,1c7.9,0,13.8-2.1,17.7-6.2
					C1185.9,45.8,1187.9,39.5,1187.9,31.2z"/>
			</g>
			<g>
				<path id="DejaVuSans-6c" d="M1206.4,76h9V0h-9V76z"/>
			</g>
			<g>
				<path id="DejaVuSans-2e" d="M1235.4,12.4h10.3V0h-10.3V12.4z"/>
			</g>
			<g>
				<path id="DejaVuSans-20_00000089548468659211444970000004054751793903022761_" d="M1256.5,0"/>
			</g>
			<g>
				<path id="DejaVuSans-5b" d="M1296.9,76h20.7v-7h-11.7V-6.2h11.7v-7h-20.7V76z"/>
			</g>
			<g>
				<path id="DejaVuSans-32_00000052813656364941907740000010677179242183100076_" d="M1346.5,8.3h34.4V0h-46.3v8.3
					c3.7,3.9,8.8,9.1,15.3,15.6c6.5,6.5,10.5,10.7,12.2,12.6c3.2,3.5,5.4,6.5,6.6,9c1.3,2.5,1.9,4.9,1.9,7.2c0,3.9-1.4,7-4.1,9.5
					c-2.7,2.4-6.3,3.7-10.6,3.7c-3.1,0-6.4-0.5-9.8-1.6c-3.4-1.1-7.1-2.7-11-4.9v10c4,1.6,7.7,2.8,11.1,3.6c3.5,0.8,6.6,1.2,9.5,1.2
					c7.6,0,13.6-1.9,18.1-5.7c4.5-3.8,6.7-8.8,6.7-15.1c0-3-0.6-5.8-1.7-8.5c-1.1-2.7-3.2-5.8-6.1-9.5c-0.8-0.9-3.4-3.7-7.8-8.2
					C1360.6,22.7,1354.5,16.4,1346.5,8.3z"/>
			</g>
			<g>
				<path id="DejaVuSans-30_00000160163969551497159720000005518659566674795688_" d="M1422.7,66.4c-5.1,0-8.9-2.5-11.5-7.5
					c-2.6-5-3.8-12.5-3.8-22.5c0-10,1.3-17.5,3.8-22.5c2.6-5,6.4-7.5,11.5-7.5c5.1,0,8.9,2.5,11.5,7.5c2.6,5,3.8,12.5,3.8,22.5
					c0,10-1.3,17.5-3.8,22.5C1431.7,63.9,1427.9,66.4,1422.7,66.4z M1422.7,74.2c8.2,0,14.4-3.2,18.7-9.7c4.3-6.5,6.5-15.8,6.5-28.1
					c0-12.3-2.2-21.6-6.5-28.1c-4.3-6.5-10.6-9.7-18.7-9.7c-8.2,0-14.4,3.2-18.7,9.7c-4.3,6.5-6.5,15.8-6.5,28.1
					c0,12.3,2.2,21.7,6.5,28.1C1408.3,71,1414.6,74.2,1422.7,74.2z"/>
			</g>
			<g>
				<path id="DejaVuSans-31_00000140708098249481012350000015517283890058671523_" d="M1467,8.3h16.1v55.6l-17.5-3.5v9l17.4,3.5h9.9
					V8.3h16.1V0h-42V8.3z"/>
			</g>
			<g>
				<path id="DejaVuSans-37_00000119835350396402124690000008147884765822432176_" d="M1526.4,72.9h46.9v-4.2L1546.8,0h-10.3
					l24.9,64.6h-35V72.9z"/>
			</g>
			<g>
				<path id="DejaVuSans-5d" d="M1612.3,76v-89.2h-20.7v7h11.7V69h-11.7v7H1612.3z"/>
			</g>
			<g>
				<path id="DejaVuSans-29" d="M1628.9,75.9h7.8c4.9-7.7,8.5-15.2,11-22.6c2.4-7.4,3.6-14.7,3.6-21.9c0-7.3-1.2-14.6-3.6-22
					c-2.4-7.4-6.1-14.9-11-22.6h-7.8c4.3,7.5,7.6,14.9,9.7,22.2c2.1,7.4,3.2,14.8,3.2,22.3c0,7.5-1.1,14.9-3.2,22.3
					C1636.4,61,1633.2,68.4,1628.9,75.9z"/>
			</g>
		</g>
	</g>
</g>
<g id="line2d_14">
	<g>
		<defs>
			<rect id="SVGID_1_" x="36" y="30.2" width="223.2" height="194"/>
		</defs>
		<clipPath id="SVGID_00000113320853988241507660000000231976775669555074_">
			<use xlink:href="#SVGID_1_"  style="overflow:visible;"/>
		</clipPath>
		
			<path style="clip-path:url(#SVGID_00000113320853988241507660000000231976775669555074_);fill:none;stroke:#0000FF;stroke-width:2;stroke-linecap:square;stroke-linejoin:round;" d="
			M249.1,39.1l-4.4,3.3l-4.3,3.3l-4.3,3.3l-4.2,3.2l-4.2,3.2l-4.2,2.1l-4.2-0.2l-4.1-0.4l-4-0.6l-3.9-0.7l-3.8-0.8l-3.8-0.9l-3.7-1
			l-4.7,0.3L186,54l-5.2,0.9l-5.1,0.9l-5,0.9l-5,0.9l-4.9,1l-4.9,1.2l-6.1,4.3l-7.5,7.8l-7.1,7.1l-6.8,6.5l-6.5,6.1l-6.8,15.8
			l-6.1,12.4l-5.6,10.9l-5.2,9.7l-4.9,8.7l-4.6,7.9l-4.3,7.2l-4.1,6.6l-3.8,6l-3.6,5.6l-3.7,6.7l-3.4,5.7l-3.2,5.2l-3,4.8l-2.8,4.4
			l-2.7,4.1"/>
	</g>
</g>
<g id="line2d_15">
	<g>
		<defs>
			<rect id="SVGID_00000139255368879006959370000016450947554755610761_" x="36" y="30.2" width="223.2" height="194"/>
		</defs>
		<clipPath id="SVGID_00000125598927246522864960000000454173193470396557_">
			<use xlink:href="#SVGID_00000139255368879006959370000016450947554755610761_"  style="overflow:visible;"/>
		</clipPath>
		
			<path style="clip-path:url(#SVGID_00000125598927246522864960000000454173193470396557_);fill:none;stroke:#BF00BF;stroke-width:2;stroke-linejoin:round;stroke-dasharray:7.4,3.2;" d="
			M249,39.9l-4.3,3.2l-4.3,3.2l-4.2,3.2l-4.2,3.2l-4.1,3.2l-4.1,2.2l-4.1-0.2l-4-0.4l-3.9-0.6l-3.9-0.7l-3.8-0.8l-3.7-0.9l-5.4,1.2
			l-5.2,1l-5.1,0.9l-5,0.9l-5,0.9l-4.9,0.9l-4.9,1l-4.8,1.1l-4.8,1.3l-6.2,4.8l-7.2,7.2l-6.9,6.6l-6.5,6.2l-6.3,5.8l-6,5.5
			l-6.4,15.3l-5.6,10.9l-5.2,9.8l-4.9,8.8l-4.6,8l-4.3,7.3l-4.1,6.7l-3.8,6.2l-3.8,6.7l-3.6,6.4l-3.4,5.8l-3.2,5.3l-3,4.9l-2.8,4.5
			l-2.7,4.2l-2.5,3.9"/>
	</g>
</g>
<g id="line2d_16">
	<g>
		<defs>
			<rect id="SVGID_00000124879296722903606070000015968357888541096581_" x="36" y="30.2" width="223.2" height="194"/>
		</defs>
		<clipPath id="SVGID_00000054971943823673181100000008112010706766477244_">
			<use xlink:href="#SVGID_00000124879296722903606070000015968357888541096581_"  style="overflow:visible;"/>
		</clipPath>
		
			<path style="clip-path:url(#SVGID_00000054971943823673181100000008112010706766477244_);fill:none;stroke:#FF0000;stroke-width:2;stroke-linejoin:round;stroke-dasharray:12.8,3.2,2,3.2;" d="
			M248.9,41.3l-4.3,3.2l-4.3,3.2l-4.2,3.2l-4.2,3.2l-4.1,3.2l-4.1,2l-4.1-0.3l-4-0.5l-3.9-0.7l-5.9,1.9l-5.3,1.2l-5.2,1.1l-5.1,1
			l-5,0.9l-4.9,0.9l-4.9,0.9l-4.8,0.9l-4.7,0.9l-4.7,1l-4.7,1.2l-6.5,4.5l-6.4,5.4l-6.7,6.1l-6.4,5.7l-6.1,5.4l-5.8,4.9l-5.6,4.1
			l-6.3,13.1l-5.4,9.7l-5,8.7l-4.7,7.9l-4.4,7.1l-4.1,6.5l-4.1,7.4l-3.8,6.8l-3.6,6.1l-3.4,5.6l-3.2,5.1l-3,4.7l-2.8,4.3l-2.6,4
			l-2.5,3.7l-2.4,3.4l-2.2,3.2"/>
	</g>
</g>
<g id="line2d_17">
	<g>
		<defs>
			<rect id="SVGID_00000049184089301154032930000002902759381711420863_" x="36" y="30.2" width="223.2" height="194"/>
		</defs>
		<clipPath id="SVGID_00000098918593775480988710000013783697781535710133_">
			<use xlink:href="#SVGID_00000049184089301154032930000002902759381711420863_"  style="overflow:visible;"/>
		</clipPath>
		
			<path style="clip-path:url(#SVGID_00000098918593775480988710000013783697781535710133_);fill:none;stroke:#BFBF00;stroke-width:2;stroke-linejoin:round;stroke-dasharray:2,3.3;" d="
			M248.7,44.2l-4.3,3.2l-4.3,3.2l-4.2,3.2l-7.6,5.6l-6.5,5.1l-6.4,5.1l-3,2.5l-5.5,1.3l-4.9,0.7l-4.6,0.2l-4.5,0.2l-4.5,0.2
			l-4.4,0.3l-4.4,0.3l-4.4,0.5l-4.5,0.8l-7.1,4l-6.9,3.9l-6.7,3.8l-6.5,3.6l-6.3,3.5l-5.5,3l-5.2,2.8l-5,2.7l-4.8,2.6l-5,8.8
			l-4.7,6.8l-4.4,6.4l-4.2,6l-4.4,8.1l-4,7l-3.8,6.5l-3.7,6.2L79,168l-3.3,5.2l-3.1,4.8L69,183l-3.1,4.6l-2.9,4.3l-2.8,4l-2.6,3.8
			l-2.5,3.5l-2.4,3.3l-2.3,3.1l-2.2,2.9l-2.1,2.8"/>
	</g>
</g>
<g id="patch_3">
	<path class="st5" d="M36,224.3v-194"/>
</g>
<g id="patch_4">
	<path class="st5" d="M259.2,224.3v-194"/>
</g>
<g id="patch_5">
	<path class="st5" d="M36,224.3h223.2"/>
</g>
<g id="patch_6">
	<path class="st5" d="M36,30.2h223.2"/>
</g>
</svg>
